SplineFontDB: 3.0
FontName: LinLibertineB
FullName: Linux Libertine Bold
FamilyName: Linux Libertine
Weight: Bold
Copyright: Linux Libertine by Philipp H. Poll, Open Font under Terms of following Free Software Licenses:\nGPL (General Public License) and OFL (Open Font License).\nCreated with FontForge 1.0 (http://fontforge.sf.net) Sept 2003, 2004, 2005, 2006, 2007
UComments: "2003-08-29: Created.+AAoA-2004-07-25: v(1.0) release candidate+AAoA-2005-12-28: v(1.1.0) stable+AAoA-2006-01-01: v(2.0.0) stable+AAoA-2006-09-05: v(2.2.0) stable+AAoA-2006-12-04: v(2.3.0) stable+AAoA-2007-03-11: v(2.4.0) stable+AAoA-2007-06-11: v(2.6.0) stable+AAoA" 
Version: 2.8.x
ItalicAngle: 0
UnderlinePosition: -200
UnderlineWidth: 80
Ascent: 1638
Descent: 410
LayerCount: 2
Layer: 0 0 "Back" 
Layer: 1 0 "Fore" 
NeedsXUIDChange: 1
XUID: [1021 993 1524925707 4740893]
FSType: 0
OS2Version: 0
OS2_WeightWidthSlopeOnly: 0
OS2_UseTypoMetrics: 0
CreationTime: 1156455862
ModificationTime: 1213882767
PfmFamily: 17
TTFWeight: 700
TTFWidth: 5
LineGap: 135
VLineGap: 0
OS2TypoAscent: 1501
OS2TypoAOffset: 0
OS2TypoDescent: -499
OS2TypoDOffset: 0
OS2TypoLinegap: 0
OS2WinAscent: 1830
OS2WinAOffset: 0
OS2WinDescent: 500
OS2WinDOffset: 0
HheadAscent: 1830
HheadAOffset: 0
HheadDescent: -485
HheadDOffset: 0
OS2FamilyClass: 261
OS2Vendor: 'PfEd'
Lookup: 1 0 0 "'smcp' Gemeine nach Kapitaelchen"  {"'smcp' Gemeine nach Kapitaelchen 1"  } ['smcp' ('DFLT' <'dflt' > 'cyrl' <'dflt' > 'goth' <'dflt' > 'grek' <'dflt' > 'latn' <'dflt' > ) ]
Lookup: 4 0 1 "'liga' Standardligaturen"  {"'liga' Standardligaturen 1"  } ['liga' ('DFLT' <'dflt' > 'cyrl' <'dflt' > 'goth' <'dflt' > 'grek' <'dflt' > 'latn' <'dflt' > ) ]
Lookup: 4 0 0 "'hlig' Historische Ligaturen"  {"'hlig' Historische Ligaturen 1"  } ['hlig' ('DFLT' <'dflt' > 'cyrl' <'dflt' > 'grek' <'dflt' > 'hebr' <'dflt' > 'latn' <'dflt' > ) ]

StartChar: exclam
Encoding: 33 33 0
Width: 500
Flags: HW
HStem: -25 228<158.302 337.698> 1328 20G<217.5 287>
VStem: 102 296<1101.41 1307.82> 134 228<-0.388908 178.698> 178 139<423.556 574.712>
LayerCount: 2
Fore
SplineSet
249 1348 m 0
 325 1348 398 1299 398 1193 c 0
 398 1123 385 1045 373 976 c 0
 364.464 926.917 354.204 868.976 346 800 c 0
 326.486 635.942 318.412 526.064 317 471 c 0
 316 432 314 386 249 386 c 0
 182 386 180 426 178 495 c 0
 175.705 574.194 164 692 153 800 c 0
 144 880 135 939 126 983 c 0
 113 1054 102 1115 102 1193 c 0
 102 1308 186 1348 249 1348 c 0
134 89 m 0
 134 152 185 203 248 203 c 0
 311 203 362 152 362 89 c 0
 362 27 311 -25 248 -25 c 0
 185 -25 134 27 134 89 c 0
EndSplineSet
EndChar

StartChar: quotedbl
Encoding: 34 34 1
Width: 750
Flags: HW
HStem: 863 457<196.913 262 225 262 464.913 530 493 530>
LayerCount: 2
Fore
SplineSet
225 863 m 1
 193 870 l 1
 193 870 129 1198 129 1211 c 0
 129 1258 174 1320 262 1320 c 0
 348 1320 354 1282 354 1245 c 0
 354 1214 277 874 277 874 c 1
 225 863 l 1
493 863 m 1
 461 870 l 1
 461 870 397 1198 397 1211 c 0
 397 1258 442 1320 530 1320 c 0
 616 1320 622 1282 622 1245 c 0
 622 1214 545 874 545 874 c 1
 493 863 l 1
EndSplineSet
EndChar

StartChar: numbersign
Encoding: 35 35 2
Width: 949
Flags: HMW
HStem: 370 115<51 216 379 507 664 846> 691 115<102 266 429 557 714 895>
DStem2: 162 26 306 26 0.157407 0.987534<22.6667 348.212 487.435 673.08 812.304 1136.86> 453 26 592 26 0.155692 0.987806<21.6411 348.213 486.254 673.083 811.124 1136.71>
LayerCount: 2
Fore
SplineSet
525 485 m 1
 557 691 l 1
 413 691 l 1
 401 618 391 558 379 485 c 1
 525 485 l 1
697 691 m 1
 664 485 l 1
 862 485 l 1
 846 370 l 1
 648 370 l 1
 629 257 610 137 592 26 c 1
 453 26 l 1
 507 370 l 1
 362 370 l 1
 343 257 325 137 306 26 c 1
 162 26 l 1
 216 370 l 1
 34 370 l 1
 51 485 l 1
 234 485 l 1
 245 557 255 618 266 691 c 1
 84 691 l 1
 102 806 l 1
 285 806 l 1
 303 918 322 1038 339 1149 c 1
 485 1149 l 1
 429 806 l 1
 576 806 l 1
 594 918 611 1038 629 1149 c 1
 769 1149 l 1
 714 806 l 1
 912 806 l 1
 895 691 l 1
 697 691 l 1
EndSplineSet
EndChar

StartChar: dollar
Encoding: 36 36 3
Width: 899
VWidth: 2047
Flags: HW
HStem: -25 77<292.732 566.369> 1100 71<315.463 574.182>
VStem: 87 172<796.639 1027.89> 397 82<-165 1284> 634 189<135.49 398.366>
LayerCount: 2
Fore
SplineSet
186 20 m 0
 154 20 159 -2 116 -2 c 1
 116 73 100 185 83 299 c 1
 174 305 l 1
 205.098 182.439 264.638 72.4262 397 54.5368 c 1
 397 530.186 l 1
 264.287 579.322 87 666.645 87 889 c 0
 87 1063.71 261.55 1153.2 397 1168.59 c 1
 397 1284 l 1
 479 1284 l 1
 479 1170.07 l 1
 561.934 1166.44 633.507 1153.37 684.07 1153.37 c 0
 693.857 1153.37 702.857 1153.86 711 1155 c 1
 716 1063 735 962 752 862 c 1
 663 854 l 1
 652 891 l 2
 612.708 1022.27 581.39 1085.76 479 1097.84 c 1
 479 682.2 l 1
 601.918 643.673 823 524.3 823 319 c 0
 823 160.267 744.4 -7.50133 479 -23.7216 c 1
 479 -165 l 1
 397 -165 l 1
 397 -23.6642 l 1
 289.064 -16.2013 225.465 20 186 20 c 0
479 495.403 m 1
 479 55.5174 l 1
 551.199 67.6418 634 115.235 634 260 c 0
 634 365.63 574.184 444.467 479 495.403 c 1
397 714.415 m 1
 397 1096.39 l 1
 310.865 1080.73 259 1014.04 259 897 c 0
 259 823.377 328.918 753.115 397 714.415 c 1
EndSplineSet
EndChar

StartChar: percent
Encoding: 37 37 4
Width: 1305
VWidth: 2047
Flags: HW
HStem: -38 67<924.309 1064.44> 439 72<993.446 1119.6> 608 67<265.078 397.315> 970 92<670.363 815.889> 1084 73<329.603 480.52>
VStem: 108 141<688.305 988.717> 492 87<794.38 1013.21> 767 141<45.261 331.008> 1151 86<134.218 430.57>
DStem2: 207.899 -9.66667 308 -33 0.588153 0.808749<40.0039 1264.43 1341.67 1446.47>
LayerCount: 2
Fore
SplineSet
908 157 m 0
 908 78 939 29 976 29 c 0
 1090 29 1151 209 1151 322 c 0
 1151 429 1100 439 1071 439 c 0
 984 439 908 275 908 157 c 0
767 187 m 0
 767 341 867 511 1049 511 c 0
 1131 511 1237 474 1237 325 c 0
 1237 138 1134 -38 964 -38 c 0
 839 -38 767 79 767 187 c 0
745 1062 m 0
 831 1062 968 1076 1052 1165 c 1
 1147.96 1122 l 1
 308 -33 l 1
 207.899 -9.66667 l 1
 946 1017 l 1
 867 986 786 970 726 970 c 0
 677 970 612 991 573 1014 c 1
 577 998 579 988 579 970 c 0
 579 798 478 608 306 608 c 0
 178 608 108 726 108 831 c 0
 108 988 222 1157 390 1157 c 0
 447 1157 505 1138 526 1114 c 1
 636 1062 709 1062 745 1062 c 0
249 802 m 0
 249 722 281 675 318 675 c 0
 411 675 492 850 492 968 c 0
 492 1070 448 1084 411 1084 c 0
 312 1084 249 921 249 802 c 0
EndSplineSet
EndChar

StartChar: parenleft
Encoding: 40 40 5
Width: 646
Flags: HW
HStem: -436 21G<316 567.788>
VStem: 73 236<315.483 811.921>
LayerCount: 2
Fore
SplineSet
73 518 m 0
 73 891 284 1244 552 1474 c 1
 611 1404 l 1
 548 1333 309 1058 309 518 c 0
 309 -22 545 -296 611 -370 c 1
 549 -436 l 1
 83 -34 73 427 73 518 c 0
EndSplineSet
Substitution2: "'c2sc' Versale nach Kapitaelchen 1" parenleft.sc
AlternateSubs2: "'aalt' Alle Alternativen zeigen 1" parenleft.sc
Substitution2: "'sinf' Wissenschaftliche Indices 1" parenleft.inferior
Substitution2: "'sups' Hochgestellte 1" parenleft.superior
Substitution2: "'case' Versalformen 1" parenleft.sc
EndChar

StartChar: parenright
Encoding: 41 41 6
Width: 646
VWidth: 2047
Flags: HW
HStem: 1447 21<78.2121 330>
VStem: 337 236<220.079 716.517>
LayerCount: 2
Fore
SplineSet
573 514 m 0
 573 141 362 -212 94 -442 c 1
 35 -372 l 1
 98 -301 337 -26 337 514 c 0
 337 1054 101 1328 35 1402 c 1
 97 1468 l 1
 563 1066 573 605 573 514 c 0
EndSplineSet
Substitution2: "'c2sc' Versale nach Kapitaelchen 1" parenright.sc
AlternateSubs2: "'aalt' Alle Alternativen zeigen 1" parenright.sc
Substitution2: "'sinf' Wissenschaftliche Indices 1" parenright.inferior
Substitution2: "'sups' Hochgestellte 1" parenright.superior
Substitution2: "'case' Versalformen 1" parenright.sc
EndChar

StartChar: asterisk
Encoding: 42 42 7
Width: 887
VWidth: 2047
Flags: HW
HStem: 1169 141<186.178 318.755 560.963 713.435>
VStem: 355 159<1273.12 1460.31>
LayerCount: 2
Fore
SplineSet
404 1159 m 1
 382.173 1163.04 360.076 1170.38 336.251 1170.38 c 0
 330.604 1170.38 324.86 1169.97 319 1169 c 0
 292.425 1164.62 267.214 1161.44 244.838 1161.44 c 0
 190.591 1161.44 153 1180.16 153 1246 c 0
 153 1274 173 1310 221 1310 c 0
 291 1310 325 1243 416 1205 c 1
 408 1286 355 1337 355 1390 c 0
 355 1434 396 1470 433 1470 c 0
 469 1470 514 1448 514 1399 c 0
 514 1344 467 1265 462 1204 c 1
 556 1244 577 1315.5 646 1315.5 c 0
 708 1315.5 724 1266 724 1245 c 0
 724 1183 654.5 1163.5 584.5 1163.5 c 0
 567.673 1163.51 l 0
 534.612 1163.51 504.857 1163.14 474 1158 c 1
 543 1083 647 1088 647 984 c 0
 647 947 611 923 582 923 c 0
 481 923 487 1050 437 1131 c 1
 385 1039 414 923 293 923 c 0
 259 923 233 951 233 982 c 0
 233 1092 335 1082 404 1159 c 1
EndSplineSet
EndChar

StartChar: plus
Encoding: 43 43 8
Width: 1101
Flags: HW
HStem: 400 150<125 476 626 976> 867 20G<476 626>
VStem: 476 150<65 400 550 887>
LayerCount: 2
Fore
SplineSet
626 550 m 1
 976 550 l 1
 976 400 l 1
 626 400 l 1
 626 65 l 1
 476 65 l 1
 476 400 l 1
 125 400 l 1
 125 550 l 1
 476 550 l 1
 476 887 l 1
 626 887 l 1
 626 550 l 1
EndSplineSet
AlternateSubs2: "'aalt' Alle Alternativen zeigen 1" plus.superior plus.inferior uni2098
Substitution2: "'sinf' Wissenschaftliche Indices 1" plus.inferior
Substitution2: "'sups' Hochgestellte 1" plus.superior
EndChar

StartChar: slash
Encoding: 47 47 9
Width: 648
Flags: HW
VStem: 5 613<-44 1396>
DStem2: 5 -44 133 -44 0.319188 0.947692<40.856 1519.48>
LayerCount: 2
Fore
SplineSet
618 1396 m 1
 133 -44 l 1
 5 -44 l 1
 490 1396 l 1
 618 1396 l 1
EndSplineSet
Ligature2: "'frac' Brueche 1" uni2215
AlternateSubs2: "'aalt' Alle Alternativen zeigen 1" uni2215
EndChar

StartChar: one
Encoding: 49 49 10
Width: 950
Flags: HW
HStem: -2 76<200 405.683 639.266 827.884> 887 21G<198.163 237> 1164 20G<483 636>
VStem: 411 225<74.9473 962.987>
LayerCount: 2
Fore
SplineSet
379.5 963 m 0
 352.5 963 267 919 207 887 c 1
 169 973 l 1
 350 1056 428 1106 538 1184 c 1
 636 1184 l 1
 636 160 l 2
 636 93 654 74 683 74 c 2
 798 74 l 2
 824 74 836 68 836 49 c 2
 836 2.25 l 1
 833 -2 l 1
 523 2 l 2
 430 2 293 -1 200 -2 c 1
 197 2.33333 l 1
 197 51 l 2
 198 61 201 74 255 74 c 2
 357 74 l 2
 390 74 411 106 411 160 c 2
 411 853 l 2
 411 945.5 406 963 379.5 963 c 0
EndSplineSet
AlternateSubs2: "'aalt' Alle Alternativen zeigen 1" one.oldstyle one.superior one.fitted
Substitution2: "'sups' Hochgestellte 1" one.superior
Substitution2: "'sinf' Wissenschaftliche Indices 1" one.inferior
Substitution2: "'pnum' Proportionalziffern 1" one.fitted
Substitution2: "'onum' Minuskelziffern 1" one.taboldstyle
EndChar

StartChar: two
Encoding: 50 50 11
Width: 950
Flags: HW
HStem: 0 133<329 726.916> 1105 79<346.578 550.946>
VStem: 114 202<869.721 1033.59> 615 239<736.839 1038.57>
LayerCount: 2
Fore
SplineSet
114 903 m 0
 114 1021 231 1184 472 1184 c 0
 649 1184 854 1123 854 883 c 0
 854 738 726.999 614.001 558 452.474 c 0
 482.804 380.603 329 228 329 133 c 1
 635 133 l 2
 710 133 738 168 775 298 c 1
 862 280 l 1
 837.454 177.508 826.255 81.7913 817 0 c 1
 100 0 l 1
 100 114 121.018 201.012 320 407 c 2
 462 554 l 2
 565.67 661.32 615 746 615 875 c 0
 615 1053 513 1105 459 1105 c 0
 353 1105 316 1036 316 991 c 0
 316 971 318 956 323 942 c 0
 328.874 925.553 331 911 331 901 c 0
 331 842 271 820 224 820 c 0
 163 820 114 857 114 903 c 0
EndSplineSet
AlternateSubs2: "'aalt' Alle Alternativen zeigen 1" two.oldstyle two.superior two.fitted
Substitution2: "'sups' Hochgestellte 1" two.superior
Substitution2: "'sinf' Wissenschaftliche Indices 1" two.inferior
Substitution2: "'pnum' Proportionalziffern 1" two.fitted
Substitution2: "'onum' Minuskelziffern 1" two.taboldstyle
EndChar

StartChar: three
Encoding: 51 51 12
Width: 950
Flags: HW
HStem: -25 78<322.302 523.772> 1106 78<389.248 550.709>
VStem: 109 192<902.132 1036.64> 588 213<885.267 1071.39> 633 233<205.732 535.978>
LayerCount: 2
Fore
SplineSet
468 1106 m 0
 428 1106 301 1079 301 961 c 0
 301 921 280 854 199 854 c 0
 115 854 109 920 109 926 c 0
 109 992 191 1184 508 1184 c 0
 738 1184 801 1055 801 970 c 0
 801 923 789 829 602 706 c 1
 726 676 866 588 866 396 c 0
 866 123 649 -25 396 -25 c 0
 262 -25 87 30 87 112 c 0
 87 145 131 185 190 185 c 0
 251 185 272 162 290 134 c 0
 311.152 101.097 357 53 421 53 c 0
 475 53 633 119 633 368 c 0
 633 579 507 611 418 611 c 0
 404 611 366 604 313 592 c 1
 301 670 l 1
 457 697 588 848 588 941 c 0
 588 1051 527 1106 468 1106 c 0
EndSplineSet
AlternateSubs2: "'aalt' Alle Alternativen zeigen 1" three.oldstyle three.superior three.fitted
Substitution2: "'sups' Hochgestellte 1" three.superior
Substitution2: "'sinf' Wissenschaftliche Indices 1" three.inferior
Substitution2: "'pnum' Proportionalziffern 1" three.fitted
Substitution2: "'onum' Minuskelziffern 1" three.taboldstyle
EndChar

StartChar: four
Encoding: 52 52 13
Width: 950
Flags: HW
HStem: -2 76<334 514.683 738.266 896.884> 311 90<239 520 735 876> 1167 20G<533.5 553.579>
VStem: 520 215<74.9473 311 401 656>
LayerCount: 2
Fore
SplineSet
520 160 m 2
 520 311 l 1
 169 311 l 2
 130 311 122.095 314.067 115 324 c 2
 90 359 l 1
 80.3333 378.667 68 404.335 68 412.335 c 0
 68 417.335 71 422 77 428 c 0
 282 644 435.99 998.003 495 1171 c 0
 499.083 1182.97 516 1187 551 1187 c 0
 556.159 1187 596.716 1184.98 622 1173 c 1
 534.428 846.593 392.16 601.094 239 401 c 1
 520 401 l 1
 520 656 l 1
 646 836 l 1
 735 836 l 1
 735 401 l 1
 876 401 l 1
 897 311 l 1
 735 311 l 1
 735 160 l 2
 735 93 753 74 782 74 c 2
 867 74 l 2
 893 74 905 68 905 49 c 2
 905 2.25 l 1
 902 -2 l 1
 622 2 l 2
 529 2 427 -1 334 -2 c 1
 331 2.33301 l 1
 331 51 l 2
 332 61 335 74 389 74 c 2
 466 74 l 2
 499 74 520 106 520 160 c 2
EndSplineSet
AlternateSubs2: "'aalt' Alle Alternativen zeigen 1" four.oldstyle four.superior four.fitted
Substitution2: "'sups' Hochgestellte 1" four.superior
Substitution2: "'sinf' Wissenschaftliche Indices 1" four.inferior
Substitution2: "'pnum' Proportionalziffern 1" four.fitted
Substitution2: "'onum' Minuskelziffern 1" four.taboldstyle
EndChar

StartChar: five
Encoding: 53 53 14
Width: 950
Flags: HW
HStem: -25 85<335.942 518.947> 655 110<320.617 521.61> 1030 148<309 697.65>
VStem: 616 231<203.786 548.148>
DStem2: 125 590 276 752 0.118213 0.992988<178.714 458.666>
LayerCount: 2
Fore
SplineSet
616 350 m 0
 616 543 519 655 418 655 c 0
 333 655 247 641 125 590 c 1
 195 1178 l 1
 290 1169 374 1165 445 1165 c 0
 544 1165 654 1172 776 1186 c 1
 816 1165 l 1
 785 1032 l 1
 682 1024 603 1020 542 1020 c 0
 471 1020 363 1025 309 1030 c 1
 298 931 289 852 276 752 c 1
 315 760 416 765 467 765 c 0
 711 765 847 584 847 392 c 0
 847 161 671 -25 416 -25 c 0
 282 -25 105 44 105 128 c 0
 105 171 141 206 201 206 c 0
 262 206 293.984 171.991 315 134 c 0
 341 87 374 60 407 60 c 0
 512 60 616 162 616 350 c 0
EndSplineSet
AlternateSubs2: "'aalt' Alle Alternativen zeigen 1" five.oldstyle five.superior five.fitted
Substitution2: "'sups' Hochgestellte 1" five.superior
Substitution2: "'sinf' Wissenschaftliche Indices 1" five.inferior
Substitution2: "'pnum' Proportionalziffern 1" five.fitted
Substitution2: "'onum' Minuskelziffern 1" five.taboldstyle
EndChar

StartChar: six
Encoding: 54 54 15
Width: 950
Flags: HW
HStem: -25 75<413.742 596.172> 618 82<430.471 578.866> 1124 63<732.93 837.533>
VStem: 79 228<221.375 542.222> 664 225<169.264 518.431>
LayerCount: 2
Fore
SplineSet
308.913 542.222 m 1
 307.943 521.764 307 485.394 307 465 c 0
 307 132 433 50 517 50 c 0
 588 50 664 132 664 337 c 0
 664 431 624 618 466 618 c 0
 436.579 618 381.938 614.396 308.913 542.222 c 1
841 1124 m 1
 746 1118 622.306 1109.96 484 975 c 0
 413.141 905.855 356 795 327 660 c 1
 383 684 451 700 506 700 c 0
 845 700 889 447 889 353 c 0
 889 211 811 -25 497 -25 c 0
 330 -25 79 62 79 472 c 0
 79 655 146 836 293 985 c 0
 425 1118 584 1173 834 1187 c 1
 841 1124 l 1
EndSplineSet
AlternateSubs2: "'aalt' Alle Alternativen zeigen 1" six.oldstyle six.superior six.fitted
Substitution2: "'sups' Hochgestellte 1" six.superior
Substitution2: "'sinf' Wissenschaftliche Indices 1" six.inferior
Substitution2: "'pnum' Proportionalziffern 1" six.fitted
Substitution2: "'onum' Minuskelziffern 1" six.taboldstyle
EndChar

StartChar: seven
Encoding: 55 55 16
Width: 950
Flags: HW
HStem: 1004 149<244.514 276 276 686> 1158 20G<180.5 244.372>
VStem: 131 735<876 1137>
LayerCount: 2
Fore
SplineSet
276 1153 m 2
 859 1153 l 1
 866 1137 l 1
 652 614 543 311 432 -16 c 1
 246 -27 l 1
 235 -4 l 1
 372 288 580 748 686 1004 c 1
 340 1004 l 2
 277 1004 242 996 208 863 c 1
 131 876 l 1
 164 1010 179 1090 182 1178 c 1
 240 1178 l 1
 248.745 1156.82 262 1153 276 1153 c 2
EndSplineSet
AlternateSubs2: "'aalt' Alle Alternativen zeigen 1" seven.oldstyle seven.superior seven.fitted
Substitution2: "'sups' Hochgestellte 1" seven.superior
Substitution2: "'sinf' Wissenschaftliche Indices 1" seven.inferior
Substitution2: "'pnum' Proportionalziffern 1" seven.fitted
Substitution2: "'onum' Minuskelziffern 1" seven.taboldstyle
EndChar

StartChar: nine
Encoding: 57 57 17
Width: 950
VWidth: 999
Flags: HW
HStem: -28 63<118.467 223.07> 459 82<377.134 525.529> 1109 75<359.828 542.258>
VStem: 67 225<640.569 989.737> 649 228<616.778 937.625>
LayerCount: 2
Fore
SplineSet
647.087 616.778 m 1
 648.057 637.236 649 673.605 649 694 c 0
 649 1027 523 1109 439 1109 c 0
 368 1109 292 1027 292 822 c 0
 292 728 332 541 490 541 c 0
 519.421 541 574.062 544.604 647.087 616.778 c 1
115 35 m 1
 210 41 333.694 49.0404 472 184 c 0
 542.859 253.145 600 364 629 499 c 1
 573 475 505 459 450 459 c 0
 111 459 67 712 67 806 c 0
 67 948 145 1184 459 1184 c 0
 626 1184 877 1097 877 687 c 0
 877 504 810 323 663 174 c 0
 531 41 372 -14 122 -28 c 1
 115 35 l 1
EndSplineSet
AlternateSubs2: "'aalt' Alle Alternativen zeigen 1" nine.oldstyle nine.superior nine.fitted
Substitution2: "'sups' Hochgestellte 1" nine.superior
Substitution2: "'sinf' Wissenschaftliche Indices 1" nine.inferior
Substitution2: "'pnum' Proportionalziffern 1" nine.fitted
Substitution2: "'onum' Minuskelziffern 1" nine.taboldstyle
EndChar

StartChar: colon
Encoding: 58 58 18
Width: 450
VWidth: 2047
Flags: HW
HStem: 76 228<176.302 355.698> 614 228<176.302 355.698>
VStem: 152 228<100.611 279.698 638.611 817.698>
LayerCount: 2
Fore
SplineSet
152 728 m 0
 152 791 203 842 266 842 c 0
 329 842 380 791 380 728 c 0
 380 666 329 614 266 614 c 0
 203 614 152 666 152 728 c 0
152 190 m 0
 152 253 203 304 266 304 c 0
 329 304 380 253 380 190 c 0
 380 128 329 76 266 76 c 0
 203 76 152 128 152 190 c 0
EndSplineSet
EndChar

StartChar: less
Encoding: 60 60 19
Width: 1049
Flags: HW
HStem: 127 729<964 964>
VStem: 85 879<254 447>
DStem2: 85 537 313 492 0.940012 0.341142<198.971 891.77> 313 492 85 447 0.939669 -0.342086<0 693.141>
LayerCount: 2
Fore
SplineSet
313 492 m 1
 964 254 l 1
 964 127 l 1
 85 447 l 1
 85 537 l 1
 964 856 l 1
 964 729 l 1
 313 492 l 1
EndSplineSet
EndChar

StartChar: equal
Encoding: 61 61 20
Width: 1130
Flags: HW
HStem: 291 115<120 1010> 545 116<120 1010>
LayerCount: 2
Fore
SplineSet
1010 406 m 1
 1010 291 l 1
 120 291 l 1
 120 406 l 1
 1010 406 l 1
1010 661 m 1
 1010 545 l 1
 120 545 l 1
 120 661 l 1
 1010 661 l 1
EndSplineSet
AlternateSubs2: "'aalt' Alle Alternativen zeigen 1" equal.superior
Substitution2: "'sinf' Wissenschaftliche Indices 1" equal.inferior
Substitution2: "'sups' Hochgestellte 1" equal.superior
EndChar

StartChar: greater
Encoding: 62 62 21
Width: 1049
Flags: HW
HStem: 122 729<85 85>
VStem: 85 879<531 724>
DStem2: 85 851 85 724 0.939669 -0.342086<43.445 736.244> 85 249 85 122 0.940012 0.341142<0 693.139>
LayerCount: 2
Fore
SplineSet
736 487 m 1
 85 724 l 1
 85 851 l 1
 964 531 l 1
 964 441 l 1
 85 122 l 1
 85 249 l 1
 736 487 l 1
EndSplineSet
EndChar

StartChar: question
Encoding: 63 63 22
Width: 881
Flags: HW
HStem: -25 228<329.302 508.698> 1275 75<292.181 508.859>
VStem: 52 209<1049.49 1207.74> 305 228<-0.388908 178.698> 324 141<354.192 566.241> 581 240<892.03 1194.17>
LayerCount: 2
Fore
SplineSet
261 1170 m 0
 261 1141 270.5 1124.5 276.5 1115 c 0
 285.469 1100.8 290 1079 290 1058 c 0
 290 1007 231 978 170 978 c 0
 121 978 52 1016 52 1094 c 0
 52 1166 92 1212 162 1270 c 0
 224 1321 317 1350 442 1350 c 0
 676 1350 821 1225 821 1037 c 0
 821 885 692 788 589 713 c 0
 533.246 671.184 465 616.326 465 470 c 2
 465 422 l 2
 465 377.023 457 352 393 352 c 0
 329 352 324.013 376.9 324 422 c 2
 324 474 l 2
 324 558 327.783 672.14 474 806 c 0
 545 871 581 928 581 1030 c 0
 581 1156 513 1275 422 1275 c 0
 332 1275 261 1226 261 1170 c 0
305 89 m 0
 305 152 356 203 419 203 c 0
 482 203 533 152 533 89 c 0
 533 27 482 -25 419 -25 c 0
 356 -25 305 27 305 89 c 0
EndSplineSet
EndChar

StartChar: at
Encoding: 64 64 23
Width: 2107
Flags: HMW
HStem: -459 94<868.551 1368.84> -6 101<905.146 1043.44> 833 78<1106.75 1284.28> 1314 88<858.57 1335.78>
VStem: 117 223<216.319 749.414> 633 229<134.818 526.237> 1773 203<370.337 851.092>
LayerCount: 2
Fore
SplineSet
1320 686 m 0
 1320 769 1263 833 1204 833 c 0
 1172 833 1093 832 1010 740 c 0
 903 625 862 463 862 313 c 0
 862 203 884 95 998 95 c 0
 1069 95 1188 178.001 1252 382 c 0
 1276.81 461.073 1320 629 1320 686 c 0
1401 103 m 0
 1401 69.6631 1417 67 1443.49 67 c 0
 1532 67 1773 252.522 1773 593 c 0
 1773 1120 1377 1314 1098 1314 c 0
 756 1314 340 1048 340 488 c 0
 340 203 518 -365 1118 -365 c 0
 1303 -365 1455 -300 1618 -186 c 1
 1668 -255 l 1
 1517 -369 1365 -459 1074 -459 c 0
 508 -459 117 -43 117 470 c 0
 117 987 519 1402 1099 1402 c 0
 1637 1402 1976 1036 1976 585 c 0
 1976 280 1716 -32 1396 -32 c 0
 1228 -32 1187 56 1187 105 c 1
 1089 15 991 -6 933 -6 c 0
 658 -6 633 202 633 299 c 0
 633 645 924 911 1197 911 c 0
 1310 911 1380 870 1420 822 c 1
 1510 900 l 1
 1572 874 l 1
 1431 259 l 2
 1417 197 1401 126 1401 103 c 0
EndSplineSet
EndChar

StartChar: A
Encoding: 65 65 24
Width: 1432
Flags: HW
HStem: -2 69<21 76.3451 76.3451 133.987 290.77 432.863 432.863 433 847 847.162 847.162 991.552 1267.82 1417.36 1417.36 1417.5> 494 95<479.244 483 483 825> 1327 20G<714.667 747.5>
DStem2: 182 187 303 162 0.383838 0.9234<-47.6394 401.28 508.292 980.105> 817 1284 654.5 1052 0.352804 -0.935697<159.751 653.132 754.371 1150.37>
LayerCount: 2
Fore
SplineSet
518 589 m 2
 825 589 l 1
 654.5 1052 l 1
 479 614 l 1
 479 596.286 481.143 589 518 589 c 2
303 162 m 2
 295.851 143.546 290.729 127.358 290.729 113.818 c 0
 290.729 83.9754 315.609 67 398.5 67 c 0
 431.5 67 442 63 442 47 c 2
 442 6 l 1
 433 -2 l 1
 433 -2 244 2 195 2 c 0
 143 2 21 -2 21 -2 c 1
 5 4.5 l 1
 5 47 l 2
 5 67 20 67 46 67 c 0
 85.5 67 146.964 102.713 182 187 c 2
 638 1284 l 2
 658.747 1332.63 703.333 1347 726 1347 c 0
 769 1347 800.607 1327.47 817 1284 c 2
 1231 186 l 2
 1260 110 1289 67 1340 67 c 2
 1397.5 67 l 2
 1426.5 67 1427 63 1427 47 c 2
 1427 5.5 l 1
 1417.5 -2 l 1
 1417.5 -2 1221 2 1142 2 c 0
 1070 2 847 -2 847 -2 c 1
 832 8 l 1
 832 47 l 2
 832 63 847 67 885 67 c 2
 941 67 l 2
 975 67 992 91 992 120 c 0
 992 132 991 143 988 150 c 2
 860 494 l 1
 483 494 l 2
 442 494 431.291 490.85 420 464 c 2
 303 162 l 2
EndSplineSet
Position2: "'cpsp' Versalabstaende 1" dx=5 dy=0 dh=10 dv=0
Substitution2: "'c2sc' Versale nach Kapitaelchen 1" a.sc
EndChar

StartChar: B
Encoding: 66 66 25
Width: 1271
Flags: HW
HStem: 0 82<459.335 770.721> 0 67<50.9841 200.078> 685 85<453 737.456> 1251 71<50 200.701 463.974 721.205>
VStem: 203 250<93.3853 685 770 1227.93> 826 245<870.067 1160.76> 921 260<218.552 549.73>
LayerCount: 2
Fore
SplineSet
453 1151 m 2
 453 770 l 1
 568 770 l 2
 712 770 826 837 826 1002 c 0
 826 1203 690 1238 595 1238 c 0
 462 1238 453 1210 453 1151 c 2
453 685 m 1
 453 173 l 2
 453 113 464 82 588 82 c 0
 859 82 921 261 921 383 c 0
 921 560 809 685 599 685 c 2
 453 685 l 1
45 44 m 2
 45 58 51.5 67 81 67 c 2
 142 67 l 2
 189 67 203 87 203 152 c 2
 203 1171 l 2
 203 1233 191 1251 142 1251 c 2
 73.3359 1251 l 2
 50.333 1251 45 1260 45 1273 c 2
 45 1318 l 1
 50 1322 l 1
 581 1322 l 2
 996 1322 1071 1146 1071 1006 c 0
 1071 901.869 985 788 875 739.163 c 1
 875 736 l 1
 1092 677 1181 540 1181 360 c 0
 1181 183 1047 0 626 0 c 2
 48 0 l 1
 45 2.33301 l 1
 45 44 l 2
EndSplineSet
Position2: "'cpsp' Versalabstaende 1" dx=5 dy=0 dh=10 dv=0
Substitution2: "'c2sc' Versale nach Kapitaelchen 1" b.sc
EndChar

StartChar: C
Encoding: 67 67 26
Width: 1365
Flags: HMW
HStem: -25 90<594.124 968.99> 894 21G<1143.5 1254> 1263 84<591.275 954.595>
VStem: 70 265<400.214 890.786>
LayerCount: 2
Fore
SplineSet
760 -25 m 0
 293 -25 70 316 70 646 c 0
 70 1049 382 1347 761 1347 c 0
 1033.48 1347 1103.76 1257 1208 1257 c 1
 1215.71 1138.54 1233.57 1024.24 1254 911 c 1
 1175 894 l 1
 1112 1090 1023 1263 762 1263 c 0
 564 1263 335 1090 335 684 c 0
 335 393 473 65 758 65 c 0
 924 65 1074 135 1230 314 c 1
 1293 264 l 1
 1153 80 977 -25 760 -25 c 0
EndSplineSet
Position2: "'cpsp' Versalabstaende 1" dx=5 dy=0 dh=10 dv=0
Substitution2: "'c2sc' Versale nach Kapitaelchen 1" c.sc
EndChar

StartChar: D
Encoding: 68 68 27
Width: 1471
Flags: HW
HStem: 0 82<455.298 881.904> 0 67<49 195.221> 1255 67<48.998 195.221 463.463 765.624>
VStem: 203 250<91.8837 1233> 1125 270<379.913 863.314>
LayerCount: 2
Fore
SplineSet
453 153 m 2
 453 95 472 82 631 82 c 0
 892 82 1125 180 1125 582 c 0
 1125 891 984 1241 580 1241 c 0
 505 1241 453 1235 453 1170 c 2
 453 153 l 2
48.998 0 m 1
 45 4 l 1
 45 50 l 2
 45 61 53 67 62 67 c 2
 91 67 l 2
 172 67 203 92 203 157 c 2
 203 1165 l 2
 203 1230 172 1255 91 1255 c 2
 62 1255 l 2
 53 1255 45 1261 45 1272 c 2
 45 1318 l 1
 48.998 1322 l 1
 656 1322 l 2
 1072 1322 1395 1012 1395 632 c 0
 1395 129 997 2.66639e-05 692 0 c 2
 48.998 0 l 1
EndSplineSet
Position2: "'cpsp' Versalabstaende 1" dx=5 dy=0 dh=10 dv=0
Substitution2: "'c2sc' Versale nach Kapitaelchen 1" d.sc
EndChar

StartChar: E
Encoding: 69 69 28
Width: 1153
Flags: HW
HStem: 0 95<459.356 907.182> 0 67<54.5 199.221> 662 86<459 741.537> 1228 94<459.424 863.343> 1255 67<55.75 199.221>
VStem: 207 252<96.5802 662 748 1212.95>
LayerCount: 2
Fore
SplineSet
54.5 0 m 1
 1055 0 l 1
 1070 111 1089 237 1111 346 c 1
 1021 366 l 1
 988 215 913 95 801 95 c 2
 487 95 l 2
 469 95 459 106 459 153 c 2
 459 662 l 1
 691 662 l 2
 741 662 750 600 761 517 c 0
 762 508 774 495 795 495 c 2
 838 495 l 1
 850 515 l 1
 846 548 836 630.699 836 705 c 0
 836 779.301 846 862 850 895 c 1
 838 915 l 1
 795 915 l 2
 774 915 762 902 761 893 c 0
 750 810 741 748 691 748 c 2
 459 748 l 1
 459 1170 l 2
 459 1212 468 1228 487 1228 c 2
 754 1228 l 2
 891 1228 942 1078 971 972 c 1
 1053 992 l 1
 1033 1095 1018 1205 1009 1322 c 1
 55.75 1322 l 1
 49 1318 l 1
 49 1272 l 2
 49 1261 57 1255 66 1255 c 2
 95 1255 l 2
 176 1255 207 1230 207 1165 c 2
 207 157 l 2
 207 92 176 67 95 67 c 2
 66 67 l 2
 57 67 49 61 49 50 c 2
 49 4 l 1
 54.5 0 l 1
EndSplineSet
Position2: "'cpsp' Versalabstaende 1" dx=5 dy=0 dh=10 dv=0
Substitution2: "'c2sc' Versale nach Kapitaelchen 1" e.sc
EndChar

StartChar: F
Encoding: 70 70 29
Width: 1051
Flags: HW
HStem: 2 65<53 199.221 466.058 610> 662 86<457 739.537> 1228 94<457.424 861.343> 1255 67<55.75 199.221>
VStem: 207 250<78.3379 662 748 1212.95>
LayerCount: 2
Fore
SplineSet
457 157 m 2
 457 100 485 67 569 67 c 2
 598 67 l 2
 608 67 614 61 614 50 c 2
 614 2 l 1
 610 -2 l 1
 610 -2 405 2 332 2 c 0
 252 2 53 -2 53 -2 c 1
 49 2 l 1
 49 50 l 2
 49 61 57 67 66 67 c 2
 95 67 l 2
 176 67 207 92 207 157 c 2
 207 1165 l 2
 207 1230 176 1255 95 1255 c 2
 66 1255 l 2
 57 1255 49 1261 49 1272 c 2
 49 1318 l 1
 55.75 1322 l 1
 1007 1322 l 1
 1016 1205 1031 1095 1051 992 c 1
 969 972 l 1
 940 1078 889 1228 752 1228 c 2
 485 1228 l 2
 466 1228 457 1212 457 1170 c 2
 457 748 l 1
 689 748 l 2
 739 748 748 810 759 893 c 0
 760 902 772 915 793 915 c 2
 836 915 l 1
 848 895 l 1
 844 862 834 779.301 834 705 c 0
 834 630.699 844 548 848 515 c 1
 836 495 l 1
 793 495 l 2
 772 495 760 508 759 517 c 0
 748 600 739 662 689 662 c 2
 457 662 l 1
 457 157 l 2
EndSplineSet
Position2: "'cpsp' Versalabstaende 1" dx=5 dy=0 dh=10 dv=0
Substitution2: "'c2sc' Versale nach Kapitaelchen 1" f.sc
EndChar

StartChar: G
Encoding: 71 71 30
Width: 1489
Flags: HW
HStem: -25 90<627.463 1019.78> 558 69.001<901 1074.05 1334.97 1446> 894 21G<1169.5 1278> 1263 84<610.798 973.831>
VStem: 60 265<412.859 882.077> 1089 240<197.162 468 468 537.375> 1199 79<897.919 1082.09>
LayerCount: 2
Fore
SplineSet
1329 468 m 2
 1329 233 l 2
 1329 203 1338 189 1353 175 c 1
 1210 54 1049 -25 790 -25 c 0
 355 -25 60 275 60 630 c 0
 60 1081 420 1347 785 1347 c 0
 1060 1347 1127.76 1257 1232 1257 c 1
 1239.71 1138.54 1257.57 1024.24 1278 911 c 1
 1199 894 l 1
 1140 1088 1043 1263 782 1263 c 0
 534 1263 325 1020 325 670 c 0
 325 360 497 65 827 65 c 0
 914.816 65 1020.09 94.6733 1089 150.759 c 1
 1089 468 l 2
 1089 533 1024 558 943 558 c 2
 914 558 l 2
 905 558 897 564 897 575 c 2
 897 623.001 l 1
 901 627.001 l 1
 901 627.001 1100 623.001 1180 623.001 c 0
 1253 623.001 1446 627.001 1446 627.001 c 1
 1450 623.001 l 1
 1450 575 l 2
 1450 564 1444 558 1434 558 c 2
 1422 558 l 2
 1338 558 1329 525 1329 468 c 2
EndSplineSet
Position2: "'cpsp' Versalabstaende 1" dx=5 dy=0 dh=10 dv=0
Substitution2: "'c2sc' Versale nach Kapitaelchen 1" g.sc
EndChar

StartChar: grave
Encoding: 96 96 31
Width: 803
VWidth: 2047
Flags: HW
HStem: 1102.33 333.11<366 519.333>
VStem: 217.668 336.556<1136.01 1349.07>
LayerCount: 2
Fore
SplineSet
406 1430 m 1
 540.654 1188 l 2
 549.218 1172.61 554.224 1150.33 554.224 1136.01 c 0
 554.224 1116.73 537.721 1102.33 519.333 1102.33 c 0
 505.667 1102.33 491.123 1113.46 458 1142 c 2
 217.668 1349.07 l 1
 223 1371 l 1
 238 1386 296.333 1435.44 366 1435.44 c 0
 376 1435.44 399 1433.5 406 1430 c 1
EndSplineSet
Substitution2: "'case' Versalformen 1" grave.cap
EndChar

StartChar: ograve
Encoding: 242 242 32
Width: 1063
VWidth: 2047
Flags: HW
HStem: -25 88<458.32 667.253> 828 83<414.587 622.059> 1045.33 333.11<459 612.333>
VStem: 70 250<242.785 651.341> 310.668 336.556<1079.01 1292.07> 746 247<242.375 656.321>
LayerCount: 2
Fore
SplineSet
499 1373 m 1
 633.654 1131 l 2
 642.218 1115.61 647.224 1093.33 647.224 1079.01 c 0
 647.224 1059.73 630.721 1045.33 612.333 1045.33 c 0
 598.667 1045.33 584.123 1056.46 551 1085 c 2
 310.668 1292.07 l 1
 316 1314 l 1
 331 1329 389.333 1378.44 459 1378.44 c 0
 469 1378.44 492 1376.5 499 1373 c 1
512 828 m 0
 381 828 320 643 320 470 c 0
 320 317 395 63 564 63 c 0
 637 63 746 117 746 377 c 0
 746 669 651 828 512 828 c 0
70 423 m 0
 70 705 236 911 533 911 c 0
 866 911 993 657 993 442 c 0
 993 235 847 -25 530 -25 c 0
 229 -25 70 212 70 423 c 0
EndSplineSet
Substitution2: "'smcp' Gemeine nach Kapitaelchen 1" ograve.sc
AlternateSubs2: "'aalt' Alle Alternativen zeigen 1" ograve.sc
EndChar

StartChar: oacute
Encoding: 243 243 33
Width: 1063
VWidth: 2047
Flags: HW
HStem: -25 88<458.32 667.253> 828 83<414.587 622.059> 1045 333<432 608>
VStem: 70 250<242.785 651.341> 402.001 340.999<1069.67 1285> 746 247<242.375 656.321>
LayerCount: 2
Fore
SplineSet
578 1373 m 1
 585 1376 598 1378 608 1378 c 0
 681.859 1378 700.496 1342.92 721 1330 c 1
 743 1285 l 1
 504 1073 l 2
 477.85 1048.19 452 1045 432 1045 c 0
 416 1045 402.001 1056.33 402.001 1069.67 c 0
 402.001 1080.67 402.188 1095.8 415 1116 c 2
 578 1373 l 1
512 828 m 0
 381 828 320 643 320 470 c 0
 320 317 395 63 564 63 c 0
 637 63 746 117 746 377 c 0
 746 669 651 828 512 828 c 0
70 423 m 0
 70 705 236 911 533 911 c 0
 866 911 993 657 993 442 c 0
 993 235 847 -25 530 -25 c 0
 229 -25 70 212 70 423 c 0
EndSplineSet
Substitution2: "'smcp' Gemeine nach Kapitaelchen 1" oacute.sc
AlternateSubs2: "'aalt' Alle Alternativen zeigen 1" oacute.sc
EndChar

StartChar: ocircumflex
Encoding: 244 244 34
Width: 1063
VWidth: 2047
Flags: HW
HStem: -25 88<458.32 667.253> 828 83<414.587 622.059>
VStem: 70 250<242.785 651.341> 746 247<242.375 656.321>
LayerCount: 2
Fore
SplineSet
573 1322 m 1
 632 1226 707 1140 780 1058 c 1
 730 1021 l 1
 646 1072 589 1111 520 1185 c 1
 444 1107 390 1072 310 1021 c 1
 261 1058 l 1
 333 1139 411 1228 471 1322 c 1
 573 1322 l 1
512 828 m 0
 381 828 320 643 320 470 c 0
 320 317 395 63 564 63 c 0
 637 63 746 117 746 377 c 0
 746 669 651 828 512 828 c 0
70 423 m 0
 70 705 236 911 533 911 c 0
 866 911 993 657 993 442 c 0
 993 235 847 -25 530 -25 c 0
 229 -25 70 212 70 423 c 0
EndSplineSet
Substitution2: "'smcp' Gemeine nach Kapitaelchen 1" ocircumflex.sc
AlternateSubs2: "'aalt' Alle Alternativen zeigen 1" ocircumflex.sc
EndChar

StartChar: otilde
Encoding: 245 245 35
Width: 1063
VWidth: 2047
Flags: HW
HStem: -25 88<458.32 667.253> 828 83<414.587 622.059> 1057 117<548.887 716.781> 1166 121<304.773 482.215>
VStem: 70 250<242.785 651.341> 231 568<1225 1270 1078 1270> 746 247<242.375 656.321>
LayerCount: 2
Fore
SplineSet
648 1174 m 0
 692 1174 717 1194 746 1289 c 1
 799 1270 l 1
 774 1135 716 1057 621 1057 c 0
 576 1057 533 1086 491 1116 c 0
 453 1142 415 1166 379 1166 c 0
 326 1166 303 1138 283 1063 c 1
 231 1078 l 1
 259 1211 305 1287 393 1287 c 0
 456 1287 501 1255 541 1225 c 0
 575 1198 609 1174 648 1174 c 0
512 828 m 0
 381 828 320 643 320 470 c 0
 320 317 395 63 564 63 c 0
 637 63 746 117 746 377 c 0
 746 669 651 828 512 828 c 0
70 423 m 0
 70 705 236 911 533 911 c 0
 866 911 993 657 993 442 c 0
 993 235 847 -25 530 -25 c 0
 229 -25 70 212 70 423 c 0
EndSplineSet
Substitution2: "'smcp' Gemeine nach Kapitaelchen 1" otilde.sc
AlternateSubs2: "'aalt' Alle Alternativen zeigen 1" otilde.sc
EndChar

StartChar: odieresis
Encoding: 246 246 36
Width: 1063
VWidth: 2047
Flags: HW
HStem: -25 88<458.32 667.253> 828 83<414.587 622.059> 1059 220<246.435 423.22 617.78 794.565>
VStem: 70 250<242.785 651.341> 224 221<1082.69 1255.31> 596 221<1082.69 1255.31> 746 247<242.375 656.321>
LayerCount: 2
Fore
SplineSet
596 1169 m 0
 596 1229 645 1279 706 1279 c 0
 766 1279 817 1229 817 1169 c 0
 817 1109 766 1059 706 1059 c 0
 645 1059 596 1109 596 1169 c 0
224 1169 m 0
 224 1229 275 1279 335 1279 c 0
 396 1279 445 1229 445 1169 c 0
 445 1109 396 1059 335 1059 c 0
 275 1059 224 1109 224 1169 c 0
512 828 m 0
 381 828 320 643 320 470 c 0
 320 317 395 63 564 63 c 0
 637 63 746 117 746 377 c 0
 746 669 651 828 512 828 c 0
70 423 m 0
 70 705 236 911 533 911 c 0
 866 911 993 657 993 442 c 0
 993 235 847 -25 530 -25 c 0
 229 -25 70 212 70 423 c 0
EndSplineSet
Substitution2: "'smcp' Gemeine nach Kapitaelchen 1" odieresis.sc
AlternateSubs2: "'aalt' Alle Alternativen zeigen 1" odieresis.sc
EndChar

StartChar: divide
Encoding: 247 247 37
Width: 1100
VWidth: 2047
Flags: HW
HStem: 105.047 191.096<474.356 624.714> 401 150<145 955> 655.047 191.096<474.356 624.714>
VStem: 453.987 191.096<675.674 825.774> 453.987 191.096<125.674 275.774>
LayerCount: 2
Fore
SplineSet
453.987 750.595 m 0
 453.987 803.397 496.732 846.143 549.535 846.143 c 0
 602.338 846.143 645.083 803.397 645.083 750.595 c 0
 645.083 698.63 602.338 655.047 549.535 655.047 c 0
 496.732 655.047 453.987 698.63 453.987 750.595 c 0
453.987 200.595 m 0
 453.987 253.397 496.732 296.143 549.535 296.143 c 0
 602.338 296.143 645.083 253.397 645.083 200.595 c 0
 645.083 148.63 602.338 105.047 549.535 105.047 c 0
 496.732 105.047 453.987 148.63 453.987 200.595 c 0
955 551 m 1
 955 401 l 1
 145 401 l 1
 145 551 l 1
 955 551 l 1
EndSplineSet
EndChar

StartChar: ugrave
Encoding: 249 249 38
Width: 1109
VWidth: 2047
Flags: HW
HStem: -25 107<439.608 624.77> 823 69<59 172.006 582 693.415> 1045.33 333.11<449 602.333>
VStem: 179 225<117.16 821.332> 300.668 336.556<1079.01 1292.07> 703 225<174 800.128>
LayerCount: 2
Fore
SplineSet
489 1373 m 1
 623.654 1131 l 2
 632.218 1115.61 637.224 1093.33 637.224 1079.01 c 0
 637.224 1059.73 620.721 1045.33 602.333 1045.33 c 0
 588.667 1045.33 574.123 1056.46 541 1085 c 2
 300.668 1292.07 l 1
 306 1314 l 1
 321 1329 379.333 1378.44 449 1378.44 c 0
 459 1378.44 482 1376.5 489 1373 c 1
928 236 m 2
 928 183.706 949.313 127.003 1019.66 127.003 c 0
 1031.37 127.003 1044.44 128.575 1059 132 c 1
 1074 58 l 1
 926 26 870 10 783 -25 c 1
 703 -25 l 1
 709 68 l 1
 613 7 539 -25 462 -25 c 0
 226 -25 179 115 179 258 c 2
 179 725 l 2
 179 787 168 823 119 823 c 2
 56 823 l 1
 50 831 l 1
 50 885 l 1
 59 892 l 1
 59 892 222 885 287 885 c 0
 315 885 406 892 406 892 c 1
 404 724 l 1
 404 287 l 2
 404 115 471 82 514 82 c 0
 559 82 627 108 703 174 c 1
 703 724 l 2
 703 791 682 823 646 823 c 2
 581 823 l 1
 573 828 l 1
 573 885 l 1
 582 892 l 1
 582 892 753 885 809 885 c 0
 852 885 931 892 931 892 c 1
 931 892 928 783 928 726 c 2
 928 236 l 2
EndSplineSet
Substitution2: "'smcp' Gemeine nach Kapitaelchen 1" ugrave.sc
AlternateSubs2: "'aalt' Alle Alternativen zeigen 1" ugrave.sc
EndChar

StartChar: uacute
Encoding: 250 250 39
Width: 1109
VWidth: 2047
Flags: HW
HStem: -25 107<439.608 624.77> 823 69<59 172.006 582 693.415> 1045 333<487 663>
VStem: 179 225<117.16 821.332> 457.001 340.999<1069.67 1285> 703 225<174 800.128>
LayerCount: 2
Fore
SplineSet
633 1373 m 1
 640 1376 653 1378 663 1378 c 0
 736.859 1378 755.496 1342.92 776 1330 c 1
 798 1285 l 1
 559 1073 l 2
 532.85 1048.19 507 1045 487 1045 c 0
 471 1045 457.001 1056.33 457.001 1069.67 c 0
 457.001 1080.67 457.188 1095.8 470 1116 c 2
 633 1373 l 1
928 236 m 2
 928 183.706 949.313 127.003 1019.66 127.003 c 0
 1031.37 127.003 1044.44 128.575 1059 132 c 1
 1074 58 l 1
 926 26 870 10 783 -25 c 1
 703 -25 l 1
 709 68 l 1
 613 7 539 -25 462 -25 c 0
 226 -25 179 115 179 258 c 2
 179 725 l 2
 179 787 168 823 119 823 c 2
 56 823 l 1
 50 831 l 1
 50 885 l 1
 59 892 l 1
 59 892 222 885 287 885 c 0
 315 885 406 892 406 892 c 1
 404 724 l 1
 404 287 l 2
 404 115 471 82 514 82 c 0
 559 82 627 108 703 174 c 1
 703 724 l 2
 703 791 682 823 646 823 c 2
 581 823 l 1
 573 828 l 1
 573 885 l 1
 582 892 l 1
 582 892 753 885 809 885 c 0
 852 885 931 892 931 892 c 1
 931 892 928 783 928 726 c 2
 928 236 l 2
EndSplineSet
Substitution2: "'smcp' Gemeine nach Kapitaelchen 1" uacute.sc
AlternateSubs2: "'aalt' Alle Alternativen zeigen 1" uacute.sc
EndChar

StartChar: ucircumflex
Encoding: 251 251 40
Width: 1109
VWidth: 2047
Flags: HW
HStem: -25 107<439.608 624.77> 823 69<59 172.006 582 693.415> 1021 301<583 740>
VStem: 179 225<117.16 821.332> 271 519<1058 1058> 703 225<174 800.128>
LayerCount: 2
Fore
SplineSet
583 1322 m 1
 642 1226 717 1140 790 1058 c 1
 740 1021 l 1
 656 1072 599 1111 530 1185 c 1
 454 1107 400 1072 320 1021 c 1
 271 1058 l 1
 343 1139 421 1228 481 1322 c 1
 583 1322 l 1
928 236 m 2
 928 183.706 949.313 127.003 1019.66 127.003 c 0
 1031.37 127.003 1044.44 128.575 1059 132 c 1
 1074 58 l 1
 926 26 870 10 783 -25 c 1
 703 -25 l 1
 709 68 l 1
 613 7 539 -25 462 -25 c 0
 226 -25 179 115 179 258 c 2
 179 725 l 2
 179 787 168 823 119 823 c 2
 56 823 l 1
 50 831 l 1
 50 885 l 1
 59 892 l 1
 59 892 222 885 287 885 c 0
 315 885 406 892 406 892 c 1
 404 724 l 1
 404 287 l 2
 404 115 471 82 514 82 c 0
 559 82 627 108 703 174 c 1
 703 724 l 2
 703 791 682 823 646 823 c 2
 581 823 l 1
 573 828 l 1
 573 885 l 1
 582 892 l 1
 582 892 753 885 809 885 c 0
 852 885 931 892 931 892 c 1
 931 892 928 783 928 726 c 2
 928 236 l 2
EndSplineSet
Substitution2: "'smcp' Gemeine nach Kapitaelchen 1" ucircumflex.sc
AlternateSubs2: "'aalt' Alle Alternativen zeigen 1" ucircumflex.sc
EndChar

StartChar: ebreve
Encoding: 277 277 41
Width: 945
VWidth: 2047
Flags: HW
HStem: -25 116<449.091 703.008> 482 85<315 646.735> 826 85<439.73 590.813> 1020 127<353.909 631.051>
VStem: 70 235<256.1 557.07> 215 65<1195.39 1302> 215 553<1143 1147 1302 1302> 648 235<510 732.015> 704 64<1203.95 1308.32>
LayerCount: 2
Fore
SplineSet
280 1330 m 1
 284 1225 369 1147 493 1147 c 0
 587 1147 699 1203 704 1330 c 1
 768 1302 l 1
 748 1096 595 1020 493 1020 c 0
 334 1020 230 1143 215 1302 c 1
 280 1330 l 1
315 567 m 1
 643 567 l 1
 646.5 570.5 648 574 648 586 c 0
 648 769 562 826 508 826 c 0
 471 826 348 804 315 567 c 1
814 225 m 1
 877 172 l 1
 798 63 677 -25 510 -25 c 0
 199 -25 70 187 70 411 c 0
 70 724 295 911 510 911 c 0
 811 911 883 699 883 524 c 0
 883 496 851 482 802 482 c 2
 306 482 l 1
 305 472 305 463 305 449 c 0
 305 247 434 91 558 91 c 0
 647 91 728 130 814 225 c 1
EndSplineSet
EndChar

StartChar: Edotaccent
Encoding: 278 278 42
Width: 1153
VWidth: 2047
Flags: HW
HStem: 0 67<54.5 199.221> 0 95<459.356 907.182> 662 86<459 741.537> 1228 94<459.424 863.343> 1255 67<55.75 199.221> 1393 246<504.658 693.342>
VStem: 207 252<96.5802 662 748 1212.95> 477 244<1421.06 1610.94>
LayerCount: 2
Fore
SplineSet
477 1516 m 0
 477 1584 531 1639 599 1639 c 0
 667 1639 721 1584 721 1516 c 0
 721 1448 667 1393 599 1393 c 0
 531 1393 477 1448 477 1516 c 0
54.5 0 m 1
 1055 0 l 1
 1070 111 1089 237 1111 346 c 1
 1021 366 l 1
 988 215 913 95 801 95 c 2
 487 95 l 2
 469 95 459 106 459 153 c 2
 459 662 l 1
 691 662 l 2
 741 662 750 600 761 517 c 0
 762 508 774 495 795 495 c 2
 838 495 l 1
 850 515 l 1
 846 548 836 630.699 836 705 c 0
 836 779.301 846 862 850 895 c 1
 838 915 l 1
 795 915 l 2
 774 915 762 902 761 893 c 0
 750 810 741 748 691 748 c 2
 459 748 l 1
 459 1170 l 2
 459 1212 468 1228 487 1228 c 2
 754 1228 l 2
 891 1228 942 1078 971 972 c 1
 1053 992 l 1
 1033 1095 1018 1205 1009 1322 c 1
 55.75 1322 l 1
 49 1318 l 1
 49 1272 l 2
 49 1261 57 1255 66 1255 c 2
 95 1255 l 2
 176 1255 207 1230 207 1165 c 2
 207 157 l 2
 207 92 176 67 95 67 c 2
 66 67 l 2
 57 67 49 61 49 50 c 2
 49 4 l 1
 54.5 0 l 1
EndSplineSet
Position2: "'cpsp' Versalabstaende 1" dx=5 dy=0 dh=10 dv=0
EndChar

StartChar: edotaccent
Encoding: 279 279 43
Width: 945
VWidth: 2047
Flags: HW
HStem: -25 116<449.091 703.008> 482 85<315 646.735> 826 85<439.73 590.813> 1047 246<401.658 590.342>
VStem: 70 235<256.1 557.07> 374 244<1075.06 1264.94> 648 235<510 732.015>
LayerCount: 2
Fore
SplineSet
374 1170 m 0
 374 1238 428 1293 496 1293 c 0
 564 1293 618 1238 618 1170 c 0
 618 1102 564 1047 496 1047 c 0
 428 1047 374 1102 374 1170 c 0
315 567 m 1
 643 567 l 1
 646.5 570.5 648 574 648 586 c 0
 648 769 562 826 508 826 c 0
 471 826 348 804 315 567 c 1
814 225 m 1
 877 172 l 1
 798 63 677 -25 510 -25 c 0
 199 -25 70 187 70 411 c 0
 70 724 295 911 510 911 c 0
 811 911 883 699 883 524 c 0
 883 496 851 482 802 482 c 2
 306 482 l 1
 305 472 305 463 305 449 c 0
 305 247 434 91 558 91 c 0
 647 91 728 130 814 225 c 1
EndSplineSet
EndChar

StartChar: Eogonek
Encoding: 280 280 44
Width: 1153
VWidth: 2047
Flags: HW
HStem: -459 81<783.979 968.584> 0 67<54.5 199.221> 0 95<459.356 907.182> 662 86<459 741.537> 1228 94<459.424 863.343> 1255 67<55.75 199.221>
VStem: 207 252<96.5802 662 748 1212.95> 637 123<-354.321 -152.569>
LayerCount: 2
Fore
SplineSet
828 -459 m 0
 718 -459 637 -396 637 -284 c 0
 637 -186.923 718.512 -68.5361 841.482 4.51387e-09 c 1
 1036 0 l 1
 871.75 0 760 -153 760 -259 c 0
 760 -324 805 -378 879 -378 c 0
 940 -378 982 -348.5 1021.5 -306 c 1
 1052.5 -321.5 l 1
 1004 -418 900.586 -459 828 -459 c 0
1036 0 m 1
 1055 0 l 1
 1070 111 1089 237 1111 346 c 1
 1021 366 l 1
 988 215 913 95 801 95 c 2
 487 95 l 2
 469 95 459 106 459 153 c 2
 459 662 l 1
 691 662 l 2
 741 662 750 600 761 517 c 0
 762 508 774 495 795 495 c 2
 838 495 l 1
 850 515 l 1
 846 548 836 630.699 836 705 c 0
 836 779.301 846 862 850 895 c 1
 838 915 l 1
 795 915 l 2
 774 915 762 902 761 893 c 0
 750 810 741 748 691 748 c 2
 459 748 l 1
 459 1170 l 2
 459 1212 468 1228 487 1228 c 2
 754 1228 l 2
 891 1228 942 1078 971 972 c 1
 1053 992 l 1
 1033 1095 1018 1205 1009 1322 c 1
 55.75 1322 l 1
 49 1318 l 1
 49 1272 l 2
 49 1261 57 1255 66 1255 c 2
 95 1255 l 2
 176 1255 207 1230 207 1165 c 2
 207 157 l 2
 207 92 176 67 95 67 c 2
 66 67 l 2
 57 67 49 61 49 50 c 2
 49 4 l 1
 54.5 0 l 1
 841.482 4.51387e-09 l 1
 886.987 25.3617 938.17 43.897 993 52 c 1
 1036 0 l 1
EndSplineSet
Position2: "'cpsp' Versalabstaende 1" dx=5 dy=0 dh=10 dv=0
Substitution2: "'c2sc' Versale nach Kapitaelchen 1" eogonek.sc
EndChar

StartChar: eogonek
Encoding: 281 281 45
Width: 945
VWidth: 2047
Flags: HW
HStem: -446 82<550.754 718.375> -25 116<449.091 703.008> 482 85<315 646.735> 826 85<439.73 590.813>
VStem: 70 235<256.1 557.07> 378 148<-341.257 -141.733> 648 235<510 732.015>
LayerCount: 2
Fore
SplineSet
315 567 m 1
 643 567 l 1
 646.5 570.5 648 574 648 586 c 0
 648 769 562 826 508 826 c 0
 471 826 348 804 315 567 c 1
814 225 m 1
 877 172 l 1
 827.6 103.84 761.776 43.8913 678.551 8.53708 c 1
 599.484 -64.5753 526 -144.248 526 -258 c 0
 526 -310 575 -364 637 -364 c 0
 672 -364 710 -335 752 -285.5 c 1
 797 -319.962 l 1
 739.623 -402.303 668.324 -446 589 -446 c 0
 474 -446 378 -383 378 -271 c 0
 378 -182.811 444.199 -97.0591 524.685 -24.7712 c 1
 519.83 -24.9231 514.935 -25 510 -25 c 0
 199 -25 70 187 70 411 c 0
 70 724 295 911 510 911 c 0
 811 911 883 699 883 524 c 0
 883 496 851 482 802 482 c 2
 306 482 l 1
 305 472 305 463 305 449 c 0
 305 247 434 91 558 91 c 0
 647 91 728 130 814 225 c 1
EndSplineSet
AlternateSubs2: "'aalt' Alle Alternativen zeigen 1" eogonek.sc
Substitution2: "'smcp' Gemeine nach Kapitaelchen 1" eogonek.sc
EndChar

StartChar: Ecaron
Encoding: 282 282 46
Width: 1153
VWidth: 2047
Flags: HW
HStem: 0 67<54.5 199.221> 0 95<459.356 907.182> 662 86<459 741.537> 1228 94<459.424 863.343> 1255 67<55.75 199.221> 1429 235<374 548>
VStem: 207 252<96.5802 662 748 1212.95> 342 498<1622 1622>
LayerCount: 2
Fore
SplineSet
548 1429 m 1
 487 1504 416 1566 342 1622 c 1
 374 1664 l 1
 454 1629 524 1589 592 1538 c 1
 667 1593 733 1630 811 1664 c 1
 840 1622 l 1
 764 1564 698 1498 636 1429 c 1
 548 1429 l 1
54.5 0 m 1
 1055 0 l 1
 1070 111 1089 237 1111 346 c 1
 1021 366 l 1
 988 215 913 95 801 95 c 2
 487 95 l 2
 469 95 459 106 459 153 c 2
 459 662 l 1
 691 662 l 2
 741 662 750 600 761 517 c 0
 762 508 774 495 795 495 c 2
 838 495 l 1
 850 515 l 1
 846 548 836 630.699 836 705 c 0
 836 779.301 846 862 850 895 c 1
 838 915 l 1
 795 915 l 2
 774 915 762 902 761 893 c 0
 750 810 741 748 691 748 c 2
 459 748 l 1
 459 1170 l 2
 459 1212 468 1228 487 1228 c 2
 754 1228 l 2
 891 1228 942 1078 971 972 c 1
 1053 992 l 1
 1033 1095 1018 1205 1009 1322 c 1
 55.75 1322 l 1
 49 1318 l 1
 49 1272 l 2
 49 1261 57 1255 66 1255 c 2
 95 1255 l 2
 176 1255 207 1230 207 1165 c 2
 207 157 l 2
 207 92 176 67 95 67 c 2
 66 67 l 2
 57 67 49 61 49 50 c 2
 49 4 l 1
 54.5 0 l 1
EndSplineSet
Position2: "'cpsp' Versalabstaende 1" dx=5 dy=0 dh=10 dv=0
Substitution2: "'c2sc' Versale nach Kapitaelchen 1" ecaron.sc
EndChar

StartChar: ecaron
Encoding: 283 283 47
Width: 945
VWidth: 2047
Flags: HW
HStem: -25 116<449.091 703.008> 482 85<315 646.735> 826 85<439.73 590.813> 1019 301<272 535>
VStem: 70 235<256.1 557.07> 223 519<1283 1283> 648 235<510 732.015>
LayerCount: 2
Fore
SplineSet
535 1019 m 1
 433 1019 l 1
 373 1113 295 1202 223 1283 c 1
 272 1320 l 1
 352 1265 406 1226 482 1148 c 1
 551 1222 612 1265 692 1320 c 1
 742 1283 l 1
 669 1201 594 1115 535 1019 c 1
315 567 m 1
 643 567 l 1
 646.5 570.5 648 574 648 586 c 0
 648 769 562 826 508 826 c 0
 471 826 348 804 315 567 c 1
814 225 m 1
 877 172 l 1
 798 63 677 -25 510 -25 c 0
 199 -25 70 187 70 411 c 0
 70 724 295 911 510 911 c 0
 811 911 883 699 883 524 c 0
 883 496 851 482 802 482 c 2
 306 482 l 1
 305 472 305 463 305 449 c 0
 305 247 434 91 558 91 c 0
 647 91 728 130 814 225 c 1
EndSplineSet
AlternateSubs2: "'aalt' Alle Alternativen zeigen 1" ecaron.sc
Substitution2: "'smcp' Gemeine nach Kapitaelchen 1" ecaron.sc
EndChar

StartChar: Gcircumflex
Encoding: 284 284 48
Width: 1489
VWidth: 2047
Flags: HW
HStem: -25 90<627.463 1019.78> 558 65.001<901 1029.45 1029.45 998.445 998.445 1074.67 1333.65 1446> 894 21<1169.5 1291.94> 1263 84<610.798 973.831> 1414 235<788 962>
VStem: 60 265<412.859 882.077> 496 498<1456 1456> 1089 240<198.85 537.375>
LayerCount: 2
Fore
SplineSet
788 1649 m 1
 849 1574 920 1512 994 1456 c 1
 962 1414 l 1
 882 1449 812 1489 744 1540 c 1
 669 1485 603 1448 525 1414 c 1
 496 1456 l 1
 572 1514 637 1580 700 1649 c 1
 788 1649 l 1
1329 468 m 2
 1329 233 l 2
 1329 203 1338 189 1353 175 c 1
 1210 54 1049 -25 790 -25 c 0
 355 -25 60 275 60 630 c 0
 60 1081 420 1347 785 1347 c 0
 1060 1347 1127.76 1257 1232 1257 c 1
 1239.71 1138.54 1257.57 1024.24 1278 911 c 1
 1199 894 l 1
 1140 1088 1043 1263 782 1263 c 0
 534 1263 325 1020 325 670 c 0
 325 360 497 65 827 65 c 0
 914.816 65 1020.09 94.6729 1089 150.759 c 1
 1089 468 l 2
 1089 533 1024 558 943 558 c 2
 914 558 l 2
 905 558 897 564 897 575 c 2
 897 623.001 l 1
 901 627.001 l 1
 901 627.001 1100 623.001 1180 623.001 c 0
 1253 623.001 1446 627.001 1446 627.001 c 1
 1450 623.001 l 1
 1450 575 l 2
 1450 564 1444 558 1434 558 c 2
 1422 558 l 2
 1338 558 1329 525 1329 468 c 2
EndSplineSet
Position2: "'cpsp' Versalabstaende 1" dx=5 dy=0 dh=10 dv=0
EndChar

StartChar: gcircumflex
Encoding: 285 285 49
Width: 1058
VWidth: 2047
Flags: HW
HStem: -476 91<351.492 703.636> -25 132<344.612 470.224> -19 140<481.726 739.832> 276 76<413.741 600.199> 839 72<394.375 581.699> 869 87<758.523 942> 1020 301<547 704>
VStem: 77 193<-313.093 -107.044> 127 218<430.115 748.323> 145 172<121.208 287.33> 235 519<1057 1057> 647 221<432.717 759.195> 831 186<-266.506 -95.5468>
LayerCount: 2
Fore
SplineSet
547 1321 m 1
 606 1225 681 1139 754 1057 c 1
 704 1020 l 1
 620 1071 563 1110 494 1184 c 1
 418 1106 364 1071 284 1020 c 1
 235 1057 l 1
 307 1138 385 1227 445 1321 c 1
 547 1321 l 1
647 582 m 0
 647 744 581 839 486 839 c 0
 406 839 345 768 345 616 c 0
 345 512 385 352 511 352 c 0
 565 352 647 386 647 582 c 0
383 -25 m 0
 358 -25 339 -25 319 -17 c 1
 276 -62 270 -127 270 -197 c 0
 270 -342 424 -385 482 -385 c 0
 635 -385 831 -327 831 -187 c 0
 831 -50.2637 624.234 -19 532 -19 c 0
 515 -19 496.005 -20.0686 468 -22 c 0
 439 -24 406 -25 383 -25 c 0
923 785 m 0
 871.94 785 856.5 818 847 843 c 0
 841.837 856.587 836 869 818 869 c 0
 796.5 869 775 851 757 832 c 1
 828.104 775.121 868 702.708 868 588 c 0
 868 387 694 276 502 276 c 0
 438 276 380 288 338 310 c 1
 327 285 317 246 317 213 c 0
 317 131 372 107 409 107 c 0
 428.3 107 524.8 121 602 121 c 0
 935.395 121 1017 -56.3164 1017 -134 c 0
 1017 -358 708 -476 424 -476 c 0
 256 -476 77 -419 77 -237 c 0
 77 -158 131 -64 237 9 c 1
 181 42 145 93 145 157 c 0
 145 221 180 289 241 347 c 1
 176 398 127 497 127 597 c 0
 127 788 308 911 503 911 c 0
 596 911 659 890 697 871 c 1
 755 924 847 956 903 956 c 0
 981 956 1013 905 1013 866 c 0
 1013 818 980 785 923 785 c 0
EndSplineSet
EndChar

StartChar: Gbreve
Encoding: 286 286 50
Width: 1489
VWidth: 2047
Flags: HW
HStem: -25 90<627.463 1019.78> 558 65.001<901 1029.45 1029.45 998.445 998.445 1074.67 1333.65 1446> 894 21<1169.5 1291.94> 1263 84<610.798 973.831> 1419 107<599.186 919.759> 1631 20<483 548.5 975 1037>
VStem: 60 265<412.859 882.077> 483 554<1508 1526 1651 1651> 1089 240<198.85 537.375>
LayerCount: 2
Fore
SplineSet
1037 1651 m 1
 1025 1505 896 1419 762 1419 c 0
 611 1419 494 1508 483 1651 c 1
 540 1651 l 1
 557 1571 653 1526 762 1526 c 0
 862 1526 968 1571 982 1651 c 1
 1037 1651 l 1
1329 468 m 2
 1329 233 l 2
 1329 203 1338 189 1353 175 c 1
 1210 54 1049 -25 790 -25 c 0
 355 -25 60 275 60 630 c 0
 60 1081 420 1347 785 1347 c 0
 1060 1347 1127.76 1257 1232 1257 c 1
 1239.71 1138.54 1257.57 1024.24 1278 911 c 1
 1199 894 l 1
 1140 1088 1043 1263 782 1263 c 0
 534 1263 325 1020 325 670 c 0
 325 360 497 65 827 65 c 0
 914.816 65 1020.09 94.6729 1089 150.759 c 1
 1089 468 l 2
 1089 533 1024 558 943 558 c 2
 914 558 l 2
 905 558 897 564 897 575 c 2
 897 623.001 l 1
 901 627.001 l 1
 901 627.001 1100 623.001 1180 623.001 c 0
 1253 623.001 1446 627.001 1446 627.001 c 1
 1450 623.001 l 1
 1450 575 l 2
 1450 564 1444 558 1434 558 c 2
 1422 558 l 2
 1338 558 1329 525 1329 468 c 2
EndSplineSet
Position2: "'cpsp' Versalabstaende 1" dx=5 dy=0 dh=10 dv=0
Substitution2: "'c2sc' Versale nach Kapitaelchen 1" gbreve.sc
EndChar

StartChar: gbreve
Encoding: 287 287 51
Width: 1058
VWidth: 2047
Flags: HW
HStem: -476 91<351.492 703.636> -25 132<344.612 470.224> -19 140<481.726 739.832> 276 76<413.741 600.199> 839 72<394.375 581.699> 869 87<758.523 942> 1012 127<338.909 616.051>
VStem: 77 193<-313.093 -107.044> 127 218<430.115 748.323> 145 172<121.208 287.33> 200 65<1187.39 1294> 200 553<1135 1139 1294 1294> 647 221<432.717 759.195> 689 64<1195.95 1300.32> 831 186<-266.506 -95.5468>
LayerCount: 2
Fore
SplineSet
265 1322 m 1
 269 1217 354 1139 478 1139 c 0
 572 1139 684 1195 689 1322 c 1
 753 1294 l 1
 733 1088 580 1012 478 1012 c 0
 319 1012 215 1135 200 1294 c 1
 265 1322 l 1
647 582 m 0
 647 744 581 839 486 839 c 0
 406 839 345 768 345 616 c 0
 345 512 385 352 511 352 c 0
 565 352 647 386 647 582 c 0
383 -25 m 0
 358 -25 339 -25 319 -17 c 1
 276 -62 270 -127 270 -197 c 0
 270 -342 424 -385 482 -385 c 0
 635 -385 831 -327 831 -187 c 0
 831 -50.2637 624.234 -19 532 -19 c 0
 515 -19 496.005 -20.0686 468 -22 c 0
 439 -24 406 -25 383 -25 c 0
923 785 m 0
 871.94 785 856.5 818 847 843 c 0
 841.837 856.587 836 869 818 869 c 0
 796.5 869 775 851 757 832 c 1
 828.104 775.121 868 702.708 868 588 c 0
 868 387 694 276 502 276 c 0
 438 276 380 288 338 310 c 1
 327 285 317 246 317 213 c 0
 317 131 372 107 409 107 c 0
 428.3 107 524.8 121 602 121 c 0
 935.395 121 1017 -56.3164 1017 -134 c 0
 1017 -358 708 -476 424 -476 c 0
 256 -476 77 -419 77 -237 c 0
 77 -158 131 -64 237 9 c 1
 181 42 145 93 145 157 c 0
 145 221 180 289 241 347 c 1
 176 398 127 497 127 597 c 0
 127 788 308 911 503 911 c 0
 596 911 659 890 697 871 c 1
 755 924 847 956 903 956 c 0
 981 956 1013 905 1013 866 c 0
 1013 818 980 785 923 785 c 0
EndSplineSet
AlternateSubs2: "'aalt' Alle Alternativen zeigen 1" gbreve.sc
Substitution2: "'smcp' Gemeine nach Kapitaelchen 1" gbreve.sc
EndChar

StartChar: Gdotaccent
Encoding: 288 288 52
Width: 1489
VWidth: 2047
Flags: HW
HStem: -25 90<627.463 1019.78> 558 65.001<901 1029.45 1029.45 998.445 998.445 1074.67 1333.65 1446> 894 21<1169.5 1291.94> 1263 84<610.798 973.831> 1421 246<698.658 887.342>
VStem: 60 265<412.859 882.077> 671 244<1449.06 1638.94> 1089 240<198.85 537.375>
LayerCount: 2
Fore
SplineSet
671 1544 m 0
 671 1612 725 1667 793 1667 c 0
 861 1667 915 1612 915 1544 c 0
 915 1476 861 1421 793 1421 c 0
 725 1421 671 1476 671 1544 c 0
1329 468 m 2
 1329 233 l 2
 1329 203 1338 189 1353 175 c 1
 1210 54 1049 -25 790 -25 c 0
 355 -25 60 275 60 630 c 0
 60 1081 420 1347 785 1347 c 0
 1060 1347 1127.76 1257 1232 1257 c 1
 1239.71 1138.54 1257.57 1024.24 1278 911 c 1
 1199 894 l 1
 1140 1088 1043 1263 782 1263 c 0
 534 1263 325 1020 325 670 c 0
 325 360 497 65 827 65 c 0
 914.816 65 1020.09 94.6729 1089 150.759 c 1
 1089 468 l 2
 1089 533 1024 558 943 558 c 2
 914 558 l 2
 905 558 897 564 897 575 c 2
 897 623.001 l 1
 901 627.001 l 1
 901 627.001 1100 623.001 1180 623.001 c 0
 1253 623.001 1446 627.001 1446 627.001 c 1
 1450 623.001 l 1
 1450 575 l 2
 1450 564 1444 558 1434 558 c 2
 1422 558 l 2
 1338 558 1329 525 1329 468 c 2
EndSplineSet
Position2: "'cpsp' Versalabstaende 1" dx=5 dy=0 dh=10 dv=0
EndChar

StartChar: gdotaccent
Encoding: 289 289 53
Width: 1058
VWidth: 2047
Flags: HW
HStem: -476 91<351.492 703.636> -25 132<344.612 470.224> -19 140<481.726 739.832> 276 76<413.741 600.199> 839 72<394.375 581.699> 869 87<758.523 942> 1047 246<377.658 566.342>
VStem: 77 193<-313.093 -107.044> 127 218<430.115 748.323> 145 172<121.208 287.33> 350 244<1075.06 1264.94> 647 221<432.717 759.195> 831 186<-266.506 -95.5468>
LayerCount: 2
Fore
SplineSet
350 1170 m 0
 350 1238 404 1293 472 1293 c 0
 540 1293 594 1238 594 1170 c 0
 594 1102 540 1047 472 1047 c 0
 404 1047 350 1102 350 1170 c 0
647 582 m 0
 647 744 581 839 486 839 c 0
 406 839 345 768 345 616 c 0
 345 512 385 352 511 352 c 0
 565 352 647 386 647 582 c 0
383 -25 m 0
 358 -25 339 -25 319 -17 c 1
 276 -62 270 -127 270 -197 c 0
 270 -342 424 -385 482 -385 c 0
 635 -385 831 -327 831 -187 c 0
 831 -50.2637 624.234 -19 532 -19 c 0
 515 -19 496.005 -20.0686 468 -22 c 0
 439 -24 406 -25 383 -25 c 0
923 785 m 0
 871.94 785 856.5 818 847 843 c 0
 841.837 856.587 836 869 818 869 c 0
 796.5 869 775 851 757 832 c 1
 828.104 775.121 868 702.708 868 588 c 0
 868 387 694 276 502 276 c 0
 438 276 380 288 338 310 c 1
 327 285 317 246 317 213 c 0
 317 131 372 107 409 107 c 0
 428.3 107 524.8 121 602 121 c 0
 935.395 121 1017 -56.3164 1017 -134 c 0
 1017 -358 708 -476 424 -476 c 0
 256 -476 77 -419 77 -237 c 0
 77 -158 131 -64 237 9 c 1
 181 42 145 93 145 157 c 0
 145 221 180 289 241 347 c 1
 176 398 127 497 127 597 c 0
 127 788 308 911 503 911 c 0
 596 911 659 890 697 871 c 1
 755 924 847 956 903 956 c 0
 981 956 1013 905 1013 866 c 0
 1013 818 980 785 923 785 c 0
EndSplineSet
EndChar

StartChar: Gcommaaccent
Encoding: 290 290 54
Width: 1489
VWidth: 2047
Flags: HW
HStem: -274 167<673.718 796.761> -25 90<627.463 1019.78> 558 65.001<901 1029.45 1029.45 998.445 998.445 1074.67 1333.65 1446> 894 21<1169.5 1291.94> 1263 84<610.798 973.831>
VStem: 60 265<412.859 882.077> 828 66<-336.359 -219.5> 1089 240<198.85 537.375>
LayerCount: 2
Fore
SplineSet
767 -107 m 0
 846 -107 894 -183 894 -256 c 0
 894 -309 859 -464 674 -472 c 1
 666 -438 l 1
 822 -407 828 -287 828 -276 c 0
 828 -268 827 -262 825 -256 c 1
 801 -268 781 -274 765 -274 c 0
 682 -274 662 -223 662 -189 c 0
 662 -156 694 -107 767 -107 c 0
1329 468 m 2
 1329 233 l 2
 1329 203 1338 189 1353 175 c 1
 1210 54 1049 -25 790 -25 c 0
 355 -25 60 275 60 630 c 0
 60 1081 420 1347 785 1347 c 0
 1060 1347 1127.76 1257 1232 1257 c 1
 1239.71 1138.54 1257.57 1024.24 1278 911 c 1
 1199 894 l 1
 1140 1088 1043 1263 782 1263 c 0
 534 1263 325 1020 325 670 c 0
 325 360 497 65 827 65 c 0
 914.816 65 1020.09 94.6729 1089 150.759 c 1
 1089 468 l 2
 1089 533 1024 558 943 558 c 2
 914 558 l 2
 905 558 897 564 897 575 c 2
 897 623.001 l 1
 901 627.001 l 1
 901 627.001 1100 623.001 1180 623.001 c 0
 1253 623.001 1446 627.001 1446 627.001 c 1
 1450 623.001 l 1
 1450 575 l 2
 1450 564 1444 558 1434 558 c 2
 1422 558 l 2
 1338 558 1329 525 1329 468 c 2
EndSplineSet
Position2: "'cpsp' Versalabstaende 1" dx=5 dy=0 dh=10 dv=0
EndChar

StartChar: gcommaaccent
Encoding: 291 291 55
Width: 1058
VWidth: 2047
Flags: HW
HStem: -476 91<351.492 703.636> -25 132<344.612 470.224> -19 140<481.726 739.832> 276 76<413.741 600.199> 839 72<394.375 581.699> 869 87<758.523 942> 1048 167<437.239 560.282> 1394 20<467.5 564.571>
VStem: 77 193<-313.093 -107.044> 127 218<430.115 748.323> 145 172<121.208 287.33> 340 66<1160.5 1284.75> 647 221<432.717 759.195> 831 186<-266.506 -95.5468>
LayerCount: 2
Fore
SplineSet
467 1048 m 0
 388 1048 340 1124 340 1197 c 0
 340 1250 375 1405 560 1414 c 1
 568 1379 l 1
 410 1348 406 1225 406 1217 c 0
 406 1209 407 1203 409 1197 c 1
 433 1209 453 1215 469 1215 c 0
 552 1215 572 1164 572 1130 c 0
 572 1097 540 1048 467 1048 c 0
647 582 m 0
 647 744 581 839 486 839 c 0
 406 839 345 768 345 616 c 0
 345 512 385 352 511 352 c 0
 565 352 647 386 647 582 c 0
383 -25 m 0
 358 -25 339 -25 319 -17 c 1
 276 -62 270 -127 270 -197 c 0
 270 -342 424 -385 482 -385 c 0
 635 -385 831 -327 831 -187 c 0
 831 -50.2637 624.234 -19 532 -19 c 0
 515 -19 496.005 -20.0686 468 -22 c 0
 439 -24 406 -25 383 -25 c 0
923 785 m 0
 871.94 785 856.5 818 847 843 c 0
 841.837 856.587 836 869 818 869 c 0
 796.5 869 775 851 757 832 c 1
 828.104 775.121 868 702.708 868 588 c 0
 868 387 694 276 502 276 c 0
 438 276 380 288 338 310 c 1
 327 285 317 246 317 213 c 0
 317 131 372 107 409 107 c 0
 428.3 107 524.8 121 602 121 c 0
 935.395 121 1017 -56.3164 1017 -134 c 0
 1017 -358 708 -476 424 -476 c 0
 256 -476 77 -419 77 -237 c 0
 77 -158 131 -64 237 9 c 1
 181 42 145 93 145 157 c 0
 145 221 180 289 241 347 c 1
 176 398 127 497 127 597 c 0
 127 788 308 911 503 911 c 0
 596 911 659 890 697 871 c 1
 755 924 847 956 903 956 c 0
 981 956 1013 905 1013 866 c 0
 1013 818 980 785 923 785 c 0
EndSplineSet
EndChar

StartChar: Hcircumflex
Encoding: 292 292 56
Width: 1482
VWidth: 2047
Flags: HW
HStem: 2 65<49 195.221 464.058 609.163 873.492 1020.22 1289.06 1433> 657 95<455 1028> 1255 65<49 195.221 464.058 609.163 873.492 987.879 987.879 986.758 986.758 608 874 987.879 987.879 986.758 986.758 1020.22 1289.06 1433> 1410 235<754 928>
VStem: 203 252<78.3379 657 752 1243.66> 462 498<1452 1452> 1028 252<78.3379 657 752 1243.66>
LayerCount: 2
Fore
SplineSet
1028 1165 m 2
 1028 1230 997 1255 916 1255 c 2
 887 1255 l 2
 878 1255 870 1261 870 1272 c 2
 870 1320 l 1
 874 1324 l 1
 874 1324 1073 1320 1153 1320 c 0
 1226 1320 1433 1324 1433 1324 c 1
 1437 1320 l 1
 1437 1272 l 2
 1437 1261 1431 1255 1421 1255 c 2
 1392 1255 l 2
 1308 1255 1280 1222 1280 1165 c 2
 1280 157 l 2
 1280 100 1308 67 1392 67 c 2
 1421 67 l 2
 1431 67 1437 61 1437 50 c 2
 1437 2 l 1
 1433 -2 l 1
 1433 -2 1226 2 1153 2 c 0
 1073 2 874 -2 874 -2 c 1
 870 2 l 1
 870 50 l 2
 870 61 878 67 887 67 c 2
 916 67 l 2
 997 67 1028 92 1028 157 c 2
 1028 657 l 1
 455 657 l 1
 455 157 l 2
 455 100 483 67 567 67 c 2
 596 67 l 2
 606 67 612 61 612 50 c 2
 612 2 l 1
 608 -2 l 1
 608 -2 401 2 328 2 c 0
 248 2 49 -2 49 -2 c 1
 45 2 l 1
 45 50 l 2
 45 61 53 67 62 67 c 2
 91 67 l 2
 172 67 203 92 203 157 c 2
 203 1165 l 2
 203 1230 172 1255 91 1255 c 2
 62 1255 l 2
 53 1255 45 1261 45 1272 c 2
 45 1320 l 1
 49 1324 l 1
 49 1324 248 1320 328 1320 c 0
 401 1320 608 1324 608 1324 c 1
 612 1320 l 1
 612 1272 l 2
 612 1261 606 1255 596 1255 c 2
 567 1255 l 2
 483 1255 455 1222 455 1165 c 2
 455 752 l 1
 1028 752 l 1
 1028 1165 l 2
754 1645 m 1
 815 1570 886 1508 960 1452 c 1
 928 1410 l 1
 848 1445 778 1485 710 1536 c 1
 635 1481 569 1444 491 1410 c 1
 462 1452 l 1
 538 1510 603 1576 666 1645 c 1
 754 1645 l 1
EndSplineSet
Position2: "'cpsp' Versalabstaende 1" dx=5 dy=0 dh=10 dv=0
EndChar

StartChar: hcircumflex
Encoding: 293 293 57
Width: 1106
VWidth: 2047
Flags: HW
HStem: 2 65<46 167.044 408.567 518 591.837 704.192 945.752 1066> 799 112<531.442 785> 1409 20<276.5 400> 1469 235<586 760>
VStem: 175 225<77.0886 689 787 1265.72> 294 498<1511 1511> 712 225<77.6163 786.509>
LayerCount: 2
Fore
SplineSet
586 1704 m 1
 647 1629 718 1567 792 1511 c 1
 760 1469 l 1
 680 1504 610 1544 542 1595 c 1
 467 1540 401 1503 323 1469 c 1
 294 1511 l 1
 370 1569 435 1635 498 1704 c 1
 586 1704 l 1
400 157 m 2
 400 77.7812 457.188 67 505 67 c 0
 514 67 522 61 522 50 c 2
 522 2 l 1
 518 -2 l 1
 518 -2 364 2 284 2 c 0
 211 2 46 -2 46 -2 c 1
 42 2 l 1
 42 50 l 2
 42 61 48 67 58 67 c 2
 77 67 l 2
 146 67 175 99 175 156 c 2
 175 1168 l 2
 175 1220.29 153.687 1277 83.3406 1277 c 0
 71.6288 1277 58.5579 1275.43 44 1272 c 1
 29 1346 l 1
 177 1378 233 1394 320 1429 c 1
 400 1429 l 1
 400 787 l 1
 511 870 620 911 697 911 c 0
 873 911 937 796 937 582 c 2
 937 156 l 2
 937 99 970 67 1037 67 c 2
 1053 67 l 2
 1062 67 1070 61 1070 50 c 2
 1070 2 l 1
 1066 -2 l 1
 1066 -2 901 2 821 2 c 0
 748 2 593 -2 593 -2 c 1
 589 2 l 1
 589 50 l 2
 589 61 595 67 605 67 c 0
 668.366 67 712 82.8145 712 156 c 2
 712 605 l 2
 712 763 692 799 611 799 c 0
 573 799 496 768 400 689 c 1
 400 157 l 2
EndSplineSet
EndChar

StartChar: Hbar
Encoding: 294 294 58
Width: 1482
VWidth: 2047
Flags: HW
HStem: 2 65<49 195.221 464.058 609.163 873.492 1020.22 1289.06 1433> 657 95<455 1028> 1044 80<83 1343> 1255 65<49 195.221 464.058 609.163 873.492 987.879 987.879 986.758 986.758 608 874 987.879 987.879 986.758 986.758 1020.22 1289.06 1433>
VStem: 203 252<78.3379 657 752 1243.66> 1028 252<78.3379 657 752 1243.66>
LayerCount: 2
Fore
SplineSet
1028 1165 m 2
 1028 1230 997 1255 916 1255 c 2
 887 1255 l 2
 878 1255 870 1261 870 1272 c 2
 870 1320 l 1
 874 1324 l 1
 874 1324 1073 1320 1153 1320 c 0
 1226 1320 1433 1324 1433 1324 c 1
 1437 1320 l 1
 1437 1272 l 2
 1437 1261 1431 1255 1421 1255 c 2
 1392 1255 l 2
 1308 1255 1280 1222 1280 1165 c 2
 1280 1124 l 1
 1343 1124 l 1
 1343 1044 l 1
 1280 1044 l 1
 1280 157 l 2
 1280 100 1308 67 1392 67 c 2
 1421 67 l 2
 1431 67 1437 61 1437 50 c 2
 1437 2 l 1
 1433 -2 l 1
 1433 -2 1226 2 1153 2 c 0
 1073 2 874 -2 874 -2 c 1
 870 2 l 1
 870 50 l 2
 870 61 878 67 887 67 c 2
 916 67 l 2
 997 67 1028 92 1028 157 c 2
 1028 657 l 1
 455 657 l 1
 455 157 l 2
 455 100 483 67 567 67 c 2
 596 67 l 2
 606 67 612 61 612 50 c 2
 612 2 l 1
 608 -2 l 1
 608 -2 401 2 328 2 c 0
 248 2 49 -2 49 -2 c 1
 45 2 l 1
 45 50 l 2
 45 61 53 67 62 67 c 2
 91 67 l 2
 172 67 203 92 203 157 c 2
 203 1044 l 1
 83 1044 l 1
 83 1124 l 1
 203 1124 l 1
 203 1165 l 2
 203 1230 172 1255 91 1255 c 2
 62 1255 l 2
 53 1255 45 1261 45 1272 c 2
 45 1320 l 1
 49 1324 l 1
 49 1324 248 1320 328 1320 c 0
 401 1320 608 1324 608 1324 c 1
 612 1320 l 1
 612 1272 l 2
 612 1261 606 1255 596 1255 c 2
 567 1255 l 2
 483 1255 455 1222 455 1165 c 2
 455 1124 l 1
 1028 1124 l 1
 1028 1165 l 2
1028 1044 m 1
 455 1044 l 1
 455 752 l 1
 1028 752 l 1
 1028 1044 l 1
EndSplineSet
Position2: "'cpsp' Versalabstaende 1" dx=5 dy=0 dh=10 dv=0
EndChar

StartChar: hbar
Encoding: 295 295 59
Width: 1106
VWidth: 2047
Flags: HW
HStem: 2 65<46 167.044 408.567 518 591.837 704.192 945.752 1066> 799 112<531.442 785> 1085 81<53 698> 1409 20<276.5 400>
VStem: 175 225<77.0886 689 787 1265.72> 712 225<77.6163 786.509>
LayerCount: 2
Fore
SplineSet
400 157 m 2
 400 77.7812 457.188 67 505 67 c 0
 514 67 522 61 522 50 c 2
 522 2 l 1
 518 -2 l 1
 518 -2 364 2 284 2 c 0
 211 2 46 -2 46 -2 c 1
 42 2 l 1
 42 50 l 2
 42 61 48 67 58 67 c 2
 77 67 l 2
 146 67 175 99 175 156 c 2
 175 1085 l 1
 53 1085 l 1
 53 1166 l 1
 175 1166 l 1
 175 1168 l 2
 175 1220.29 153.687 1277 83.3406 1277 c 0
 71.6288 1277 58.5579 1275.43 44 1272 c 1
 29 1346 l 1
 177 1378 233 1394 320 1429 c 1
 400 1429 l 1
 400 1166 l 1
 698 1166 l 1
 698 1085 l 1
 400 1085 l 1
 400 787 l 1
 511 870 620 911 697 911 c 0
 873 911 937 796 937 582 c 2
 937 156 l 2
 937 99 970 67 1037 67 c 2
 1053 67 l 2
 1062 67 1070 61 1070 50 c 2
 1070 2 l 1
 1066 -2 l 1
 1066 -2 901 2 821 2 c 0
 748 2 593 -2 593 -2 c 1
 589 2 l 1
 589 50 l 2
 589 61 595 67 605 67 c 0
 668.366 67 712 82.8145 712 156 c 2
 712 605 l 2
 712 763 692 799 611 799 c 0
 573 799 496 768 400 689 c 1
 400 157 l 2
EndSplineSet
EndChar

StartChar: Itilde
Encoding: 296 296 60
Width: 655
VWidth: 2047
Flags: HW
HStem: 2 65<49 195.221 462.058 606> 1255 65<49 162.879 162.879 161.142 161.142 195.221 462.058 606> 1407 117<362.887 530.781> 1516 121<118.773 296.215>
VStem: 45 568<1575 1620 1428 1620> 203 250<78.3379 1243.66>
LayerCount: 2
Fore
SplineSet
462 1524 m 0
 506 1524 531 1544 560 1639 c 1
 613 1620 l 1
 588 1485 530 1407 435 1407 c 0
 390 1407 347 1436 305 1466 c 0
 267 1492 229 1516 193 1516 c 0
 140 1516 117 1488 97 1413 c 1
 45 1428 l 1
 73 1561 119 1637 207 1637 c 0
 270 1637 315 1605 355 1575 c 0
 389 1548 423 1524 462 1524 c 0
453 157 m 2
 453 100 481 67 565 67 c 2
 594 67 l 2
 604 67 610 61 610 50 c 2
 610 2 l 1
 606 -2 l 1
 606 -2 401 2 328 2 c 0
 248 2 49 -2 49 -2 c 1
 45 2 l 1
 45 50 l 2
 45 61 53 67 62 67 c 2
 91 67 l 2
 172 67 203 92 203 157 c 2
 203 1165 l 2
 203 1230 172 1255 91 1255 c 2
 62 1255 l 2
 53 1255 45 1261 45 1272 c 2
 45 1320 l 1
 49 1324 l 1
 49 1324 248 1320 328 1320 c 0
 401 1320 606 1324 606 1324 c 1
 610 1320 l 1
 610 1272 l 2
 610 1261 604 1255 594 1255 c 2
 565 1255 l 2
 481 1255 453 1222 453 1165 c 2
 453 157 l 2
EndSplineSet
Position2: "'cpsp' Versalabstaende 1" dx=5 dy=0 dh=10 dv=0
EndChar

StartChar: itilde
Encoding: 297 297 61
Width: 594
VWidth: 2047
Flags: HW
HStem: 2 65<77 198.044 439.751 560> 891 20<307.5 431> 1057 117<309.498 460.603> 1166 121<89.7958 249.494>
VStem: 23.4 511.2<1225 1270 1078 1270> 206 225<77.0886 763.861>
LayerCount: 2
Fore
SplineSet
398.7 1174 m 0
 438.3 1174 460.8 1194 486.9 1289 c 1
 534.6 1270 l 1
 512.1 1135 459.9 1057 374.4 1057 c 0
 333.9 1057 295.2 1086 257.4 1116 c 0
 223.2 1142 189 1166 156.6 1166 c 0
 108.9 1166 88.2002 1138 70.2002 1063 c 1
 23.4004 1078 l 1
 48.5996 1211 90 1287 169.2 1287 c 0
 225.9 1287 266.4 1255 302.4 1225 c 0
 333 1198 363.6 1174 398.7 1174 c 0
431 156 m 2
 431 99 464 67 531 67 c 2
 547 67 l 2
 556 67 564 61 564 50 c 2
 564 2 l 1
 560 -2 l 1
 560 -2 395 2 315 2 c 0
 242 2 77 -2 77 -2 c 1
 73 2 l 1
 73 50 l 2
 73 61 79 67 89 67 c 2
 108 67 l 2
 177 67 206 99 206 156 c 2
 206 701 l 2
 206 744.031 191.569 764.669 147.261 764.669 c 0
 128.759 764.669 105.047 761.07 75 754 c 1
 60 828 l 1
 208 860 264 876 351 911 c 1
 431 911 l 1
 431 156 l 2
EndSplineSet
EndChar

StartChar: Imacron
Encoding: 298 298 62
Width: 655
VWidth: 2047
Flags: HW
HStem: 2 65<49 195.221 462.058 606> 1255 65<49 162.879 162.879 161.142 161.142 195.221 462.058 606> 1497 98<24 47 47 635.812>
VStem: 203 250<78.3379 1243.66>
LayerCount: 2
Fore
SplineSet
588 1497 m 2
 47 1497 l 2
 28 1497 20 1515 20 1530 c 0
 20 1556 43 1595 69 1595 c 2
 610 1595 l 2
 631 1595 640 1577 640 1562 c 0
 640 1536 616 1497 588 1497 c 2
453 157 m 2
 453 100 481 67 565 67 c 2
 594 67 l 2
 604 67 610 61 610 50 c 2
 610 2 l 1
 606 -2 l 1
 606 -2 401 2 328 2 c 0
 248 2 49 -2 49 -2 c 1
 45 2 l 1
 45 50 l 2
 45 61 53 67 62 67 c 2
 91 67 l 2
 172 67 203 92 203 157 c 2
 203 1165 l 2
 203 1230 172 1255 91 1255 c 2
 62 1255 l 2
 53 1255 45 1261 45 1272 c 2
 45 1320 l 1
 49 1324 l 1
 49 1324 248 1320 328 1320 c 0
 401 1320 606 1324 606 1324 c 1
 610 1320 l 1
 610 1272 l 2
 610 1261 604 1255 594 1255 c 2
 565 1255 l 2
 481 1255 453 1222 453 1165 c 2
 453 157 l 2
EndSplineSet
Position2: "'cpsp' Versalabstaende 1" dx=5 dy=0 dh=10 dv=0
EndChar

StartChar: imacron
Encoding: 299 299 63
Width: 594
VWidth: 2047
Flags: HW
HStem: 2 65<77 198.044 439.751 560> 891 20<307.5 431> 1099 98<2.2 22.9 22.9 552.831>
VStem: 206 225<77.0886 763.861>
LayerCount: 2
Fore
SplineSet
509.8 1099 m 2
 22.9004 1099 l 2
 5.7998 1099 -1.40039 1117 -1.40039 1132 c 0
 -1.40039 1158 19.2998 1197 42.7002 1197 c 2
 529.6 1197 l 2
 548.5 1197 556.6 1179 556.6 1164 c 0
 556.6 1138 535 1099 509.8 1099 c 2
431 156 m 2
 431 99 464 67 531 67 c 2
 547 67 l 2
 556 67 564 61 564 50 c 2
 564 2 l 1
 560 -2 l 1
 560 -2 395 2 315 2 c 0
 242 2 77 -2 77 -2 c 1
 73 2 l 1
 73 50 l 2
 73 61 79 67 89 67 c 2
 108 67 l 2
 177 67 206 99 206 156 c 2
 206 701 l 2
 206 744.031 191.569 764.669 147.261 764.669 c 0
 128.759 764.669 105.047 761.07 75 754 c 1
 60 828 l 1
 208 860 264 876 351 911 c 1
 431 911 l 1
 431 156 l 2
EndSplineSet
EndChar

StartChar: Ibreve
Encoding: 300 300 64
Width: 655
VWidth: 2047
Flags: HW
HStem: 2 65<49 195.221 462.058 606> 1255 65<49 162.879 162.879 161.142 161.142 195.221 462.058 606> 1417 107<142.186 462.759> 1629 20<26 91.5 518 580>
VStem: 26 554<1506 1524 1649 1649> 203 250<78.3379 1243.66>
LayerCount: 2
Fore
SplineSet
580 1649 m 1
 568 1503 439 1417 305 1417 c 0
 154 1417 37 1506 26 1649 c 1
 83 1649 l 1
 100 1569 196 1524 305 1524 c 0
 405 1524 511 1569 525 1649 c 1
 580 1649 l 1
453 157 m 2
 453 100 481 67 565 67 c 2
 594 67 l 2
 604 67 610 61 610 50 c 2
 610 2 l 1
 606 -2 l 1
 606 -2 401 2 328 2 c 0
 248 2 49 -2 49 -2 c 1
 45 2 l 1
 45 50 l 2
 45 61 53 67 62 67 c 2
 91 67 l 2
 172 67 203 92 203 157 c 2
 203 1165 l 2
 203 1230 172 1255 91 1255 c 2
 62 1255 l 2
 53 1255 45 1261 45 1272 c 2
 45 1320 l 1
 49 1324 l 1
 49 1324 248 1320 328 1320 c 0
 401 1320 606 1324 606 1324 c 1
 610 1320 l 1
 610 1272 l 2
 610 1261 604 1255 594 1255 c 2
 565 1255 l 2
 481 1255 453 1222 453 1165 c 2
 453 157 l 2
EndSplineSet
Position2: "'cpsp' Versalabstaende 1" dx=5 dy=0 dh=10 dv=0
EndChar

StartChar: ibreve
Encoding: 301 301 65
Width: 594
VWidth: 2047
Flags: HW
HStem: 2 65<77 198.044 439.751 560> 891 20<307.5 431> 1024 127<155.218 404.646>
VStem: 30.2 497.7<1147 1151 1306 1306> 30.2 58.5<1199.39 1306> 206 225<77.0886 763.861> 470.3 57.6<1207.95 1312.32>
LayerCount: 2
Fore
SplineSet
88.7002 1334 m 1
 92.2998 1229 168.8 1151 280.4 1151 c 0
 365 1151 465.8 1207 470.3 1334 c 1
 527.9 1306 l 1
 509.9 1100 372.2 1024 280.4 1024 c 0
 137.3 1024 43.7002 1147 30.2002 1306 c 1
 88.7002 1334 l 1
431 156 m 2
 431 99 464 67 531 67 c 2
 547 67 l 2
 556 67 564 61 564 50 c 2
 564 2 l 1
 560 -2 l 1
 560 -2 395 2 315 2 c 0
 242 2 77 -2 77 -2 c 1
 73 2 l 1
 73 50 l 2
 73 61 79 67 89 67 c 2
 108 67 l 2
 177 67 206 99 206 156 c 2
 206 701 l 2
 206 744.031 191.569 764.669 147.261 764.669 c 0
 128.759 764.669 105.047 761.07 75 754 c 1
 60 828 l 1
 208 860 264 876 351 911 c 1
 431 911 l 1
 431 156 l 2
EndSplineSet
EndChar

StartChar: Iogonek
Encoding: 302 302 66
Width: 655
VWidth: 2047
Flags: HW
HStem: -461 81<308.979 493.745> 2 65<49 195.221 462.058 606> 1255 65<49 162.879 162.879 161.142 161.142 195.221 462.058 606>
VStem: 162 123<-356.321 -154.569> 203 250<78.3379 1243.66>
LayerCount: 2
Fore
SplineSet
353 -461 m 0
 243 -461 162 -398 162 -286 c 0
 162 -187.147 246.521 -66.1978 373.272 1.71059 c 1
 355.607 1.89165 340.015 2.00002 328 2 c 0
 248 2 49 -2 49 -2 c 1
 45 2 l 1
 45 50 l 2
 45 61 53 67 62 67 c 2
 91 67 l 2
 172 67 203 92 203 157 c 2
 203 1165 l 2
 203 1230 172 1255 91 1255 c 2
 62 1255 l 2
 53 1255 45 1261 45 1272 c 2
 45 1320 l 1
 49 1324 l 1
 49 1324 248 1320 328 1320 c 0
 401 1320 606 1324 606 1324 c 1
 610 1320 l 1
 610 1272 l 2
 610 1261 604 1255 594 1255 c 2
 565 1255 l 2
 481 1255 453 1222 453 1165 c 2
 453 157 l 2
 453 100 481 67 565 67 c 2
 594 67 l 2
 604 67 610 61 610 50 c 2
 610 2 l 1
 606 -2 l 1
 560.294 -1.14588 l 1
 561 -2 l 1
 397 -2 285 -155 285 -261 c 0
 285 -326 330 -380 404 -380 c 0
 465 -380 507 -350 547 -308 c 1
 578 -324 l 1
 529 -420 426 -461 353 -461 c 0
EndSplineSet
Position2: "'cpsp' Versalabstaende 1" dx=5 dy=0 dh=10 dv=0
EndChar

StartChar: iogonek
Encoding: 303 303 67
Width: 594
VWidth: 2047
Flags: HW
HStem: -461 81<240.479 425.084> 2 65<77 198.044 439.751 560> 891 20<307.5 431> 1047 246<223.658 412.342>
VStem: 93.5 123<-356.321 -154.569> 196 244<1075.06 1264.94> 206 225<77.0886 763.861>
LayerCount: 2
Fore
SplineSet
284.5 -461 m 0
 174.5 -461 93.5 -398 93.5 -286 c 0
 93.5 -187.017 178.244 -65.8785 305.274 1.97921 c 1
 228.352 1.66918 77 -1.99997 77 -2 c 1
 73 2 l 1
 73 50 l 2
 73 61 79 67 89 67 c 2
 108 67 l 2
 177 67 206 99 206 156 c 2
 206 701 l 2
 206 744.031 191.569 764.669 147.261 764.669 c 0
 128.759 764.669 105.047 761.07 75 754 c 1
 60 828 l 1
 208 860 264 876 351 911 c 1
 431 911 l 1
 431 156 l 2
 431 99 464 67 531 67 c 2
 547 67 l 2
 556 67 564 61 564 50 c 2
 564 2 l 1
 560 -2 l 1
 560 -2 530.912 -1.29483 491.24 -0.476653 c 1
 492.5 -2 l 1
 328.25 -2 216.5 -155 216.5 -261 c 0
 216.5 -326 261.5 -380 335.5 -380 c 0
 396.5 -380 438.5 -350.5 478 -308 c 1
 509 -323.5 l 1
 460.5 -420 357.086 -461 284.5 -461 c 0
196 1170 m 0
 196 1238 250 1293 318 1293 c 0
 386 1293 440 1238 440 1170 c 0
 440 1102 386 1047 318 1047 c 0
 250 1047 196 1102 196 1170 c 0
EndSplineSet
EndChar

StartChar: Idotaccent
Encoding: 304 304 68
Width: 655
VWidth: 2047
Flags: HW
HStem: 2 65<49 195.221 462.058 606> 1255 65<49 162.879 162.879 161.142 161.142 195.221 462.058 606> 1415 246<230.658 419.342>
VStem: 203 244<1443.06 1632.94> 203 250<78.3379 1243.66>
LayerCount: 2
Fore
SplineSet
203 1538 m 0
 203 1606 257 1661 325 1661 c 0
 393 1661 447 1606 447 1538 c 0
 447 1470 393 1415 325 1415 c 0
 257 1415 203 1470 203 1538 c 0
453 157 m 2
 453 100 481 67 565 67 c 2
 594 67 l 2
 604 67 610 61 610 50 c 2
 610 2 l 1
 606 -2 l 1
 606 -2 401 2 328 2 c 0
 248 2 49 -2 49 -2 c 1
 45 2 l 1
 45 50 l 2
 45 61 53 67 62 67 c 2
 91 67 l 2
 172 67 203 92 203 157 c 2
 203 1165 l 2
 203 1230 172 1255 91 1255 c 2
 62 1255 l 2
 53 1255 45 1261 45 1272 c 2
 45 1320 l 1
 49 1324 l 1
 49 1324 248 1320 328 1320 c 0
 401 1320 606 1324 606 1324 c 1
 610 1320 l 1
 610 1272 l 2
 610 1261 604 1255 594 1255 c 2
 565 1255 l 2
 481 1255 453 1222 453 1165 c 2
 453 157 l 2
EndSplineSet
Position2: "'cpsp' Versalabstaende 1" dx=5 dy=0 dh=10 dv=0
EndChar

StartChar: afii10057
Encoding: 1032 1032 69
Width: 864
VWidth: 2047
Flags: HW
HStem: -25 92<263.054 387.271> 1265 59<212 394.406 688.095 833>
VStem: 425 250<162.661 1238.01>
LayerCount: 2
Fore
SplineSet
311 67 m 0
 412 67 425 180 425 371 c 2
 425 1144 l 2
 425 1207 380 1265 299 1265 c 2
 225 1265 l 2
 216 1265 208 1271 208 1282 c 2
 208 1320 l 1
 212 1324 l 1
 212 1324 509 1320 589 1320 c 0
 662 1320 833 1324 833 1324 c 1
 837 1320 l 1
 837 1282 l 2
 837 1271 831 1265 821 1265 c 2
 787 1265 l 2
 703 1265 675 1233 675 1176 c 2
 675 416 l 2
 675 50 483 -25 354 -25 c 0
 222 -25 55 48 55 137 c 0
 55 186 80 247 147 247 c 0
 212 247 248.615 200.467 254 152 c 0
 258 116 267 67 311 67 c 0
EndSplineSet
EndChar

StartChar: afii10061
Encoding: 1036 1036 70
Width: 1233
VWidth: 2047
Flags: HW
HStem: -2 69<49 192.902 465.567 606 1102.18 1206> 656 98<420 513.463> 1198 136<905.598 1023.46> 1255 69<49 192.902 465.567 606>
VStem: 203 250<78.3379 1243.66>
LayerCount: 2
Fore
SplineSet
874 1681 m 1
 1002 1574 l 1
 707 1455 l 2
 662.714 1437.14 636.5 1431 619 1431 c 0
 600.5 1431 589 1441.5 589 1461 c 0
 589 1475 594.307 1486.08 620 1504 c 2
 874 1681 l 1
1206 -2 m 1
 1030 0 l 2
 883 2 824.276 144.098 745 368 c 0
 674.905 565.971 641.597 647.3 453 655.333 c 1
 453 157 l 2
 453 100 481 67 565 67 c 2
 594 67 l 2
 604 67 610 61 610 50 c 2
 610 2 l 1
 606 -2 l 1
 606 -2 401 2 328 2 c 0
 248 2 49 -2 49 -2 c 1
 45 2 l 1
 45 50 l 2
 45 61 53 67 62 67 c 2
 91 67 l 2
 172 67 203 92 203 157 c 2
 203 1165 l 2
 203 1230 172 1255 91 1255 c 2
 62 1255 l 2
 53 1255 45 1261 45 1272 c 2
 45 1320 l 1
 49 1324 l 1
 49 1324 248 1320 328 1320 c 0
 401 1320 606 1324 606 1324 c 1
 610 1320 l 1
 610 1272 l 2
 610 1261 604 1255 594 1255 c 2
 565 1255 l 2
 481 1255 453 1222 453 1165 c 2
 453 754.183 l 1
 515.158 755.037 586.526 759.748 628 785 c 0
 736.837 851.268 758 999 773 1115 c 0
 788.254 1232.97 908 1334 1037 1334 c 0
 1134 1334 1198 1278 1198 1230 c 0
 1198 1156 1146 1134 1107 1134 c 0
 1083 1134 1055.16 1144.14 1039 1162 c 0
 1020 1183 996 1198 972 1198 c 0
 930 1198 892.366 1150.94 883 1091 c 0
 863 963 830 754 683 702 c 1
 810 702 848 607 897 483 c 0
 1004.63 210.637 1108 67 1175 67 c 2
 1194 67 l 2
 1202 67 1209 61 1209 50 c 2
 1209 2 l 1
 1206 -2 l 1
EndSplineSet
LCarets2: 1 0 
EndChar

StartChar: uni040D
Encoding: 1037 1037 71
Width: 1605
VWidth: 2047
Flags: HW
HStem: 3 64<40 208.942 476.508 646.575 957.837 1128.86 1394.78 1566> 1255 63<40 191.222 191.222 187.892 187.892 210.391 476.136 646 957.492 1129.22 1396.06 1564.83>
VStem: 218 250<78.8652 159 299 1243.77> 1137 250<78.5488 1009 1149 1244.42>
DStem2: 468 299 468 159 0.618475 0.785805<0 971.681>
LayerCount: 2
Fore
SplineSet
610.5 1677 m 1
 858.5 1504 l 2
 880.5 1488 889.5 1475 889.5 1461 c 0
 889.5 1440.5 878.5 1431 859.5 1431 c 0
 841.5 1431 814.921 1437.47 771.5 1455 c 2
 454.5 1583 l 1
 610.5 1677 l 1
1387 1166 m 2
 1387 156 l 2
 1387 93 1418 67 1499 67 c 2
 1553 67 l 2
 1562 67 1570 61 1570 50 c 2
 1570 2 l 1
 1566 -2 l 1
 1566 -2 1351 3 1271 3 c 0
 1198 3 959 -2 959 -2 c 1
 955 2 l 1
 955 50 l 2
 955 61 961 67 971 67 c 2
 1025 67 l 2
 1109 67 1137 99 1137 156 c 2
 1137 1009 l 1
 468 159 l 1
 468 157 l 2
 468 94 498 67 580 67 c 2
 634 67 l 2
 642 67 650 61 650 50 c 2
 650 2 l 1
 646 -2 l 1
 646 -2 427 3 347 3 c 0
 275 3 40 -2 40 -2 c 1
 36 2 l 1
 36 50 l 2
 36 61 42 67 52 67 c 2
 106 67 l 2
 190 67 218 100 218 157 c 2
 218 1167 l 2
 218 1230 188 1255 106 1255 c 2
 52 1255 l 2
 44 1255 36 1261 36 1272 c 2
 36 1320 l 1
 40 1324 l 1
 40 1324 261 1318 341 1318 c 0
 413 1318 646 1324 646 1324 c 1
 650 1320 l 1
 650 1272 l 2
 650 1261 644 1255 634 1255 c 2
 580 1255 l 2
 496 1255 468 1224 468 1167 c 2
 468 299 l 1
 1137 1149 l 1
 1137 1166 l 2
 1137 1229 1106 1255 1025 1255 c 2
 971 1255 l 2
 962 1255 954 1261 954 1272 c 2
 954 1320 l 1
 958 1324 l 1
 958 1324 1184 1319 1264 1319 c 0
 1337 1319 1565 1325 1565 1325 c 1
 1569 1321 l 1
 1569 1273 l 2
 1569 1262 1563 1256 1553 1256 c 2
 1499 1256 l 2
 1415 1256 1387 1223 1387 1166 c 2
EndSplineSet
LCarets2: 1 0 
EndChar

StartChar: afii10062
Encoding: 1038 1038 72
Width: 1273
VWidth: 2047
Flags: HW
HStem: -46 133<370.277 540.337> 1255 69<3.16406 68.0736 68.0736 135.237 422.833 494.489 494.489 567 843 843.128 843.128 991.897 1129.63 1269.36 1269.36 1269.44> 1427 63<572.023 776.64>
VStem: 417.5 142<1506.65 1643.48> 785.5 142<1504.73 1614.09>
DStem2: 434 1178 180.828 1144 0.41958 -0.907719<0 722.671> 732.493 519.834 784 330 0.361275 0.932459<0 703.131>
LayerCount: 2
Fore
SplineSet
927.5 1586 m 0
 927.5 1478 800.5 1427 670.5 1427 c 0
 535.5 1427 417.5 1476 417.5 1584 c 0
 417.5 1629 441.5 1647 496.5 1647 c 0
 540.5 1647 561.5 1614 561.5 1583 c 0
 561.5 1579.8 559.5 1568.6 559.5 1567 c 0
 559.5 1526 606.5 1490 672.5 1490 c 0
 734.5 1490 785.5 1519 785.5 1565 c 0
 785.5 1566.9 783.5 1580.2 783.5 1584 c 0
 783.5 1613 802.5 1647 848.5 1647 c 0
 903.5 1647 927.5 1626 927.5 1586 c 0
442 87 m 0
 503.158 87 542.868 102.952 601 235 c 1
 180.828 1144 l 2
 161.317 1186.21 120 1255 20 1255 c 0
 8 1255 0 1262 0 1271 c 2
 0 1320 l 1
 3 1324 l 1
 3 1324 131 1320 215 1320 c 0
 317 1320 567 1324 567 1324 c 1
 571 1320.17 l 1
 571 1272 l 2
 571 1262 565.667 1255 557 1255 c 2
 479 1255 l 2
 436.134 1255 420.89 1245.8 420.89 1225.44 c 0
 420.89 1213.55 426.08 1197.87 434 1178 c 2
 732.493 519.834 l 1
 980 1178 l 2
 989.26 1200.22 994.363 1216.09 994.363 1227.4 c 0
 994.363 1251.88 970.442 1255 913 1255 c 2
 852 1255 l 2
 845 1255 840 1261.5 840 1271 c 2
 840 1320.17 l 1
 843 1324 l 1
 843 1324 1019 1320 1106 1320 c 0
 1171 1320 1270 1324 1270 1324 c 1
 1273 1320.17 l 1
 1273 1272 l 2
 1273 1259 1260 1255 1252 1255 c 0
 1156.59 1255 1137.06 1241.23 1105.19 1159 c 2
 784 330 l 2
 697 106 584 -46 400 -46 c 0
 276 -46 172 16 172 82 c 0
 172 139 198 180 264 180 c 0
 316 180 348 158 367 134 c 0
 382.026 115.02 412 87 442 87 c 0
EndSplineSet
LCarets2: 1 0 
EndChar

StartChar: afii10020
Encoding: 1043 1043 73
Width: 1048
VWidth: 2047
Flags: HW
HStem: 2 65<50 196.221 463.058 607> 1227 95<461.776 833.15> 1255 67<53.001 202.138>
VStem: 204 250<78.3379 1221.59>
LayerCount: 2
Fore
SplineSet
204 157 m 2
 204 1174 l 2
 204 1239 193 1255 144 1255 c 2
 78 1255 l 2
 54 1255 45 1264 45 1279 c 2
 45 1317 l 1
 53 1322 l 1
 999 1322 l 1
 1004 1206 1026 1078 1048 968 c 1
 969 951 l 1
 936 1076 863 1227 700 1227 c 2
 524 1227 l 2
 482 1227 454 1195 454 1133 c 2
 454 157 l 2
 454 100 482 67 566 67 c 2
 595 67 l 2
 605 67 611 61 611 50 c 2
 611 2 l 1
 607 -2 l 1
 607 -2 402 2 329 2 c 0
 249 2 50 -2 50 -2 c 1
 46 2 l 1
 46 50 l 2
 46 61 54 67 63 67 c 2
 92 67 l 2
 173 67 204 92 204 157 c 2
EndSplineSet
EndChar

StartChar: afii10021
Encoding: 1044 1044 74
Width: 1426
VWidth: 2047
Flags: HW
HStem: 0 90<436.819 946.807> 1252 70<312.833 452.105 1205.61 1348.81>
VStem: 950 250<93.1589 1224.86>
LayerCount: 2
Fore
SplineSet
229 107 m 0
 278 164 319.869 296.026 384 616 c 0
 430.904 850.019 455 1049 455 1179 c 0
 455 1229 436 1252 382 1252 c 2
 321 1252 l 2
 312 1252 306 1261 306 1270 c 2
 306 1304 l 2
 306 1313 317 1322 331 1322 c 2
 1341 1322 l 2
 1347 1322 1352 1314 1352 1309 c 2
 1352 1269 l 2
 1352 1257 1344 1252 1336 1252 c 2
 1275 1252 l 2
 1211 1252 1200 1219 1200 1147 c 2
 1200 170 l 2
 1200 94 1247 67 1282 67 c 0
 1328 67 1342.93 40.9971 1344 16 c 2
 1357 -288 l 1
 1302 -288 1270 -288 1270 -288 c 1
 1246 -175 1162 0 998 0 c 2
 413 0 l 2
 242 0 180 -183 157 -288 c 1
 70 -288 l 1
 83 16 l 2
 84.0263 39.9989 106 67 126 67 c 0
 168 67 195 68 229 107 c 0
873 1228 m 2
 663 1228 l 2
 608 1228 586.019 1200 582 1148 c 0
 566 941 536 740 510 600 c 0
 465 361 415 168 415 124 c 0
 415 101 441 90 471 90 c 2
 875 90 l 2
 924 90 950 97 950 171 c 2
 950 1149 l 2
 950 1211 937 1228 873 1228 c 2
EndSplineSet
EndChar

StartChar: afii10024
Encoding: 1046 1046 75
Width: 1838
VWidth: 2047
Flags: HW
HStem: -2 69<18 121.816 640 783.902 1056.57 1197 1716.18 1820> 656 98<710.537 804 1034 1127.46> 1198 136<200.545 318.402 1519.6 1637.46> 1255 69<640 783.902 1056.57 1197>
VStem: 794 250<78.3379 1243.66>
LayerCount: 2
Fore
SplineSet
1820 -2 m 1
 1644 0 l 2
 1497 2 1438.28 144.098 1359 368 c 0
 1286.15 573.762 1253.03 653.521 1044 655.943 c 1
 1044 157 l 2
 1044 100 1072 67 1156 67 c 2
 1185 67 l 2
 1195 67 1201 61 1201 50 c 2
 1201 2 l 1
 1197 -2 l 1
 1197 -2 992 2 919 2 c 0
 839 2 640 -2 640 -2 c 1
 636 2 l 1
 636 50 l 2
 636 61 644 67 653 67 c 2
 682 67 l 2
 763 67 794 92 794 157 c 2
 794 655.943 l 1
 584.968 653.521 551.854 573.762 479 368 c 0
 399.724 144.098 341 2 194 0 c 2
 18 -2 l 1
 15 2 l 1
 15 50 l 2
 15 61 22 67 30 67 c 2
 49 67 l 2
 116 67 219.373 210.637 327 483 c 0
 376 607 414 707 541 707 c 1
 394 759 361 963 341 1091 c 0
 331.634 1150.94 294 1198 252 1198 c 0
 228 1198 204 1183 185 1162 c 0
 168.842 1144.14 141 1134 117 1134 c 0
 78 1134 26 1156 26 1230 c 0
 26 1278 90 1334 187 1334 c 0
 316 1334 435.746 1232.97 451 1115 c 0
 466 999 487.163 851.268 596 785 c 0
 642.705 756.563 727.32 754.175 794 754.011 c 1
 794 1165 l 2
 794 1230 763 1255 682 1255 c 2
 653 1255 l 2
 644 1255 636 1261 636 1272 c 2
 636 1320 l 1
 640 1324 l 1
 640 1324 839 1320 919 1320 c 0
 992 1320 1197 1324 1197 1324 c 1
 1201 1320 l 1
 1201 1272 l 2
 1201 1261 1195 1255 1185 1255 c 2
 1156 1255 l 2
 1072 1255 1044 1222 1044 1165 c 2
 1044 754.011 l 1
 1110.68 754.175 1195.3 756.563 1242 785 c 0
 1350.84 851.268 1372 999 1387 1115 c 0
 1402.25 1232.97 1522 1334 1651 1334 c 0
 1748 1334 1812 1278 1812 1230 c 0
 1812 1156 1760 1134 1721 1134 c 0
 1697 1134 1669.16 1144.14 1653 1162 c 0
 1634 1183 1610 1198 1586 1198 c 0
 1544 1198 1506.37 1150.94 1497 1091 c 0
 1477 963 1444 759 1297 707 c 1
 1424 707 1462 607 1511 483 c 0
 1618.63 210.637 1722 67 1789 67 c 2
 1808 67 l 2
 1816 67 1823 61 1823 50 c 2
 1823 2 l 1
 1820 -2 l 1
EndSplineSet
EndChar

StartChar: afii10025
Encoding: 1047 1047 76
Width: 1174
VWidth: 2047
Flags: HW
HStem: -25 86<340.79 684.528> 686 79<327.008 637.681> 1277 79<351.48 666.231>
VStem: 136 80<948 1145.77> 752 244<922.961 1190.81> 809 270<213.073 548.893>
LayerCount: 2
Fore
SplineSet
495 61 m 0
 640 61 809 115 809 361 c 0
 809 464 771 686 531 686 c 2
 361 686 l 2
 338 686 327 701.333 327 725 c 0
 327 748.022 338 765 361 765 c 2
 456 765 l 2
 701 765 752 924 752 1036 c 0
 752 1185 661 1277 545 1277 c 0
 270 1277 216 1102 216 948 c 1
 136 948 l 1
 146 1322 l 1
 412.5 1322 468.8 1356 552 1356 c 0
 797 1356 996 1266 996 1069 c 0
 996 890 795 751 759 738 c 1
 904 696 1079 613 1079 394 c 0
 1079 103 814 -25 530 -25 c 0
 364 -25 219 39 155 89 c 0
 100 132 62 187 62 242 c 0
 62 295 96 337 143 337 c 0
 201 337 252.975 311.992 275 245 c 0
 323 99 340 61 495 61 c 0
EndSplineSet
EndChar

StartChar: afii10026
Encoding: 1048 1048 77
Width: 1605
VWidth: 2047
Flags: HW
HStem: 3 64<40 208.942 476.508 646.575 957.837 1128.86 1394.78 1566> 1255 63<40 191.222 191.222 187.892 187.892 210.391 476.136 646 957.492 1129.22 1396.06 1564.83>
VStem: 218 250<78.8652 159 299 1243.77> 1137 250<78.5488 1009 1149 1244.42>
DStem2: 468 299 468 159 0.618475 0.785805<0 971.681>
LayerCount: 2
Fore
SplineSet
1387 1166 m 2
 1387 156 l 2
 1387 93 1418 67 1499 67 c 2
 1553 67 l 2
 1562 67 1570 61 1570 50 c 2
 1570 2 l 1
 1566 -2 l 1
 1566 -2 1351 3 1271 3 c 0
 1198 3 959 -2 959 -2 c 1
 955 2 l 1
 955 50 l 2
 955 61 961 67 971 67 c 2
 1025 67 l 2
 1109 67 1137 99 1137 156 c 2
 1137 1009 l 1
 468 159 l 1
 468 157 l 2
 468 94 498 67 580 67 c 2
 634 67 l 2
 642 67 650 61 650 50 c 2
 650 2 l 1
 646 -2 l 1
 646 -2 427 3 347 3 c 0
 275 3 40 -2 40 -2 c 1
 36 2 l 1
 36 50 l 2
 36 61 42 67 52 67 c 2
 106 67 l 2
 190 67 218 100 218 157 c 2
 218 1167 l 2
 218 1230 188 1255 106 1255 c 2
 52 1255 l 2
 44 1255 36 1261 36 1272 c 2
 36 1320 l 1
 40 1324 l 1
 40 1324 261 1318 341 1318 c 0
 413 1318 646 1324 646 1324 c 1
 650 1320 l 1
 650 1272 l 2
 650 1261 644 1255 634 1255 c 2
 580 1255 l 2
 496 1255 468 1224 468 1167 c 2
 468 299 l 1
 1137 1149 l 1
 1137 1166 l 2
 1137 1229 1106 1255 1025 1255 c 2
 971 1255 l 2
 962 1255 954 1261 954 1272 c 2
 954 1320 l 1
 958 1324 l 1
 958 1324 1184 1319 1264 1319 c 0
 1337 1319 1565 1325 1565 1325 c 1
 1569 1321 l 1
 1569 1273 l 2
 1569 1262 1563 1256 1553 1256 c 2
 1499 1256 l 2
 1415 1256 1387 1223 1387 1166 c 2
EndSplineSet
EndChar

StartChar: afii10027
Encoding: 1049 1049 78
Width: 1605
VWidth: 2047
Flags: HW
HStem: 3 64<40 208.942 476.508 646.575 957.837 1128.86 1394.78 1566> 1255 63<40 191.222 191.222 187.892 187.892 210.391 476.136 646 957.492 1129.22 1396.06 1564.83> 1427 63<707.023 911.64>
VStem: 218 250<78.8652 159 299 1243.77> 552.5 142<1506.65 1643.48> 920.5 142<1504.73 1614.09> 1137 250<78.5488 1009 1149 1244.42>
DStem2: 468 299 468 159 0.618475 0.785805<0 971.681>
LayerCount: 2
Fore
SplineSet
1062.5 1586 m 0
 1062.5 1478 935.5 1427 805.5 1427 c 0
 670.5 1427 552.5 1476 552.5 1584 c 0
 552.5 1629 576.5 1647 631.5 1647 c 0
 675.5 1647 696.5 1614 696.5 1583 c 0
 696.5 1579.8 694.5 1568.6 694.5 1567 c 0
 694.5 1526 741.5 1490 807.5 1490 c 0
 869.5 1490 920.5 1519 920.5 1565 c 0
 920.5 1566.9 918.5 1580.2 918.5 1584 c 0
 918.5 1613 937.5 1647 983.5 1647 c 0
 1038.5 1647 1062.5 1626 1062.5 1586 c 0
1387 1166 m 2
 1387 156 l 2
 1387 93 1418 67 1499 67 c 2
 1553 67 l 2
 1562 67 1570 61 1570 50 c 2
 1570 2 l 1
 1566 -2 l 1
 1566 -2 1351 3 1271 3 c 0
 1198 3 959 -2 959 -2 c 1
 955 2 l 1
 955 50 l 2
 955 61 961 67 971 67 c 2
 1025 67 l 2
 1109 67 1137 99 1137 156 c 2
 1137 1009 l 1
 468 159 l 1
 468 157 l 2
 468 94 498 67 580 67 c 2
 634 67 l 2
 642 67 650 61 650 50 c 2
 650 2 l 1
 646 -2 l 1
 646 -2 427 3 347 3 c 0
 275 3 40 -2 40 -2 c 1
 36 2 l 1
 36 50 l 2
 36 61 42 67 52 67 c 2
 106 67 l 2
 190 67 218 100 218 157 c 2
 218 1167 l 2
 218 1230 188 1255 106 1255 c 2
 52 1255 l 2
 44 1255 36 1261 36 1272 c 2
 36 1320 l 1
 40 1324 l 1
 40 1324 261 1318 341 1318 c 0
 413 1318 646 1324 646 1324 c 1
 650 1320 l 1
 650 1272 l 2
 650 1261 644 1255 634 1255 c 2
 580 1255 l 2
 496 1255 468 1224 468 1167 c 2
 468 299 l 1
 1137 1149 l 1
 1137 1166 l 2
 1137 1229 1106 1255 1025 1255 c 2
 971 1255 l 2
 962 1255 954 1261 954 1272 c 2
 954 1320 l 1
 958 1324 l 1
 958 1324 1184 1319 1264 1319 c 0
 1337 1319 1565 1325 1565 1325 c 1
 1569 1321 l 1
 1569 1273 l 2
 1569 1262 1563 1256 1553 1256 c 2
 1499 1256 l 2
 1415 1256 1387 1223 1387 1166 c 2
EndSplineSet
LCarets2: 1 0 
EndChar

StartChar: afii10033
Encoding: 1055 1055 79
Width: 1537
VWidth: 2047
Flags: HW
HStem: 2 65<39 207.942 475.694 636 899.837 1059.94 1327.69 1498> 1228 92<470.522 1064.7> 1255 67<38 209.734 1364.14 1497.8>
VStem: 217 250<78.8652 1225.14> 1069 250<78.8652 1224.27>
LayerCount: 2
Fore
SplineSet
1069 157 m 2
 1069 1137 l 2
 1069 1194 1059 1228 994 1228 c 2
 541 1228 l 2
 478 1228 467 1204 467 1136 c 2
 467 157 l 2
 467 94 498 67 579 67 c 2
 623 67 l 2
 632 67 640 61 640 50 c 2
 640 2 l 1
 636 -2 l 1
 636 -2 422 2 342 2 c 0
 269 2 39 -2 39 -2 c 1
 35 2 l 1
 35 50 l 2
 35 61 41 67 51 67 c 2
 105 67 l 2
 189 67 217 100 217 157 c 2
 217 1165 l 2
 217 1241 177 1255 112 1255 c 2
 51 1255 l 2
 38 1255 35 1264 35 1271 c 2
 35 1320 l 1
 38 1322 l 1
 53 1322 305 1320 334 1320 c 0
 460 1319 617 1316 762 1316 c 0
 889 1316 1035 1319 1181 1320 c 0
 1193 1320.08 1494 1324 1498 1324 c 1
 1502 1320 l 1
 1502 1272 l 2
 1502 1264 1495 1255 1485 1255 c 2
 1425 1255 l 2
 1368 1254 1319 1228 1319 1165 c 2
 1319 157 l 2
 1319 94 1350 67 1431 67 c 2
 1485 67 l 2
 1494 67 1502 61 1502 50 c 2
 1502 2 l 1
 1498 -2 l 1
 1498 -2 1270 2 1190 2 c 0
 1117 2 901 -2 901 -2 c 1
 897 2 l 1
 897 50 l 2
 897 61 903 67 913 67 c 2
 957 67 l 2
 1041 67 1069 100 1069 157 c 2
EndSplineSet
EndChar

StartChar: afii10034
Encoding: 1056 1056 80
Width: 1118
VWidth: 2047
Flags: HW
HStem: 2 65<49 195.221 462.058 606> 571 83<455.389 718.12> 1255 85<487.07 722.4> 1265 59<55.75 191.445>
VStem: 203 250<79.3382 577 659 1172> 821 260<806.905 1148.84>
LayerCount: 2
Fore
SplineSet
454 1236.46 m 1
 454 659 l 1
 484 656 525 654 554 654 c 0
 723 654 821 744 821 956 c 0
 821 1206 694 1255 576 1255 c 0
 550.199 1255 495.688 1246.39 454 1236.46 c 1
203 157 m 2
 203 1172 l 2
 203 1243 176 1265 134 1265 c 2
 68.25 1265 l 2
 50.5 1265 46 1274.01 46 1283 c 2
 46 1320 l 1
 55.75 1324 l 1
 175.5 1324 426.561 1340 592 1340 c 0
 1004 1340 1081 1115 1081 992 c 0
 1081 818 968 571 565 571 c 0
 517 571 483 573 454 577 c 1
 453 157 l 2
 453 102 481 67 565 67 c 2
 594 67 l 2
 604 67 610 61 610 50 c 2
 610 2 l 1
 606 -2 l 1
 606 -2 399 2 326 2 c 0
 246 2 49 -2 49 -2 c 1
 45 2 l 1
 45 50 l 2
 45 61 53 67 62 67 c 2
 91 67 l 2
 172 67 203 92 203 157 c 2
EndSplineSet
EndChar

StartChar: afii10035
Encoding: 1057 1057 81
Width: 1365
VWidth: 2047
Flags: HW
HStem: -25 90<594.124 968.99> 894 21<1143.5 1267.94> 1263 84<591.275 954.595>
VStem: 70 265<400.214 890.786>
LayerCount: 2
Fore
SplineSet
760 -25 m 0
 293 -25 70 316 70 646 c 0
 70 1049 382 1347 761 1347 c 0
 1033.48 1347 1103.76 1257 1208 1257 c 1
 1215.71 1138.54 1233.57 1024.24 1254 911 c 1
 1175 894 l 1
 1112 1090 1023 1263 762 1263 c 0
 564 1263 335 1090 335 684 c 0
 335 393 473 65 758 65 c 0
 924 65 1074 135 1230 314 c 1
 1293 264 l 1
 1153 80 977 -25 760 -25 c 0
EndSplineSet
EndChar

StartChar: afii10036
Encoding: 1058 1058 82
Width: 1223
VWidth: 2047
Flags: HW
HStem: 2 65<309 477.942 745.694 916> 1227 95<144.64 179 179 482.571 741.906 1079.36>
VStem: 487 250<78.8652 1220.9>
LayerCount: 2
Fore
SplineSet
179 1322 m 2
 1045 1322 l 2
 1088 1322 1089 1358 1089 1371 c 1
 1163 1379 l 1
 1171 1278 1185 1172 1208 1063 c 1
 1127 1053 l 1
 1086 1216 1059 1227 946 1227 c 2
 835 1227 l 2
 761 1227 737 1209 737 1141 c 2
 737 157 l 2
 737 94 768 67 849 67 c 2
 903 67 l 2
 912 67 920 61 920 50 c 2
 920 2 l 1
 916 -2 l 1
 916 -2 672 2 592 2 c 0
 519 2 309 -2 309 -2 c 1
 305 2 l 1
 305 50 l 2
 305 61 311 67 321 67 c 2
 375 67 l 2
 459 67 487 100 487 157 c 2
 487 1146 l 2
 487 1209 462 1227 388 1227 c 2
 278 1227 l 2
 165 1227 138 1216 97 1053 c 1
 16 1063 l 1
 39 1172 53 1278 61 1379 c 1
 135 1371 l 1
 135 1358 136 1322 179 1322 c 2
EndSplineSet
EndChar

StartChar: afii10037
Encoding: 1059 1059 83
Width: 1273
VWidth: 2047
Flags: HW
HStem: -46 133<370.277 540.337> 1255 69<3.16406 68.0736 68.0736 135.237 422.833 494.489 494.489 567 843 843.128 843.128 991.897 1129.63 1269.36 1269.36 1269.44>
DStem2: 434 1178 180.828 1144 0.41958 -0.907719<-61.8491 722.671> 601 235 784 330 0.361275 0.932459<-147.218 0 313.101 865.58 1076.41 1080.4>
LayerCount: 2
Fore
SplineSet
442 87 m 0
 503.158 87 542.868 102.952 601 235 c 1
 180.828 1144 l 2
 161.318 1186.21 120 1255 20 1255 c 0
 8 1255 0 1262 0 1271 c 2
 0 1320 l 1
 3 1324 l 1
 3 1324 131 1320 215 1320 c 0
 317 1320 567 1324 567 1324 c 1
 571 1320.17 l 1
 571 1272 l 2
 571 1262 565.667 1255 557 1255 c 2
 479 1255 l 2
 436.134 1255 420.89 1245.8 420.89 1225.44 c 0
 420.89 1213.55 426.08 1197.87 434 1178 c 2
 732.493 519.834 l 1
 980 1178 l 2
 989.26 1200.22 994.363 1216.09 994.363 1227.4 c 0
 994.363 1251.88 970.442 1255 913 1255 c 2
 852 1255 l 2
 845 1255 840 1261.5 840 1271 c 2
 840 1320.17 l 1
 843 1324 l 1
 843 1324 1019 1320 1106 1320 c 0
 1171 1320 1270 1324 1270 1324 c 1
 1273 1320.17 l 1
 1273 1272 l 2
 1273 1259 1260 1255 1252 1255 c 0
 1156.59 1255 1137.06 1241.23 1105.19 1159 c 2
 784 330 l 2
 697 106 584 -46 400 -46 c 0
 276 -46 172 16 172 82 c 0
 172 139 198 180 264 180 c 0
 316 180 348 158 367 134 c 0
 382.026 115.02 412 87 442 87 c 0
EndSplineSet
EndChar

StartChar: afii10039
Encoding: 1061 1061 84
Width: 1452
VWidth: 2047
Flags: HW
HStem: -2 69<13 13.1167 13.1167 172.41 387.071 452 883 982.772 1303.14 1376.77 1376.77 1439> 1255 69<60 112.977 525.088 595 595.006 603.091 951 1013.69 1242.57 1323.92 1323.92 1396>
DStem2: 519 1172 265 1124 0.579178 -0.815201<0 1086.82>
LayerCount: 2
Fore
SplineSet
50 1269 m 2
 50 1320 l 1
 60 1324 l 1
 112 1322 244 1320 266 1320 c 0
 277 1320 533 1322 595 1324 c 1
 595 1324 603 1320 604 1320 c 1
 604 1270 l 2
 604 1260 601 1255 594 1255 c 0
 525.298 1255 496.325 1246.23 496.325 1222.66 c 0
 496.325 1210.2 504.412 1193.61 519 1172 c 2
 737.7 848 l 2
 750.557 828.954 758.131 820.045 765.917 820.045 c 0
 773.458 820.045 781.196 828.402 794.123 844 c 0
 877 944 980.998 1074 1036 1172 c 0
 1044.93 1187.9 1048.72 1200.8 1048.72 1211.25 c 0
 1048.72 1249.75 997.182 1255 961 1255 c 0
 954 1255 947 1259 947 1269 c 2
 947 1320 l 1
 951 1324 l 1
 995 1323 1174 1320 1197 1320 c 0
 1207 1320 1360 1322 1396 1324 c 1
 1401 1320 l 1
 1401 1270 l 2
 1401 1263 1400 1255 1382 1255 c 0
 1277 1255 1216.55 1199.54 1157 1130 c 2
 861.558 785 l 2
 846.443 767.35 837.825 755.45 837.825 740.837 c 0
 837.825 720.092 855.193 693.882 896 638 c 2
 1210 208 l 2
 1267 130 1338 67 1427 67 c 0
 1438 67 1442 60 1442 52 c 2
 1442 2 l 1
 1439 -2 l 1
 1382 0 1248 2 1223 2 c 0
 1210 2 883 -2 883 -2 c 1
 876 2 l 1
 876 53 l 2
 876 62 882 67 889 67 c 0
 961.983 67 990.233 70.5787 990.233 89.0829 c 0
 990.233 101.51 977.491 120.67 957 150 c 2
 707.172 504 l 2
 682.336 539.193 669.901 554.883 658.452 554.883 c 0
 649.512 554.883 641.173 545.317 628 528 c 0
 539 411 449 279 375 157 c 0
 362.705 136.73 357.605 121.012 357.605 108.827 c 0
 357.605 69.7104 410.163 67 446 67 c 0
 455 67 458 60 458 52 c 2
 458 2 l 1
 452 -2 l 1
 452 -2 214 2 184 2 c 0
 174 2 13 -2 13 -2 c 1
 10 2 l 1
 10 53 l 2
 10 64 21 67 32 67 c 0
 154 67 205.759 132.539 268 212 c 2
 568 595 l 2
 583.424 614.692 591.434 627.212 591.434 640.892 c 0
 591.434 656.564 580.922 673.758 559 705 c 2
 265 1124 l 2
 184.726 1238.4 106 1255 72 1255 c 0
 57.25 1255 50 1258.58 50 1269 c 2
EndSplineSet
EndChar

StartChar: afii10040
Encoding: 1062 1062 85
Width: 1480
VWidth: 999
Flags: HW
HStem: -2 69<40.625 184.15> 0 85<441.986 1009.92> 1255 69<39 184.617 441.219 586 886 1029.95 1285.81 1428>
VStem: 188 250<87.3468 1252.45> 1033 250<89.6339 1251.87>
LayerCount: 2
Fore
SplineSet
1076 0 m 2
 1076 0 876.598 0.246094 658.672 0.246094 c 0
 549.709 0.246094 436.115 0.18457 340.5 0 c 2
 40 -2 l 1
 35 2 l 1
 35 46 l 2
 35 58 44 67 53 67 c 2
 107 67 l 2
 173 67 188 82 188 163 c 2
 188 1161 l 2
 188 1241 176 1255 107 1255 c 2
 46 1255 l 2
 39 1255 35 1258 35 1265 c 2
 35 1320 l 1
 39 1324 l 1
 325 1320 l 1
 586 1324 l 1
 590 1320 l 1
 590 1266 l 2
 590 1259 586 1255 579 1255 c 2
 518 1255 l 2
 452 1255 438 1243 438 1161 c 2
 438 181 l 2
 438 96 454 85 518 85 c 2
 953 85 l 2
 1026 85.168 1033 117 1033 183 c 2
 1033 1161 l 2
 1033 1226 1030 1255 953 1255 c 2
 892 1255 l 2
 885 1255 881 1258 881 1265 c 2
 881 1320 l 1
 886 1324 l 1
 1131 1320 l 1
 1428 1324 l 1
 1434 1320 l 1
 1434 1276 l 2
 1434 1269 1430 1255 1422 1255 c 2
 1362 1255 l 2
 1287 1254 1283 1230 1283 1161 c 2
 1283 167 l 2
 1283 116 1316 67 1367 67 c 0
 1418 67 1426 44 1427 26 c 2
 1440 -278 l 1
 1355 -278 l 1
 1325 -134 1234 -0.194997 1076 0 c 2
EndSplineSet
EndChar

StartChar: afii10041
Encoding: 1063 1063 86
Width: 1409
VWidth: 2047
Flags: HW
HStem: -2 69<790.654 957.917 1215.98 1362.86> 507 129<498.731 791.621> 1256 68<60.8654 196.58 451.309 586.426 810.441 959.609 1214.43 1362.97>
VStem: 199 250<682.105 1252.64> 962 250<70.4827 644 732 1252.63>
LayerCount: 2
Fore
SplineSet
881 67 m 2
 954 67 962 94 962 164 c 2
 962 644 l 1
 813 539 673 507 555 507 c 0
 321 507 199 669 199 872 c 2
 199 1171 l 2
 199 1242 189 1256 109 1256 c 2
 73 1256 l 2
 64 1256 60 1260 60 1267 c 2
 60 1324 l 1
 365 1321 l 1
 587 1324 l 1
 587 1266 l 2
 587 1259 583 1256 575 1256 c 2
 539 1256 l 2
 453 1256 449 1234 449 1171 c 2
 449 860 l 2
 449 692 493 636 641 636 c 0
 701 636 831 645 962 732 c 1
 962 1169 l 2
 962 1240 954 1255 881 1255 c 2
 820 1255 l 2
 813 1255 810 1258 810 1265 c 2
 810 1324 l 1
 1130 1318 l 1
 1364 1324 l 1
 1364 1267 l 2
 1364 1259 1360 1255 1353 1255 c 2
 1293 1255 l 2
 1223 1255 1212 1245 1212 1169 c 2
 1212 164 l 2
 1212 89 1222 67 1293 67 c 2
 1353 67 l 2
 1360 67 1364 62 1364 55 c 2
 1364 -2 l 1
 1130 3 l 1
 790 -2 l 1
 790 56 l 2
 790 63 793 67 800 67 c 2
 881 67 l 2
EndSplineSet
EndChar

StartChar: afii10042
Encoding: 1064 1064 87
Width: 2227
VWidth: 999
Flags: HW
HStem: -2 69<69 214.617 2013.31 2159> 5 80<470.496 983.26 1241.39 1756.48> 1255 65<39 188.391 188.391 186.082 186.082 209.306 477.058 641 812.492 978.306 1246.06 1411.16 1585.49 1751.31 2019.06 2188>
VStem: 218 250<89.2061 1243.13> 987 250<88.5464 1243.13> 1760 250<88.5354 1243.13>
LayerCount: 2
Fore
SplineSet
2010 1165 m 2
 2010 153 l 2
 2010 82 2028 67 2091 67 c 2
 2152 67 l 2
 2159 67 2163 64 2163 57 c 2
 2163 2 l 1
 2159 -2 l 1
 1924 5 l 1
 453 5 l 1
 69 -2 l 1
 65 2 l 1
 65 57 l 2
 65 64 69 67 76 67 c 2
 137 67 l 2
 206 67 218 83 218 163 c 2
 218 1165 l 2
 218 1228 187 1255 106 1255 c 2
 52 1255 l 2
 43 1255 35 1261 35 1272 c 2
 35 1320 l 1
 39 1324 l 1
 39 1324 261 1320 341 1320 c 0
 414 1320 641 1324 641 1324 c 1
 645 1320 l 1
 645 1272 l 2
 645 1261 639 1255 629 1255 c 2
 580 1255 l 2
 496 1255 468 1222 468 1165 c 2
 468 181 l 2
 468 114.838 468.269 85 548 85 c 2
 918 85 l 2
 981 85 987 117 987 181 c 2
 987 1165 l 2
 987 1228 956 1255 875 1255 c 2
 826 1255 l 2
 817 1255 809 1261 809 1272 c 2
 809 1320 l 1
 813 1324 l 1
 813 1324 1030 1320 1110 1320 c 0
 1183 1320 1369 1324 1369 1324 c 1
 1414 1320 l 1
 1414 1272 l 2
 1414 1261 1408 1255 1398 1255 c 2
 1349 1255 l 2
 1265 1255 1237 1222 1237 1165 c 2
 1237 181 l 2
 1237 119 1245 85 1312 85 c 2
 1680 85 l 2
 1747 85 1760 100 1760 181 c 2
 1760 1165 l 2
 1760 1228 1729 1255 1648 1255 c 2
 1599 1255 l 2
 1590 1255 1582 1261 1582 1272 c 2
 1582 1320 l 1
 1586 1324 l 1
 1586 1324 1803 1320 1883 1320 c 0
 1956 1320 2188 1324 2188 1324 c 1
 2192 1320 l 1
 2192 1272 l 2
 2192 1261 2186 1255 2176 1255 c 2
 2122 1255 l 2
 2038 1255 2010 1222 2010 1165 c 2
EndSplineSet
EndChar

StartChar: afii10043
Encoding: 1065 1065 88
Width: 2232
VWidth: 999
Flags: HW
HStem: -3 67<69 215.317> 2 82<472.128 983.289 1241.61 1756.23> 1255 65<39 209.306 477.058 642.163 812.492 958.367 958.367 956.978 956.978 641 813 956.772 956.772 956.978 956.978 978.306 1246.06 1410 1585.49 1751.31 2019.06 2188>
VStem: 218 250<89 1243.13> 987 250<89.3932 1243.13> 1760 250<87.929 1243.13>
LayerCount: 2
Fore
SplineSet
468 1165 m 2
 468 181 l 2
 468 119 474 84 548 84 c 2
 902 84 l 2
 979 84 987 107 987 181 c 2
 987 1165 l 2
 987 1228 956 1255 875 1255 c 2
 826 1255 l 2
 817 1255 809 1261 809 1272 c 2
 809 1320 l 1
 813 1324 l 1
 813 1324 1043 1320 1123 1320 c 0
 1196 1320 1410 1324 1410 1324 c 1
 1414 1320 l 1
 1414 1272 l 2
 1414 1261 1408 1255 1398 1255 c 2
 1349 1255 l 2
 1265 1255 1237 1222 1237 1165 c 2
 1237 181 l 2
 1237 106 1248 84 1335 84 c 2
 1680 84 l 2
 1751 84 1760 107 1760 181 c 2
 1760 1165 l 2
 1760 1228 1729 1255 1648 1255 c 2
 1599 1255 l 2
 1590 1255 1582 1261 1582 1272 c 2
 1582 1320 l 1
 1586 1324 l 1
 1586 1324 1810 1320 1890 1320 c 0
 1963 1320 2188 1324 2188 1324 c 1
 2192 1320 l 1
 2192 1272 l 2
 2192 1261 2186 1255 2176 1255 c 2
 2122 1255 l 2
 2038 1255 2010 1222 2010 1165 c 2
 2010 175 l 2
 2010 95 2060 67 2092 67 c 0
 2128 67 2152 48 2154 13 c 2
 2167 -288 l 1
 2076 -288 l 1
 2062 -198 1934 2 1757 2 c 2
 386 2 l 1
 69 -3 l 1
 65 0 l 1
 65 54 l 2
 65 61 69 64 76 64 c 2
 137 64 l 2
 205 64 218 72 218 152 c 2
 218 1165 l 2
 218 1228 187 1255 106 1255 c 2
 52 1255 l 2
 43 1255 35 1261 35 1272 c 2
 35 1320 l 1
 39 1324 l 1
 39 1324 274 1320 354 1320 c 0
 427 1320 641 1324 641 1324 c 1
 645 1320 l 1
 645 1272 l 2
 645 1261 639 1255 629 1255 c 2
 580 1255 l 2
 496 1255 468 1222 468 1165 c 2
EndSplineSet
EndChar

StartChar: afii10044
Encoding: 1066 1066 89
Width: 1598
VWidth: 2047
Flags: HW
HStem: -2 71<365 533.942 800.282 993.996 813.76 1124.53> 678 91<793 1142.42> 1232 90<267.476 536.605> 1255 69<802.058 972.163>
VStem: 543 250<79.3682 678 769 1225.28> 1255 268<199.714 555.269>
LayerCount: 2
Fore
SplineSet
793 678 m 1
 793 172 l 2
 793 104 803 69 915 69 c 0
 1226 69 1255 248 1255 374 c 0
 1255 498 1235 678 972 678 c 2
 793 678 l 1
664 1320 m 2
 737 1320 971 1324 971 1324 c 1
 975 1320 l 1
 975 1272 l 2
 975 1261 969 1255 959 1255 c 2
 905 1255 l 2
 821 1255 793 1222 793 1165 c 2
 793 769 l 1
 917 769 l 2
 1420 769 1523 558 1523 374 c 0
 1523 33 1160 -2 912 -2 c 0
 838 -2 731 2 671 2 c 0
 598 2 365 -2 365 -2 c 1
 361 2 l 1
 361 50 l 2
 361 61 367 67 377 67 c 2
 431 67 l 2
 515 67 543 100 543 157 c 2
 543 1145 l 2
 543 1201 520 1232 462 1232 c 2
 370 1232 l 2
 236 1232 167 1048 149 960 c 1
 53 970 l 1
 71 1085 81 1196 85 1322 c 1
 542 1322 l 1
 664 1320 l 2
EndSplineSet
EndChar

StartChar: afii10045
Encoding: 1067 1067 90
Width: 1860
VWidth: 2047
Flags: HW
HStem: -2 69<39 205.773 499.659 800.118> 1 69<1254 1397.9 1670.57 1811> 678 92<467 812.987> 1255 69<39 205.667 477.749 646> 1258 69<1254 1397.9 1670.57 1811>
VStem: 217 250<79.3682 678 770 1243.13> 929 260<191.483 572.292> 1408 250<81.3379 1246.66>
LayerCount: 2
Fore
SplineSet
1658 160 m 2
 1658 103 1686 70 1770 70 c 2
 1799 70 l 2
 1809 70 1815 64 1815 53 c 2
 1815 5 l 1
 1811 1 l 1
 1811 1 1606 5 1533 5 c 0
 1453 5 1254 1 1254 1 c 1
 1250 5 l 1
 1250 53 l 2
 1250 64 1258 70 1267 70 c 2
 1296 70 l 2
 1377 70 1408 95 1408 160 c 2
 1408 1168 l 2
 1408 1233 1377 1258 1296 1258 c 2
 1267 1258 l 2
 1258 1258 1250 1264 1250 1275 c 2
 1250 1323 l 1
 1254 1327 l 1
 1254 1327 1453 1323 1533 1323 c 0
 1606 1323 1811 1327 1811 1327 c 1
 1815 1323 l 1
 1815 1275 l 2
 1815 1264 1809 1258 1799 1258 c 2
 1770 1258 l 2
 1686 1258 1658 1225 1658 1168 c 2
 1658 160 l 2
217 1165 m 2
 217 1222 189 1255 105 1255 c 2
 51 1255 l 2
 41 1255 35 1261 35 1272 c 2
 35 1320 l 1
 39 1324 l 1
 39 1324 266 1320 339 1320 c 0
 419 1320 646 1324 646 1324 c 1
 650 1320 l 1
 650 1272 l 2
 650 1261 642 1255 633 1255 c 2
 579 1255 l 2
 498 1255 467 1228 467 1165 c 2
 467 770 l 1
 626 770 l 2
 1129 770 1189 558 1189 374 c 0
 1189 33 869 -2 621 -2 c 0
 547 -2 399 2 339 2 c 0
 281 2 39 -2 39 -2 c 1
 35 2 l 1
 35 50 l 2
 35 61 41 67 51 67 c 2
 105 67 l 2
 189 67 217 100 217 157 c 2
 217 1165 l 2
467 678 m 1
 467 172 l 2
 467 104 477 69 589 69 c 0
 900 69 929 248 929 374 c 0
 929 498 909 678 646 678 c 2
 467 678 l 1
EndSplineSet
EndChar

StartChar: afii10046
Encoding: 1068 1068 91
Width: 1264
VWidth: 2047
Flags: HW
HStem: -2 69<39 205.773 499.659 800.118> 678 92<467 812.987> 1255 69<39 205.667 477.749 646>
VStem: 217 250<79.3682 678 770 1243.13> 929 260<191.483 572.292>
LayerCount: 2
Fore
SplineSet
217 1165 m 2
 217 1222 189 1255 105 1255 c 2
 51 1255 l 2
 41 1255 35 1261 35 1272 c 2
 35 1320 l 1
 39 1324 l 1
 39 1324 266 1320 339 1320 c 0
 419 1320 646 1324 646 1324 c 1
 650 1320 l 1
 650 1272 l 2
 650 1261 642 1255 633 1255 c 2
 579 1255 l 2
 498 1255 467 1228 467 1165 c 2
 467 770 l 1
 626 770 l 2
 1129 770 1189 558 1189 374 c 0
 1189 33 869 -2 621 -2 c 0
 547 -2 399 2 339 2 c 0
 281 2 39 -2 39 -2 c 1
 35 2 l 1
 35 50 l 2
 35 61 41 67 51 67 c 2
 105 67 l 2
 189 67 217 100 217 157 c 2
 217 1165 l 2
467 678 m 1
 467 172 l 2
 467 104 477 69 589 69 c 0
 900 69 929 248 929 374 c 0
 929 498 909 678 646 678 c 2
 467 678 l 1
EndSplineSet
EndChar

StartChar: afii10047
Encoding: 1069 1069 92
Width: 1282
VWidth: 2047
Flags: HW
HStem: -25 79<397.239 736.112> 559 135<633.081 866.445> 637 121<329.628 580.917> 1262 85<389.359 709.555>
VStem: 85 80<943.999 1107.9> 924.623 267.377<402.834 604.531 709.026 957.804>
LayerCount: 2
Fore
SplineSet
924.623 604.531 m 1
 832.203 559.542 759.352 559 738 559 c 0
 610 559 522 637 401 637 c 0
 323 637 290.5 604 274 604 c 0
 266 604 255 621 255 638 c 0
 255 689 385 758 505 758 c 0
 642 758 701 694 820 694 c 0
 858.891 694 892.926 699.789 923.479 709.026 c 1
 904.879 1126.07 719.088 1262 554 1262 c 0
 361 1262 218 1105 165 929 c 1
 85 939 l 1
 108 1047 124 1143 130 1255 c 1
 248 1262 356 1347 571 1347 c 0
 910 1347 1192 1126 1192 683 c 0
 1192 231 912 -25 564 -25 c 0
 388 -25 272 39 208 89 c 0
 153 132 110 195 110 250 c 0
 110 303 144 337 181 337 c 0
 239 337 270.975 311.992 293 245 c 0
 341 99.0001 438 54 585 54 c 0
 838.373 54 918.577 330.334 924.623 604.531 c 1
EndSplineSet
EndChar

StartChar: afii10048
Encoding: 1070 1070 93
Width: 1919
VWidth: 2047
Flags: HW
HStem: -25 80<1125.12 1418.87> -2 69<49 192.902 465.567 606> 615 100<453 648.219> 1255 69<49 192.902 465.567 606> 1267 80<1081.77 1383.27>
VStem: 203 250<78.3379 615 715 1243.66> 648.219 259.781<366.092 615 715 915.438> 1579 260<390.469 938.325>
LayerCount: 2
Fore
SplineSet
1215 1267 m 0
 1043 1267 908 1100 908 670 c 0
 908 276 1057 55 1278 55 c 0
 1489 55 1579 268 1579 634 c 0
 1579 1060 1471 1267 1215 1267 c 0
453 157 m 2
 453 100 481 67 565 67 c 2
 594 67 l 2
 604 67 610 61 610 50 c 2
 610 2 l 1
 606 -2 l 1
 606 -2 401 2 328 2 c 0
 248 2 49 -2 49 -2 c 1
 45 2 l 1
 45 50 l 2
 45 61 53 67 62 67 c 2
 91 67 l 2
 172 67 203 92 203 157 c 2
 203 1165 l 2
 203 1230 172 1255 91 1255 c 2
 62 1255 l 2
 53 1255 45 1261 45 1272 c 2
 45 1320 l 1
 49 1324 l 1
 49 1324 248 1320 328 1320 c 0
 401 1320 606 1324 606 1324 c 1
 610 1320 l 1
 610 1272 l 2
 610 1261 604 1255 594 1255 c 2
 565 1255 l 2
 481 1255 453 1222 453 1165 c 2
 453 715 l 1
 651.361 715 l 1
 682.129 1077.4 920.994 1347 1239 1347 c 0
 1582 1347 1839 1080 1839 674 c 0
 1839 264 1605 -25 1241 -25 c 0
 918.459 -25 656.838 223.516 648.219 615 c 1
 453 615 l 1
 453 157 l 2
EndSplineSet
EndChar

StartChar: afii10049
Encoding: 1071 1071 94
Width: 1255
VWidth: 2047
Flags: HW
HStem: 0 67<23.0635 126.413 605.837 776.864 1042.78 1214> 656 98<612.003 626 626 785> 1242 82<426.885 774.885> 1255 69<1040.77 1218.15>
VStem: 142 221<838.558 1154.09> 785 250<78.5488 656 754 1234.94>
LayerCount: 2
Fore
SplineSet
785 656 m 1
 567 656 579 577 505 368 c 0
 425.724 144.098 367 2 220 0 c 2
 23 -2 l 1
 20 2 l 1
 20 50 l 2
 20 61 27 67 35 67 c 2
 54 67 l 2
 121 67 224 211 332 483 c 0
 365.305 566.88 393 637 447 674 c 1
 308 694 142 789 142 997 c 0
 142 1138 232 1324 613 1324 c 0
 685 1324 849 1320 916 1320 c 0
 981 1320 1220 1324 1220 1324 c 1
 1220 1269 l 2
 1220 1261 1216 1255 1205 1255 c 2
 1144 1255 l 2
 1059 1255 1035 1235 1035 1165 c 2
 1035 156 l 2
 1035 93 1066 67 1147 67 c 2
 1201 67 l 2
 1210 67 1218 61 1218 50 c 2
 1218 2 l 1
 1214 -2 l 1
 1214 -2 995 2 915 2 c 0
 842 2 607 -2 607 -2 c 1
 603 2 l 1
 603 50 l 2
 603 61 609 67 619 67 c 2
 673 67 l 2
 757 67 785 99 785 156 c 2
 785 656 l 1
785 1168 m 2
 785 1235 776 1242 599 1242 c 0
 484 1242 363 1218 363 1029 c 0
 363 812 456 754 626 754 c 2
 785 754 l 1
 785 1168 l 2
EndSplineSet
EndChar

StartChar: afii10089
Encoding: 1095 1095 95
Width: 1190
VWidth: 2047
Flags: HW
HStem: 2 65<634 754.618 986.845 1106> 298 83<398.964 688.552> 823 69<37 141.277 373.266 493 635 754.448 987.234 1127>
VStem: 145 225<433.817 819.382> 758 225<70.381 388 470 819.843>
LayerCount: 2
Fore
SplineSet
758 725 m 2
 758 804 748 823 675 823 c 2
 643 823 l 2
 636 823 632 826 632 833 c 2
 632 888 l 1
 635 892 l 1
 860 888 l 1
 1127 892 l 1
 1130 888 l 1
 1130 834 l 2
 1130 827 1126 823 1118 823 c 2
 1066 823 l 2
 997 823 983 808 983 725 c 2
 983 165 l 2
 983 88 992 67 1066 67 c 2
 1100 67 l 2
 1107 67 1110 63 1110 57 c 2
 1110 2 l 1
 1106 -2 l 1
 1106 -2 919 2 843 2 c 0
 761 2 634 -2 634 -2 c 1
 630 3 l 1
 630 56 l 2
 630 63 634 67 642 67 c 2
 675 67 l 2
 749 67 758 86 758 165 c 2
 758 388 l 1
 678 328 613 298 490 298 c 0
 289 298 145 392 145 608 c 2
 145 727 l 2
 145 805 134 823 62 823 c 2
 46 823 l 2
 39 823 35 826 35 833 c 2
 35 888 l 1
 37 892 l 1
 248 887 l 1
 493 892 l 1
 496 888 l 1
 496 835 l 2
 496 827 492 823 484 823 c 2
 453 823 l 2
 384 823 370 803 370 738 c 2
 370 600 l 2
 370 440 386 381 512 381 c 0
 612 381 692 406 758 470 c 1
 758 725 l 2
EndSplineSet
EndChar

StartChar: afii10090
Encoding: 1096 1096 96
Width: 1892
VWidth: 2047
Flags: HW
HStem: -2 69<88 209.898 1671.18 1822> 0 84<441.403 823.969 1058.94 1439.27> 823 69<67 208.277 440.732 568 697 824.448 1057.23 1194 1302 1440.28 1672.73 1803>
VStem: 212 225<88.0091 819.976> 828 225<88.0504 819.843> 1444 225<88.389 819.976>
CounterMasks: 1 1c
LayerCount: 2
Fore
SplineSet
1669 727 m 2
 1669 151 l 2
 1669 69 1684 67 1753 67 c 2
 1815 67 l 2
 1823 67 1827 62 1827 55 c 2
 1827 2 l 1
 1822 -2 l 1
 1553 0 l 1
 316 0 l 1
 88 -2 l 1
 85 2 l 1
 85 57 l 2
 85 64 89 67 96 67 c 2
 129 67 l 2
 201 67 212 74 212 153 c 2
 212 727 l 2
 212 805 201 823 129 823 c 2
 76 823 l 2
 69 823 65 826 65 833 c 2
 65 888 l 1
 67 892 l 1
 315 887 l 1
 568 892 l 1
 571 888 l 1
 571 835 l 2
 571 827 567 823 559 823 c 2
 520 823 l 2
 451 823 437 810 437 727 c 2
 437 184 l 2
 437 103 449 84 520 84 c 2
 745 84 l 2
 818 84 828 107 828 183 c 2
 828 725 l 2
 828 804 818 823 745 823 c 2
 705 823 l 2
 698 823 694 826 694 833 c 2
 694 888 l 1
 697 892 l 1
 930 888 l 1
 1194 892 l 1
 1197 888 l 1
 1197 834 l 2
 1197 827 1193 823 1185 823 c 2
 1136 823 l 2
 1067 823 1053 808 1053 725 c 2
 1053 184 l 2
 1053 98 1077 84 1136 84 c 2
 1362 84 l 2
 1438 84 1444 120 1444 184 c 2
 1444 727 l 2
 1444 805 1433 823 1361 823 c 2
 1311 823 l 2
 1304 823 1300 826 1300 833 c 2
 1300 888 l 1
 1302 892 l 1
 1547 887 l 1
 1803 892 l 1
 1806 888 l 1
 1806 835 l 2
 1806 827 1802 823 1794 823 c 2
 1752 823 l 2
 1683 823 1669 810 1669 727 c 2
EndSplineSet
EndChar

StartChar: afii10091
Encoding: 1097 1097 97
Width: 1879
VWidth: 2047
Flags: HW
HStem: -2 69<89 209.785> 0 81<441.403 823.969 1059.13 1439> 823 69<67 208.277 440.732 568 697 824.448 1057.23 1194 1302 1440.28 1672.73 1803>
VStem: 212 225<84.4817 819.976> 828 225<85.1765 819.843> 1444 225<87.4063 819.976>
CounterMasks: 1 1c
LayerCount: 2
Fore
SplineSet
1669 727 m 2
 1669 162 l 2
 1669 110 1696 67 1743 67 c 0
 1771 67 1800 54 1802 16 c 2
 1814 -263 l 1
 1727 -263 l 1
 1702 -162 1647 0 1482 0 c 2
 317 0 l 1
 89 -2 l 1
 85 2 l 1
 85 56 l 2
 85 63 89 67 96 67 c 2
 129 67 l 2
 200 67 212 75 212 154 c 2
 212 727 l 2
 212 805 201 823 129 823 c 2
 76 823 l 2
 69 823 65 826 65 833 c 2
 65 888 l 1
 67 892 l 1
 315 887 l 1
 568 892 l 1
 571 888 l 1
 571 835 l 2
 571 827 567 823 559 823 c 2
 520 823 l 2
 451 823 437 810 437 727 c 2
 437 181 l 2
 437 100 449 81 520 81 c 2
 745 81 l 2
 818 81 828 104 828 180 c 2
 828 725 l 2
 828 804 818 823 745 823 c 2
 705 823 l 2
 698 823 694 826 694 833 c 2
 694 888 l 1
 697 892 l 1
 930 888 l 1
 1194 892 l 1
 1197 888 l 1
 1197 834 l 2
 1197 827 1193 823 1185 823 c 2
 1136 823 l 2
 1067 823 1053 808 1053 725 c 2
 1053 181 l 2
 1053 95 1078 81 1137 81 c 2
 1361 83 l 2
 1437 83.6785 1444 114 1444 183 c 2
 1444 727 l 2
 1444 805 1433 823 1361 823 c 2
 1311 823 l 2
 1304 823 1300 826 1300 833 c 2
 1300 888 l 1
 1302 892 l 1
 1547 887 l 1
 1803 892 l 1
 1806 888 l 1
 1806 835 l 2
 1806 827 1802 823 1794 823 c 2
 1752 823 l 2
 1683 823 1669 810 1669 727 c 2
EndSplineSet
EndChar

StartChar: afii10092
Encoding: 1098 1098 98
Width: 1209
VWidth: 2047
Flags: HW
HStem: 0 73<274 394.488 635.908 837.072 837.072 881.246> 459 75<626 878.725> 804 84<195.106 397.699> 823 69<628.422 778>
VStem: 54 70<573 693.884> 401 225<86.1527 459 534 802.102> 919 225<132.127 417.948>
LayerCount: 2
Fore
SplineSet
401 157 m 2
 401 711 l 2
 401 786 387 804 341 804 c 0
 175 804 159 731 124 564 c 1
 54 573 l 1
 67 667 75 772 78 890 c 1
 515 888 l 1
 778 892 l 1
 783 888 l 1
 783 831 l 2
 783 824 779 823 772 823 c 2
 709 823 l 2
 634 823 626 807 626 735 c 2
 626 534 l 1
 762 534 l 2
 958 534 1144 472 1144 278 c 0
 1144 106 1000 0 771 0 c 2
 510 2 l 2
 437 2 262 -2 262 -2 c 1
 258 2 l 1
 258 50 l 2
 258 61 264 67 274 67 c 2
 313 67 l 2
 382 67 401 99 401 157 c 2
919 258 m 0
 919 366 910 459 764 459 c 2
 626 459 l 1
 626 169 l 2
 626 96 661 73 756 73 c 0
 858 73 919 90 919 258 c 0
EndSplineSet
EndChar

StartChar: afii10093
Encoding: 1099 1099 99
Width: 1535
VWidth: 2047
Flags: HW
HStem: 0 73<90 210.488 448.953 653.072 653.072 697.246> 2 65<972 1104.49 1342.92 1476> 459 75<442 694.725> 822 65<78 195.072 195.072 193.539 193.539 210.488 448.915 582> 823 65<972 1089.07 1089.07 1087.54 1087.54 1104.49 1342.92 1476>
VStem: 217 225<83.6354 459 534 815.339> 735 225<132.127 417.948> 1111 225<73.661 816.339>
LayerCount: 2
Fore
SplineSet
1111 733 m 2
 1111 791 1092 823 1023 823 c 2
 984 823 l 2
 974 823 968 829 968 840 c 2
 968 888 l 1
 972 892 l 1
 972 892 1147 888 1220 888 c 0
 1300 888 1476 892 1476 892 c 1
 1480 888 l 1
 1480 840 l 2
 1480 829 1472 823 1463 823 c 2
 1424 823 l 2
 1357 823 1336 791 1336 733 c 2
 1336 157 l 2
 1336 99 1357 67 1424 67 c 2
 1463 67 l 2
 1472 67 1480 61 1480 50 c 2
 1480 2 l 1
 1476 -2 l 1
 1476 -2 1300 2 1220 2 c 0
 1147 2 972 -2 972 -2 c 1
 968 2 l 1
 968 50 l 2
 968 61 974 67 984 67 c 2
 1023 67 l 2
 1092 67 1111 99 1111 157 c 2
 1111 733 l 2
735 258 m 0
 735 366 726 459 580 459 c 2
 442 459 l 1
 442 162 l 2
 442 89 477 73 572 73 c 0
 674 73 735 90 735 258 c 0
217 157 m 2
 217 732 l 2
 217 790 198 822 129 822 c 2
 90 822 l 2
 80 822 74 828 74 839 c 2
 74 887 l 1
 78 891 l 1
 78 891 253 887 326 887 c 0
 406 887 582 891 582 891 c 1
 586 887 l 1
 586 839 l 2
 586 828 578 822 569 822 c 2
 530 822 l 2
 463 822 442 790 442 732 c 2
 442 534 l 1
 578 534 l 2
 774 534 960 472 960 278 c 0
 960 106 816 0 587 0 c 2
 326 2 l 2
 253 2 78 -2 78 -2 c 1
 74 2 l 1
 74 50 l 2
 74 61 80 67 90 67 c 2
 129 67 l 2
 198 67 217 99 217 157 c 2
EndSplineSet
EndChar

StartChar: afii10094
Encoding: 1100 1100 100
Width: 1025
VWidth: 2047
Flags: HW
HStem: 0 73<90 210.488 448.953 653.072 653.072 697.246> 459 75<442 694.725> 822 65<78 195.072 195.072 193.539 193.539 210.488 448.915 582>
VStem: 217 225<83.6354 459 534 815.339> 735 225<132.127 417.948>
LayerCount: 2
Fore
SplineSet
735 258 m 0
 735 366 726 459 580 459 c 2
 442 459 l 1
 442 162 l 2
 442 89 477 73 572 73 c 0
 674 73 735 90 735 258 c 0
217 157 m 2
 217 732 l 2
 217 790 198 822 129 822 c 2
 90 822 l 2
 80 822 74 828 74 839 c 2
 74 887 l 1
 78 891 l 1
 78 891 253 887 326 887 c 0
 406 887 582 891 582 891 c 1
 586 887 l 1
 586 839 l 2
 586 828 578 822 569 822 c 2
 530 822 l 2
 463 822 442 790 442 732 c 2
 442 534 l 1
 578 534 l 2
 774 534 960 472 960 278 c 0
 960 106 816 0 587 0 c 2
 326 2 l 2
 253 2 78 -2 78 -2 c 1
 74 2 l 1
 74 50 l 2
 74 61 80 67 90 67 c 2
 129 67 l 2
 198 67 217 99 217 157 c 2
EndSplineSet
EndChar

StartChar: afii10095
Encoding: 1101 1101 101
Width: 926
VWidth: 2047
Flags: HW
HStem: -25 73<269.056 516.509> 369 99<329.923 564.218> 413 94<183.077 215.269 199.173 397.005> 831 74<246.184 513.636>
VStem: 82 72<609 701.749> 607.893 228.107<249.219 406.758 473.385 652.203>
LayerCount: 2
Fore
SplineSet
607.56 473.385 m 1
 604.313 622.814 578.573 831 391 831 c 0
 226 831 182 724 154 600 c 1
 82 609 l 1
 94 699 100 769 105 880 c 1
 248 880 265 905 412 905 c 0
 664 905 836 687 836 461 c 0
 836 139 600 -25 383 -25 c 0
 214 -25 75 65 75 173 c 0
 75 201 109 232 146 232 c 0
 168 232 222.223 223.715 234 156 c 0
 246 87.0002 309 48 396 48 c 0
 581.844 48 606.175 250.807 607.893 406.758 c 1
 566.549 387.286 515.219 369 466 369 c 0
 377 369 318 424 246 424 c 0
 221 424 200 413 185 413 c 0
 172 413 169 433 169 441 c 0
 169 471 262 507 351 507 c 0
 442 507 477 468 556 468 c 0
 574.491 468 591.631 470.026 607.56 473.385 c 1
EndSplineSet
EndChar

StartChar: afii10096
Encoding: 1102 1102 102
Width: 1586
VWidth: 2047
Flags: HW
HStem: -25 88<1007.4 1205.89> 2 65<59 191.488 429.915 563> 823 65<59 176.072 176.072 174.539 174.539 191.488 429.915 563> 828 83<965.857 1162.96>
VStem: 198 225<73.661 816.339> 638.5 237.5<242.785 651.341> 1280.7 234.65<242.375 656.321>
LayerCount: 2
Fore
SplineSet
198 733 m 2
 198 791 179 823 110 823 c 2
 71 823 l 2
 61 823 55 829 55 840 c 2
 55 888 l 1
 59 892 l 1
 59 892 234 888 307 888 c 0
 387 888 563 892 563 892 c 1
 567 888 l 1
 567 840 l 2
 567 829 559 823 550 823 c 2
 511 823 l 2
 444 823 423 791 423 733 c 2
 423 491 l 1
 641.685 491 l 1
 665.297 737.508 819.418 911 1078.35 911 c 0
 1394.7 911 1515.35 657 1515.35 442 c 0
 1515.35 235 1376.65 -25 1075.5 -25 c 0
 799.451 -25 649.122 195.872 639.043 401 c 1
 423 401 l 1
 423 157 l 2
 423 99 444 67 511 67 c 2
 550 67 l 2
 559 67 567 61 567 50 c 2
 567 2 l 1
 563 -2 l 1
 563 -2 387 2 307 2 c 0
 234 2 59 -2 59 -2 c 1
 55 2 l 1
 55 50 l 2
 55 61 61 67 71 67 c 2
 110 67 l 2
 179 67 198 99 198 157 c 2
 198 733 l 2
1058.4 828 m 0
 933.95 828 876 643 876 470 c 0
 876 317 947.25 63 1107.8 63 c 0
 1177.15 63 1280.7 117 1280.7 377 c 0
 1280.7 669 1190.45 828 1058.4 828 c 0
EndSplineSet
EndChar

StartChar: afii10097
Encoding: 1103 1103 103
Width: 981
VWidth: 2047
Flags: HW
HStem: 0 57<38 131.699> 2 65<474.688 584.886 791.293 920.996> 400 81<449.236 587> 418 63<340.566 356 356 449> 823 67<341.964 585.495 778.077 917>
VStem: 87 225<514.993 757.196> 587 189<79.2232 400 481 817.513>
LayerCount: 2
Fore
SplineSet
587 481 m 1
 587 750 l 2
 587 815 573 823 493 823 c 0
 316 823 312 753 312 658 c 0
 312 555 333 481 449 481 c 2
 587 481 l 1
224 278 m 0
 256 362 300 405 356 418 c 1
 243 418 87 489 87 635 c 0
 87 787 270 890 422 890 c 2
 580 890 l 1
 702 888 l 1
 917 892 l 1
 921 888 l 1
 921 830 l 2
 921 826 919 823 914 823 c 2
 863 823 l 2
 812 823 776 805 776 762 c 2
 776 166 l 2
 776 112 818 67 856 67 c 2
 900 67 l 2
 916 67 921 52 921 49 c 2
 921 -2 l 1
 921 -2 786 2 699 2 c 0
 611 2 473 -2 473 -2 c 1
 473 53 l 2
 473 61 477 67 485 67 c 2
 515 67 l 2
 584 67 587 86 587 166 c 2
 587 400 l 1
 531 400 l 2
 450 400 401 296 359 172 c 0
 330.595 88.1362 270 1 205 0 c 2
 38 -2 l 1
 33 2 l 1
 33 40 l 2
 33 55 45 57 54 57 c 2
 69 57 l 2
 130 57 194.709 201.11 224 278 c 0
EndSplineSet
EndChar

StartChar: uni04AE
Encoding: 1198 1198 104
Width: 1108
Flags: HW
HStem: 2 70<316 472.12 731.719 889.82> 1251 70<-10.8879 82.3933 382.124 484 757.007 879.304 1049.41 1196>
VStem: 476 252<74.613 574 578 597>
DStem2: 400 1178 137 1166 0.503508 -0.863991<-56.3951 472.629> 642 772 723 597 0.468815 0.883297<0 517.351>
LayerCount: 2
Fore
SplineSet
476 153 m 2
 476 578 l 1
 482 574 l 1
 367 770 252 969 137 1166 c 0
 111 1213 97 1236 86 1243 c 0
 78 1248 66 1251 52 1251 c 2
 21 1251 l 1
 2 1254 -38 1260 -38 1274 c 2
 -38 1307 l 1
 -19 1326 l 1
 -19 1326 197 1321 224 1321 c 0
 236 1321 484 1326 484 1326 c 1
 503 1307 l 1
 503 1276 l 2
 503 1264 485 1251 446 1251 c 2
 388 1251 l 2
 383 1251 381 1246 381 1233 c 0
 381 1216 388 1199 400 1178 c 0
 492 1024 549 929 642 772 c 1
 716 907 790 1042 862 1178 c 0
 874 1201 880 1219 880 1232 c 0
 880 1247 879 1251 873 1251 c 2
 810 1251 l 2
 766 1255 757 1265 757 1274 c 2
 757 1306 l 1
 776 1326 l 1
 776 1326 965 1321 991 1321 c 0
 1008 1321 1196 1326 1196 1326 c 1
 1215 1307 l 1
 1215 1275 l 2
 1215 1258 1191 1251 1152 1251 c 2
 1108 1251 l 2
 1078 1251 1059 1229 1025 1166 c 2
 723 597 l 1
 728 601 l 1
 728 153 l 2
 728 97 747 72 795 72 c 2
 848 72 l 2
 881 72 909 63 909 47 c 2
 909 17 l 1
 890 -3 l 1
 890 -3 685 2 606 2 c 0
 534 2 316 -3 316 -3 c 1
 296 17 l 1
 296 47 l 2
 296 63 319 72 357 72 c 2
 410 72 l 2
 459 72 476 102 476 153 c 2
EndSplineSet
EndChar

StartChar: uni04C0
Encoding: 1216 1216 105
Width: 651
VWidth: 2047
Flags: HW
HStem: 2 65<74 220.221 487.058 631> 1255 65<74 187.879 187.879 186.142 186.142 220.221 487.058 631>
VStem: 228 250<78.3379 1243.66>
LayerCount: 2
Fore
SplineSet
478 157 m 2
 478 100 506 67 590 67 c 2
 619 67 l 2
 629 67 635 61 635 50 c 2
 635 2 l 1
 631 -2 l 1
 631 -2 426 2 353 2 c 0
 273 2 74 -2 74 -2 c 1
 70 2 l 1
 70 50 l 2
 70 61 78 67 87 67 c 2
 116 67 l 2
 197 67 228 92 228 157 c 2
 228 1165 l 2
 228 1230 197 1255 116 1255 c 2
 87 1255 l 2
 78 1255 70 1261 70 1272 c 2
 70 1320 l 1
 74 1324 l 1
 74 1324 273 1320 353 1320 c 0
 426 1320 631 1324 631 1324 c 1
 635 1320 l 1
 635 1272 l 2
 635 1261 629 1255 619 1255 c 2
 590 1255 l 2
 506 1255 478 1222 478 1165 c 2
 478 157 l 2
EndSplineSet
EndChar

StartChar: uni04D0
Encoding: 1232 1232 106
Width: 1432
VWidth: 2047
Flags: HW
HStem: -2 69<21 76.3451 76.3451 133.987 290.77 432.863 432.863 433 847 847.162 847.162 991.552 1267.82 1417.36 1417.36 1417.5> 494 95<478.616 825> 1327 20<714.667 747.5> 1429 63<634.523 839.14>
VStem: 480 142<1508.65 1645.48> 848 142<1506.73 1616.09>
DStem2: 182 187 303 162 0.383838 0.9234<23.3594 980.105> 817 1284 654.5 1052 0.352804 -0.935697<159.751 1121.41>
LayerCount: 2
Fore
SplineSet
990 1588 m 0
 990 1480 863 1429 733 1429 c 0
 598 1429 480 1478 480 1586 c 0
 480 1631 504 1649 559 1649 c 0
 603 1649 624 1616 624 1585 c 0
 624 1581.8 622 1570.6 622 1569 c 0
 622 1528 669 1492 735 1492 c 0
 797 1492 848 1521 848 1567 c 0
 848 1568.9 846 1582.2 846 1586 c 0
 846 1615 865 1649 911 1649 c 0
 966 1649 990 1628 990 1588 c 0
518 589 m 2
 825 589 l 1
 654.5 1052 l 1
 479 614 l 1
 479 596.286 481.143 589 518 589 c 2
303 162 m 2
 295.851 143.546 290.729 127.358 290.729 113.818 c 0
 290.729 83.9754 315.609 67 398.5 67 c 0
 431.5 67 442 63 442 47 c 2
 442 6 l 1
 433 -2 l 1
 433 -2 244 2 195 2 c 0
 143 2 21 -2 21 -2 c 1
 5 4.5 l 1
 5 47 l 2
 5 67 20 67 46 67 c 0
 85.5 67 146.964 102.713 182 187 c 2
 638 1284 l 2
 658.747 1332.63 703.333 1347 726 1347 c 0
 769 1347 800.607 1327.47 817 1284 c 2
 1231 186 l 2
 1260 110 1289 67 1340 67 c 2
 1397.5 67 l 2
 1426.5 67 1427 63 1427 47 c 2
 1427 5.5 l 1
 1417.5 -2 l 1
 1417.5 -2 1221 2 1142 2 c 0
 1070 2 847 -2 847 -2 c 1
 832 8 l 1
 832 47 l 2
 832 63 847 67 885 67 c 2
 941 67 l 2
 975 67 992 91 992 120 c 0
 992 132 991 143 988 150 c 2
 860 494 l 1
 483 494 l 2
 442 494 431.291 490.85 420 464 c 2
 303 162 l 2
EndSplineSet
LCarets2: 1 0 
EndChar

StartChar: uni04D1
Encoding: 1233 1233 107
Width: 1009
VWidth: 2047
Flags: HW
HStem: -25 92<335.649 517.457> -25 116<753.905 897.99> 834 77<325.24 537.738> 1002 62<376.4 551.108>
VStem: 80 214<106.175 353.609> 114 212<604.207 789.453> 216 149.117<1079.08 1204.9 1169.27 1240.82> 562.3 149.7<1079.16 1205.22 1169.22 1241.72> 590 225<149.867 480 572 759.602>
DStem2: 438 528 468 444.764 0.960564 0.278058<5.67249 132.659>
LayerCount: 2
Fore
SplineSet
712 1181 m 0
 712 1069 592 1002 462 1002 c 0
 328 1002 216 1069 216 1179 c 0
 216 1217 248 1247 295 1247 c 0
 340.373 1247 365.117 1218.72 365.117 1185.85 c 0
 365.117 1180.33 364.418 1174.67 363 1169 c 0
 361.562 1163.25 360.864 1157.42 360.864 1151.63 c 0
 360.864 1107.07 402.057 1064 464 1064 c 0
 522.564 1064 566.168 1105.73 566.168 1151.46 c 0
 566.168 1157.27 565.464 1163.14 564 1169 c 0
 562.846 1173.62 562.3 1178.19 562.3 1182.66 c 0
 562.3 1217.71 595.758 1247 633 1247 c 0
 682 1247 712 1221 712 1181 c 0
775 -25 m 0
 687 -25 638 8 602 77 c 1
 518 11 441 -25 370 -25 c 0
 192 -25 80 73 80 216 c 0
 80 377 224.452 473.208 438 528 c 2
 590 572 l 1
 588 786 510 834 460 834 c 0
 383 834 312 805 312 759 c 0
 312 718 326 697 326 672 c 0
 326 643 308 588 217 588 c 0
 144 588 114 641 114 694 c 0
 114 817 318 911 466 911 c 0
 635 911 815 849 815 554 c 2
 815 256 l 2
 815 138 821 91 851 91 c 0
 895 91 910 162 916 219 c 1
 993 205 l 1
 966 12 877 -25 775 -25 c 0
590 149.867 m 1
 590 480 l 1
 468 444.764 l 2
 325.356 398.889 294 309.114 294 225 c 0
 294 170 328 67 426 67 c 0
 463.853 67 538.821 108.924 590 149.867 c 1
EndSplineSet
LCarets2: 1 0 
EndChar

StartChar: uni04D2
Encoding: 1234 1234 108
Width: 1432
VWidth: 2047
Flags: HW
HStem: -2 69<21 76.3451 76.3451 133.987 290.77 432.863 432.863 433 847 847.162 847.162 991.552 1267.82 1417.36 1417.36 1417.5> 494 95<478.616 825> 1327 20<714.667 747.5> 1438 220<483.435 660.22 854.78 1031.56>
VStem: 461 221<1461.69 1634.31> 833 221<1461.69 1634.31>
DStem2: 182 187 303 162 0.383838 0.9234<23.3594 980.105> 817 1284 654.5 1052 0.352804 -0.935697<159.751 1121.41>
LayerCount: 2
Fore
SplineSet
833 1548 m 0
 833 1608 882 1658 943 1658 c 0
 1003 1658 1054 1608 1054 1548 c 0
 1054 1488 1003 1438 943 1438 c 0
 882 1438 833 1488 833 1548 c 0
461 1548 m 0
 461 1608 512 1658 572 1658 c 0
 633 1658 682 1608 682 1548 c 0
 682 1488 633 1438 572 1438 c 0
 512 1438 461 1488 461 1548 c 0
518 589 m 2
 825 589 l 1
 654.5 1052 l 1
 479 614 l 1
 479 596.286 481.143 589 518 589 c 2
303 162 m 2
 295.851 143.546 290.729 127.358 290.729 113.818 c 0
 290.729 83.9754 315.609 67 398.5 67 c 0
 431.5 67 442 63 442 47 c 2
 442 6 l 1
 433 -2 l 1
 433 -2 244 2 195 2 c 0
 143 2 21 -2 21 -2 c 1
 5 4.5 l 1
 5 47 l 2
 5 67 20 67 46 67 c 0
 85.5 67 146.964 102.713 182 187 c 2
 638 1284 l 2
 658.747 1332.63 703.333 1347 726 1347 c 0
 769 1347 800.607 1327.47 817 1284 c 2
 1231 186 l 2
 1260 110 1289 67 1340 67 c 2
 1397.5 67 l 2
 1426.5 67 1427 63 1427 47 c 2
 1427 5.5 l 1
 1417.5 -2 l 1
 1417.5 -2 1221 2 1142 2 c 0
 1070 2 847 -2 847 -2 c 1
 832 8 l 1
 832 47 l 2
 832 63 847 67 885 67 c 2
 941 67 l 2
 975 67 992 91 992 120 c 0
 992 132 991 143 988 150 c 2
 860 494 l 1
 483 494 l 2
 442 494 431.291 490.85 420 464 c 2
 303 162 l 2
EndSplineSet
LCarets2: 1 0 
EndChar

StartChar: uni04D3
Encoding: 1235 1235 109
Width: 1009
VWidth: 2047
Flags: HW
HStem: -25 92<335.649 517.457> -25 116<753.905 897.99> 834 77<325.24 537.738> 1059 220<188.435 365.22 559.78 736.565>
VStem: 80 214<106.175 353.609> 114 212<604.207 789.453> 166 221<1082.69 1255.31> 538 221<1082.69 1255.31> 590 225<149.867 480 572 759.602>
DStem2: 438 528 468 444.764 0.960564 0.278058<5.67249 132.659>
LayerCount: 2
Fore
SplineSet
538 1169 m 0
 538 1229 587 1279 648 1279 c 0
 708 1279 759 1229 759 1169 c 0
 759 1109 708 1059 648 1059 c 0
 587 1059 538 1109 538 1169 c 0
166 1169 m 0
 166 1229 217 1279 277 1279 c 0
 338 1279 387 1229 387 1169 c 0
 387 1109 338 1059 277 1059 c 0
 217 1059 166 1109 166 1169 c 0
775 -25 m 0
 687 -25 638 8 602 77 c 1
 518 11 441 -25 370 -25 c 0
 192 -25 80 73 80 216 c 0
 80 377 224.452 473.208 438 528 c 2
 590 572 l 1
 588 786 510 834 460 834 c 0
 383 834 312 805 312 759 c 0
 312 718 326 697 326 672 c 0
 326 643 308 588 217 588 c 0
 144 588 114 641 114 694 c 0
 114 817 318 911 466 911 c 0
 635 911 815 849 815 554 c 2
 815 256 l 2
 815 138 821 91 851 91 c 0
 895 91 910 162 916 219 c 1
 993 205 l 1
 966 12 877 -25 775 -25 c 0
590 149.867 m 1
 590 480 l 1
 468 444.764 l 2
 325.356 398.889 294 309.114 294 225 c 0
 294 170 328 67 426 67 c 0
 463.853 67 538.821 108.924 590 149.867 c 1
EndSplineSet
LCarets2: 1 0 
EndChar

StartChar: uni04D4
Encoding: 1236 1236 110
Width: 1864
VWidth: 2047
Flags: HW
HStem: -2 69<8.69275 173.223 329.443 446.81 741.749 823.679 823.679 799.518 742 910.942> 2 94.996<1170.36 1618.18> 544 80<596 920> 664 86<1170 1452.54> 1230 94<1170.42 1574.34> 1255 69<606 735.713>
VStem: 920 250<98.3496 544 624 664 750 1143>
LayerCount: 2
Fore
SplineSet
596 624 m 1
 920 624 l 1
 920 1117 l 2
 920 1145.09 913.042 1162.02 901.302 1162.02 c 0
 890.888 1162.02 876.711 1148.69 860.29 1118 c 2
 596 624 l 1
1057.75 2 m 1
 742 -2 l 1
 738 2 l 1
 738 48 l 2
 738 59 744 67 754 67 c 2
 808 67 l 2
 892 67 920 100 920 157 c 2
 920 544 l 1
 554 544 l 1
 338 140 l 2
 332.108 128.979 329.44 119.542 329.44 111.478 c 0
 329.44 75.7473 381.816 67 438 67 c 0
 446 67 450 60.333 450 55 c 2
 450 2 l 1
 447 -2 l 1
 447 -2 293 2 213 2 c 0
 141 2 8 -2 8 -2 c 1
 5 2 l 1
 5 51 l 2
 5 61 13 67 25 67 c 2
 71 67 l 2
 130 67 155 71 194 144 c 2
 724.22 1152 l 2
 733.475 1169.6 737.813 1184.59 737.813 1197.24 c 0
 737.813 1238.76 691.053 1255 618 1255 c 0
 606.333 1255 602 1261 602 1269 c 2
 602 1320 l 1
 606 1324 l 1
 1059 1324 l 1
 1720 1324 l 1
 1729 1207 1744 1097 1764 994 c 1
 1682 974 l 1
 1653 1080 1602 1230 1465 1230 c 2
 1198 1230 l 2
 1179 1230 1170 1214 1170 1172 c 2
 1170 750 l 1
 1402 750 l 2
 1452 750 1461 812 1472 895 c 0
 1473 904 1485 917 1506 917 c 2
 1549 917 l 1
 1561 897 l 1
 1557 864 1547 781.301 1547 707 c 0
 1547 632.699 1557 550 1561 517 c 1
 1549 497 l 1
 1506 497 l 2
 1485 497 1473 510 1472 519 c 0
 1461 602 1452 664 1402 664 c 2
 1170 664 l 1
 1170 155 l 2
 1170 108 1180 97 1198 97 c 2
 1512 97 l 2
 1624 97 1699 217 1732 368 c 1
 1822 348 l 1
 1800 239 1781 113 1766 2 c 1
 1057.75 2 l 1
EndSplineSet
EndChar

StartChar: uni04D5
Encoding: 1237 1237 111
Width: 1466
VWidth: 2047
Flags: HW
HStem: -25 102<349.086 541.328> -25 116<959.315 1204.78> 818 92<936.595 1137.59> 834 76<328.834 543.058>
VStem: 96 214<118.031 322.06> 119 198<648.623 789.693> 617 214<248.408 429> 1175 214<605.231 787.243>
LayerCount: 2
Fore
SplineSet
1037 818 m 0
 929 818 854 694 835 532 c 1
 1054 547 1175 583 1175 695 c 0
 1175 774 1108 818 1037 818 c 0
589 211 m 0
 599.335 240.886 615 331 617 429 c 1
 422 403 310 320 310 228 c 0
 310 143 370 77 444 77 c 0
 508 77 551.999 104 589 211 c 0
471 910 m 0
 574 910 681 892 753 786 c 1
 815.486 866.339 930.111 910.009 1048.09 910.009 c 0
 1051 910 l 0
 1302 908.472 1389 806 1389 700 c 0
 1389 526.5 1210 452 831 444 c 1
 834 237 949 91 1074 91 c 0
 1160 91 1224 138 1297 224 c 1
 1378 175 l 1
 1319 63 1206 -25 1046 -25 c 0
 879 -25 801 42 720 144 c 1
 657 33 540 -25 414 -25 c 0
 260 -25 96 20 96 182 c 0
 96 367 275 490 617 518 c 1
 617 734 542 834 447 834 c 0
 370 834 317 805 317 759 c 0
 317 718 331 697 331 672 c 0
 331 643 313 588 222 588 c 0
 149 588 119 641 119 694 c 0
 119 817 323 910 471 910 c 0
EndSplineSet
EndChar

StartChar: uni04D6
Encoding: 1238 1238 112
Width: 1153
VWidth: 2047
Flags: HW
HStem: 0 67<54.5 199.221> 0 95<459.356 907.182> 662 86<459 741.537> 1228 94<459.424 863.343> 1255 67<55.75 199.221> 1429 63<460.523 665.14>
VStem: 207 252<96.5802 662 748 1212.95> 306 142<1508.65 1645.48> 674 142<1506.73 1616.09>
LayerCount: 2
Fore
SplineSet
816 1588 m 0
 816 1480 689 1429 559 1429 c 0
 424 1429 306 1478 306 1586 c 0
 306 1631 330 1649 385 1649 c 0
 429 1649 450 1616 450 1585 c 0
 450 1581.8 448 1570.6 448 1569 c 0
 448 1528 495 1492 561 1492 c 0
 623 1492 674 1521 674 1567 c 0
 674 1568.9 672 1582.2 672 1586 c 0
 672 1615 691 1649 737 1649 c 0
 792 1649 816 1628 816 1588 c 0
54.5 0 m 1
 1055 0 l 1
 1070 111 1089 237 1111 346 c 1
 1021 366 l 1
 988 215 913 95 801 95 c 2
 487 95 l 2
 469 95 459 106 459 153 c 2
 459 662 l 1
 691 662 l 2
 741 662 750 600 761 517 c 0
 762 508 774 495 795 495 c 2
 838 495 l 1
 850 515 l 1
 846 548 836 630.699 836 705 c 0
 836 779.301 846 862 850 895 c 1
 838 915 l 1
 795 915 l 2
 774 915 762 902 761 893 c 0
 750 810 741 748 691 748 c 2
 459 748 l 1
 459 1170 l 2
 459 1212 468 1228 487 1228 c 2
 754 1228 l 2
 891 1228 942 1078 971 972 c 1
 1053 992 l 1
 1033 1095 1018 1205 1009 1322 c 1
 55.75 1322 l 1
 49 1318 l 1
 49 1272 l 2
 49 1261 57 1255 66 1255 c 2
 95 1255 l 2
 176 1255 207 1230 207 1165 c 2
 207 157 l 2
 207 92 176 67 95 67 c 2
 66 67 l 2
 57 67 49 61 49 50 c 2
 49 4 l 1
 54.5 0 l 1
EndSplineSet
LCarets2: 1 0 
EndChar

StartChar: uni04D7
Encoding: 1239 1239 113
Width: 945
VWidth: 2047
Flags: HW
HStem: -25 116<449.091 703.008> 482 85<315 647.03> 826 85<438.129 590.813> 1003 62<402.4 577.108>
VStem: 70 235<256.1 557.07 567 628.146> 242 149.117<1080.08 1205.9 1170.27 1241.82> 588.3 149.7<1080.16 1206.22 1170.22 1242.72> 648 235<531.582 732.015>
LayerCount: 2
Fore
SplineSet
738 1182 m 0
 738 1070 618 1003 488 1003 c 0
 354 1003 242 1070 242 1180 c 0
 242 1218 274 1248 321 1248 c 0
 366.373 1248 391.117 1219.72 391.117 1186.85 c 0
 391.117 1181.33 390.418 1175.67 389 1170 c 0
 387.562 1164.25 386.864 1158.42 386.864 1152.63 c 0
 386.864 1108.07 428.057 1065 490 1065 c 0
 548.564 1065 592.168 1106.73 592.168 1152.46 c 0
 592.168 1158.27 591.464 1164.14 590 1170 c 0
 588.846 1174.62 588.3 1179.19 588.3 1183.66 c 0
 588.3 1218.71 621.758 1248 659 1248 c 0
 708 1248 738 1222 738 1182 c 0
315 567 m 1
 643 567 l 1
 646.5 570.5 648 574 648 586 c 0
 648 769 562 826 508 826 c 0
 471 826 348 804 315 567 c 1
814 225 m 1
 877 172 l 1
 798 63 677 -25 510 -25 c 0
 199 -25 70 187 70 411 c 0
 70 724 295 911 510 911 c 0
 811 911 883 699 883 524 c 0
 883 496 851 482 802 482 c 2
 306 482 l 1
 305 472 305 463 305 449 c 0
 305 247 434 91 558 91 c 0
 647 91 728 130 814 225 c 1
EndSplineSet
LCarets2: 1 0 
EndChar

StartChar: uni04D8
Encoding: 1240 1240 114
Width: 1419
VWidth: 2047
Flags: HW
HStem: -25 85<553.131 857.992> 437 105<334 1071> 1263 85<487.343 817.422>
VStem: 1094 270<542 897.246>
LayerCount: 2
Fore
SplineSet
1071 437 m 1
 334 437 l 1
 399 185 545 60 716 60 c 0
 900 60 1033 242 1071 437 c 1
236 1030 m 1
 154 1117 l 1
 320 1270 442 1348 689 1348 c 0
 1156 1348 1364 994 1364 669 c 0
 1364 269 1121 -25 702 -25 c 0
 281 -25 106 246 81 542 c 1
 1092 542 l 1
 1093 561 1094 587 1094 609 c 0
 1094 981 906 1263 659 1263 c 0
 495 1263 360 1149 236 1030 c 1
EndSplineSet
EndChar

StartChar: afii10846
Encoding: 1241 1241 115
Width: 945
VWidth: 2047
Flags: HW
HStem: -25 85<354.187 506.871> 319 85<297.97 630> 795 116<241.992 495.909>
VStem: 62 235<153.985 354.418> 640 235<257.854 319 328.93 629.9>
LayerCount: 2
Fore
SplineSet
630 319 m 1
 302 319 l 1
 298.5 315.5 297 312 297 300 c 0
 297 117 383 60 437 60 c 0
 474 60 597 82 630 319 c 1
131 661 m 1
 68 714 l 1
 147 823 268 911 435 911 c 0
 746 911 875 699 875 475 c 0
 875 162 650 -25 435 -25 c 0
 134 -25 62 187 62 362 c 0
 62 390 94 404 143 404 c 2
 639 404 l 1
 640 414 640 423 640 437 c 0
 640 639 511 795 387 795 c 0
 298 795 217 756 131 661 c 1
EndSplineSet
EndChar

StartChar: uni04DA
Encoding: 1242 1242 116
Width: 1419
VWidth: 2047
Flags: HW
HStem: -25 85<553.131 857.992> 437 105<334 1071> 1263 85<487.343 817.422> 1423 220<386.435 563.22 772.78 949.565>
VStem: 364 221<1446.69 1619.31> 751 221<1446.69 1619.31> 1094 270<542 897.246>
LayerCount: 2
Fore
SplineSet
751 1533 m 0
 751 1593 800 1643 861 1643 c 0
 921 1643 972 1593 972 1533 c 0
 972 1473 921 1423 861 1423 c 0
 800 1423 751 1473 751 1533 c 0
364 1533 m 0
 364 1593 415 1643 475 1643 c 0
 536 1643 585 1593 585 1533 c 0
 585 1473 536 1423 475 1423 c 0
 415 1423 364 1473 364 1533 c 0
1071 437 m 1
 334 437 l 1
 399 185 545 60 716 60 c 0
 900 60 1033 242 1071 437 c 1
236 1030 m 1
 154 1117 l 1
 320 1270 442 1348 689 1348 c 0
 1156 1348 1364 994 1364 669 c 0
 1364 269 1121 -25 702 -25 c 0
 281 -25 106 246 81 542 c 1
 1092 542 l 1
 1093 561 1094 587 1094 609 c 0
 1094 981 906 1263 659 1263 c 0
 495 1263 360 1149 236 1030 c 1
EndSplineSet
LCarets2: 1 0 
EndChar

StartChar: uni04DB
Encoding: 1243 1243 117
Width: 945
VWidth: 2047
Flags: HW
HStem: -25 85<354.187 506.871> 319 85<297.97 630> 795 116<241.992 495.909> 1059 220<164.435 341.22 535.78 712.565>
VStem: 62 235<153.985 354.418> 142 221<1082.69 1255.31> 514 221<1082.69 1255.31> 640 235<257.854 319 328.93 629.9>
LayerCount: 2
Fore
SplineSet
514 1169 m 0
 514 1229 563 1279 624 1279 c 0
 684 1279 735 1229 735 1169 c 0
 735 1109 684 1059 624 1059 c 0
 563 1059 514 1109 514 1169 c 0
142 1169 m 0
 142 1229 193 1279 253 1279 c 0
 314 1279 363 1229 363 1169 c 0
 363 1109 314 1059 253 1059 c 0
 193 1059 142 1109 142 1169 c 0
630 319 m 1
 302 319 l 1
 298.5 315.5 297 312 297 300 c 0
 297 117 383 60 437 60 c 0
 474 60 597 82 630 319 c 1
131 661 m 1
 68 714 l 1
 147 823 268 911 435 911 c 0
 746 911 875 699 875 475 c 0
 875 162 650 -25 435 -25 c 0
 134 -25 62 187 62 362 c 0
 62 390 94 404 143 404 c 2
 639 404 l 1
 640 414 640 423 640 437 c 0
 640 639 511 795 387 795 c 0
 298 795 217 756 131 661 c 1
EndSplineSet
LCarets2: 1 0 
EndChar

StartChar: uni04E0
Encoding: 1248 1248 118
Width: 1296
VWidth: 2047
Flags: HW
HStem: -427 100<489.857 757.755> 1228 95<319.51 345 345 890>
VStem: 116 116<960.087 1056.04 1056.04 1163.46> 950 270<-92.5086 313.833>
DStem2: 488 498 816 592 0.482379 0.875962<240.561 833.369>
LayerCount: 2
Fore
SplineSet
1090 1323 m 2
 345 1323 l 2
 328 1323 291 1336 254 1349 c 0
 235 1356 237 1363 161 1380 c 1
 116 960 l 1
 232 950 l 1
 240 1042 290 1226 406 1228 c 2
 890 1228 l 1
 488 498 l 1
 577 516 597 516 623 516 c 0
 747 516 950 409 950 93 c 0
 950 -145 778 -327 621 -327 c 0
 539 -327 443 -264 382 -180 c 0
 353 -137 280 -106 207 -106 c 0
 104 -106 71 -164 71 -216 c 0
 71 -353 405 -427 583 -427 c 0
 975 -427 1220 -174 1220 111 c 0
 1220 330 1093 526 816 592 c 1
 1151 1201 l 2
 1169.77 1235.13 1191 1274 1191 1288 c 0
 1191 1309 1164 1323 1090 1323 c 2
EndSplineSet
EndChar

StartChar: uni04E1
Encoding: 1249 1249 119
Width: 923
VWidth: 2047
Flags: HW
HStem: -464 74<325.794 523.588> 791 95<309 551>
VStem: 647 240<-230.849 102.529>
DStem2: 226 201 520 319 0.482489 0.875902<245.208 673.591>
LayerCount: 2
Fore
SplineSet
252 901 m 0
 252 891 250 887 248 886 c 1
 713 886 l 2
 783 886 806 876 806 852 c 0
 806 846 796 823 781 790 c 2
 520 319 l 1
 754 283 887 142 887 -61 c 0
 887 -260 716 -464 396 -464 c 0
 185 -464 42 -380 42 -310 c 0
 42 -274 69 -240 146 -240 c 0
 215 -240 261 -254 288 -301 c 0
 313.208 -344.881 358 -390 414 -390 c 0
 499 -390 647 -296 647 -63 c 0
 647 104 532 229 398 229 c 0
 367 229 310 220 226 201 c 1
 551 791 l 1
 309 791 l 2
 270 791 231 764 191 588 c 1
 82 601 l 1
 150 929 l 1
 253 914 l 1
 252 909 252 904 252 901 c 0
EndSplineSet
EndChar

StartChar: uni04E6
Encoding: 1254 1254 120
Width: 1496
VWidth: 2047
Flags: HW
HStem: -25 85<612.395 933.325> 1263 85<570.265 893.215> 1423 220<429.935 606.72 816.28 993.065>
VStem: 75 270<389.254 898.589> 407.5 221<1446.69 1619.31> 794.5 221<1446.69 1619.31> 1151 270<407.865 921.418>
LayerCount: 2
Fore
SplineSet
794.5 1533 m 0
 794.5 1593 843.5 1643 904.5 1643 c 0
 964.5 1643 1015.5 1593 1015.5 1533 c 0
 1015.5 1473 964.5 1423 904.5 1423 c 0
 843.5 1423 794.5 1473 794.5 1533 c 0
407.5 1533 m 0
 407.5 1593 458.5 1643 518.5 1643 c 0
 579.5 1643 628.5 1593 628.5 1533 c 0
 628.5 1473 579.5 1423 518.5 1423 c 0
 458.5 1423 407.5 1473 407.5 1533 c 0
718 1263 m 0
 544 1263 345 1090 345 671 c 0
 345 286 544 60 786 60 c 0
 993 60 1151 278 1151 635 c 0
 1151 1051 951 1263 718 1263 c 0
1421 674 m 0
 1421 264 1159 -25 746 -25 c 0
 372 -25 75 232 75 636 c 0
 75 1038 355 1348 744 1348 c 0
 1105 1348 1421 1081 1421 674 c 0
EndSplineSet
LCarets2: 1 0 
EndChar

StartChar: uni04E7
Encoding: 1255 1255 121
Width: 1063
VWidth: 2047
Flags: HW
HStem: -25 88<458.32 667.253> 828 83<414.587 622.059> 1062 220<251.435 428.22 622.78 799.565>
VStem: 70 250<242.785 651.341> 229 221<1085.69 1258.31> 601 221<1085.69 1258.31> 746 247<242.375 656.321>
LayerCount: 2
Fore
SplineSet
512 828 m 0
 381 828 320 643 320 470 c 0
 320 317 395 63 564 63 c 0
 637 63 746 117 746 377 c 0
 746 669 651 828 512 828 c 0
70 423 m 0
 70 705 236 911 533 911 c 0
 866 911 993 657 993 442 c 0
 993 235 847 -25 530 -25 c 0
 229 -25 70 212 70 423 c 0
601 1172 m 0
 601 1232 650 1282 711 1282 c 0
 771 1282 822 1232 822 1172 c 0
 822 1112 771 1062 711 1062 c 0
 650 1062 601 1112 601 1172 c 0
229 1172 m 0
 229 1232 280 1282 340 1282 c 0
 401 1282 450 1232 450 1172 c 0
 450 1112 401 1062 340 1062 c 0
 280 1062 229 1112 229 1172 c 0
EndSplineSet
LCarets2: 1 0 
EndChar

StartChar: uni04E8
Encoding: 1256 1256 122
Width: 1496
VWidth: 2047
Flags: HW
HStem: -25 85<612.395 933.325> 543.623 118.377<777.071 1084.09> 637.81 118.531<346.69 689.311> 1263 85<570.265 893.215>
VStem: 75 270<389.254 898.589> 1151 270<407.865 921.418>
LayerCount: 2
Fore
SplineSet
1421 674 m 0
 1421 264 1159 -25 746 -25 c 0
 372 -25 75 232 75 636 c 0
 75 1038 355 1348 744 1348 c 0
 1105 1348 1421 1081 1421 674 c 0
1147.87 722.753 m 1
 1121.65 1080.79 934.008 1263 718 1263 c 0
 549.706 1263 358.024 1101.16 345.634 711.427 c 1
 415.702 742.238 494.49 756.341 547.753 756.341 c 0
 750 756.341 810 662 940 662 c 0
 999.174 662 1082.52 683.295 1147.87 722.753 c 1
1151 631.861 m 1
 1069.08 564.777 975.996 543.623 903.76 543.623 c 0
 714 543.623 666 637.81 511.479 637.81 c 0
 470.203 637.81 405.725 633.504 346.41 615.651 c 1
 364.572 264.431 555.838 60 786 60 c 0
 992.393 60 1150.07 276.723 1151 631.861 c 1
EndSplineSet
EndChar

StartChar: uni04E9
Encoding: 1257 1257 123
Width: 1063
VWidth: 2047
Flags: HW
HStem: -25 88<458.32 667.253> 360 111<460.352 715.475> 423 93<302.402 503.027> 828 83<414.587 622.059>
VStem: 70 250<242.785 651.341> 746 247<242.375 656.321>
AnchorPoint: "unten_punkt" 504 -219 basechar 0
AnchorPoint: "top_punkt" 500.733 1126 basechar 0
AnchorPoint: "top_akzent" 484 1320 basechar 0
LayerCount: 2
Fore
SplineSet
70 423 m 0
 70 705 236 911 533 911 c 0
 866 911 993 657 993 442 c 0
 993 235 847 -25 530 -25 c 0
 229 -25 70 212 70 423 c 0
740.771 489.565 m 1
 719.116 709.621 631.937 828 512 828 c 0
 383.641 828 322.488 650.383 320.074 480.475 c 1
 362.799 500.199 424.113 516 471 516 c 0
 553 516 593 471 664 471 c 0
 691.375 471 717.858 479.47 740.771 489.565 c 1
745.151 423.844 m 1
 703.098 394.517 639.885 360 583 360 c 0
 503 360 441 423 376 423 c 0
 364.285 423 342.647 418.18 323.012 413.673 c 1
 338.518 261.874 414.46 63 564 63 c 0
 637 63 746 117 746 377 c 0
 746 393.016 745.714 408.632 745.151 423.844 c 1
EndSplineSet
EndChar

StartChar: uni04EA
Encoding: 1258 1258 124
Width: 1496
VWidth: 2047
Flags: HW
HStem: -25 85<612.395 933.325> 543.623 118.377<777.071 1084.09> 637.81 118.531<346.69 689.311> 1263 85<570.265 893.215> 1426.5 220<462.935 639.72 849.28 1026.06>
VStem: 75 270<389.254 898.589> 440.5 221<1450.19 1622.81> 827.5 221<1450.19 1622.81> 1151 270<407.865 921.418>
LayerCount: 2
Fore
SplineSet
827.5 1536.5 m 0
 827.5 1596.5 876.5 1646.5 937.5 1646.5 c 0
 997.5 1646.5 1048.5 1596.5 1048.5 1536.5 c 0
 1048.5 1476.5 997.5 1426.5 937.5 1426.5 c 0
 876.5 1426.5 827.5 1476.5 827.5 1536.5 c 0
440.5 1536.5 m 0
 440.5 1596.5 491.5 1646.5 551.5 1646.5 c 0
 612.5 1646.5 661.5 1596.5 661.5 1536.5 c 0
 661.5 1476.5 612.5 1426.5 551.5 1426.5 c 0
 491.5 1426.5 440.5 1476.5 440.5 1536.5 c 0
1421 674 m 0
 1421 264 1159 -25 746 -25 c 0
 372 -25 75 232 75 636 c 0
 75 1038 355 1348 744 1348 c 0
 1105 1348 1421 1081 1421 674 c 0
1147.87 722.753 m 1
 1121.65 1080.79 934.008 1263 718 1263 c 0
 549.706 1263 358.024 1101.16 345.634 711.427 c 1
 415.702 742.238 494.49 756.341 547.753 756.341 c 0
 750 756.341 810 662 940 662 c 0
 999.174 662 1082.52 683.295 1147.87 722.753 c 1
1151 631.861 m 1
 1069.08 564.777 975.996 543.623 903.76 543.623 c 0
 714 543.623 666 637.81 511.479 637.81 c 0
 470.203 637.81 405.725 633.504 346.41 615.651 c 1
 364.572 264.431 555.838 60 786 60 c 0
 992.393 60 1150.07 276.723 1151 631.861 c 1
EndSplineSet
LCarets2: 1 0 
EndChar

StartChar: uni04EB
Encoding: 1259 1259 125
Width: 1063
VWidth: 2047
Flags: HW
HStem: -25 88<458.32 667.253> 360 111<460.352 715.475> 423 93<302.402 503.027> 828 83<414.587 622.059> 1059 220<256.435 433.22 627.78 804.565>
VStem: 70 250<242.785 651.341> 234 221<1082.69 1255.31> 606 221<1082.69 1255.31> 746 247<242.375 656.321>
LayerCount: 2
Fore
SplineSet
70 423 m 0
 70 705 236 911 533 911 c 0
 866 911 993 657 993 442 c 0
 993 235 847 -25 530 -25 c 0
 229 -25 70 212 70 423 c 0
606 1169 m 0
 606 1229 655 1279 716 1279 c 0
 776 1279 827 1229 827 1169 c 0
 827 1109 776 1059 716 1059 c 0
 655 1059 606 1109 606 1169 c 0
234 1169 m 0
 234 1229 285 1279 345 1279 c 0
 406 1279 455 1229 455 1169 c 0
 455 1109 406 1059 345 1059 c 0
 285 1059 234 1109 234 1169 c 0
740.771 489.565 m 1
 719.116 709.621 631.937 828 512 828 c 0
 383.641 828 322.488 650.383 320.074 480.475 c 1
 362.799 500.199 424.113 516 471 516 c 0
 553 516 593 471 664 471 c 0
 691.375 471 717.858 479.47 740.771 489.565 c 1
745.151 423.844 m 1
 703.098 394.517 639.885 360 583 360 c 0
 503 360 441 423 376 423 c 0
 364.285 423 342.647 418.18 323.012 413.673 c 1
 338.518 261.874 414.46 63 564 63 c 0
 637 63 746 117 746 377 c 0
 746 393.016 745.714 408.632 745.151 423.844 c 1
EndSplineSet
LCarets2: 1 0 
EndChar

StartChar: uni04EF
Encoding: 1263 1263 126
Width: 1093
VWidth: 2047
Flags: HW
HStem: -435 126<217.2 370.346> 823 65<26 98.759 98.759 87.3507 87.3507 143.188 398.609 492 692.262 792.046 937.676 1054.76> 1099 98<270 293 293 881.812>
LayerCount: 2
Fore
SplineSet
885 699 m 2
 545 -145 l 2
 475.738 -316.667 390.4 -435 238.4 -435 c 0
 196 -435 93 -409 93 -330 c 0
 93 -264 149 -231 204 -231 c 0
 236 -231 272 -258 284 -276 c 0
 296 -294 308 -309 321 -309 c 0
 336 -309 381.704 -282.657 441 -124 c 2
 478 -25 l 1
 188 689 l 2
 147.144 789.591 122.5 823 41 823 c 0
 29.667 823 20 828 20 837 c 2
 20 888.25 l 1
 26 892 l 1
 26 892 158.355 888 243 888 c 0
 340.122 888 492 892 492 892 c 1
 500 888 l 1
 500 839 l 2
 500 826 488 823 483 823 c 0
 423.094 823 398.504 807.698 398.504 775.149 c 0
 398.504 763.144 401.849 748.794 408 732 c 2
 597 216 l 1
 668 384 749.083 607.653 787 728 c 0
 791.375 741.886 793.416 753.926 793.416 764.321 c 0
 793.416 808.573 756.421 823 705 823 c 0
 694.95 823 689 831 689 838 c 2
 689 887.75 l 1
 697 892 l 1
 697 892 836.066 888 925 888 c 0
 976.114 888 1056 892 1056 892 c 1
 1061 888 l 1
 1061 842 l 2
 1061 832 1051 823 1038 823 c 0
 979.5 823 919.069 783.57 885 699 c 2
834 1099 m 2
 293 1099 l 2
 274 1099 266 1117 266 1132 c 0
 266 1158 289 1197 315 1197 c 2
 856 1197 l 2
 877 1197 886 1179 886 1164 c 0
 886 1138 862 1099 834 1099 c 2
EndSplineSet
LCarets2: 1 0 
EndChar

StartChar: uni04F1
Encoding: 1265 1265 127
Width: 1093
VWidth: 2047
Flags: HW
HStem: -435 126<217.2 370.346> 823 65<26 98.759 98.759 87.3507 87.3507 143.188 398.609 492 692.262 792.046 937.676 1054.76> 1059 220<322.935 499.72 694.28 871.065>
VStem: 300.5 221<1082.69 1255.31> 672.5 221<1082.69 1255.31>
LayerCount: 2
Fore
SplineSet
885 699 m 2
 545 -145 l 2
 475.738 -316.667 390.4 -435 238.4 -435 c 0
 196 -435 93 -409 93 -330 c 0
 93 -264 149 -231 204 -231 c 0
 236 -231 272 -258 284 -276 c 0
 296 -294 308 -309 321 -309 c 0
 336 -309 381.704 -282.657 441 -124 c 2
 478 -25 l 1
 188 689 l 2
 147.144 789.591 122.5 823 41 823 c 0
 29.667 823 20 828 20 837 c 2
 20 888.25 l 1
 26 892 l 1
 26 892 158.355 888 243 888 c 0
 340.122 888 492 892 492 892 c 1
 500 888 l 1
 500 839 l 2
 500 826 488 823 483 823 c 0
 423.094 823 398.504 807.698 398.504 775.149 c 0
 398.504 763.144 401.849 748.794 408 732 c 2
 597 216 l 1
 668 384 749.083 607.653 787 728 c 0
 791.375 741.886 793.416 753.926 793.416 764.321 c 0
 793.416 808.573 756.421 823 705 823 c 0
 694.95 823 689 831 689 838 c 2
 689 887.75 l 1
 697 892 l 1
 697 892 836.066 888 925 888 c 0
 976.114 888 1056 892 1056 892 c 1
 1061 888 l 1
 1061 842 l 2
 1061 832 1051 823 1038 823 c 0
 979.5 823 919.069 783.57 885 699 c 2
672.5 1169 m 0
 672.5 1229 721.5 1279 782.5 1279 c 0
 842.5 1279 893.5 1229 893.5 1169 c 0
 893.5 1109 842.5 1059 782.5 1059 c 0
 721.5 1059 672.5 1109 672.5 1169 c 0
300.5 1169 m 0
 300.5 1229 351.5 1279 411.5 1279 c 0
 472.5 1279 521.5 1229 521.5 1169 c 0
 521.5 1109 472.5 1059 411.5 1059 c 0
 351.5 1059 300.5 1109 300.5 1169 c 0
EndSplineSet
LCarets2: 1 0 
EndChar

StartChar: uni04F3
Encoding: 1267 1267 128
Width: 1093
VWidth: 2047
Flags: HW
HStem: -435 126<240.281 370.346> 823 69<26 83.8552 83.8552 143.188 398.609 445.539 445.539 492 697 743.965 743.965 792.046 937.676 1055.77 1055.77 1055.84>
LayerCount: 2
Fore
SplineSet
885 699 m 2
 545 -145 l 2
 475.738 -316.667 390.4 -435 238.4 -435 c 0
 196 -435 93 -409 93 -330 c 0
 93 -264 149 -231 204 -231 c 0
 236 -231 272 -258 284 -276 c 0
 296 -294 308 -309 321 -309 c 0
 336 -309 381.704 -282.657 441 -124 c 2
 478 -25 l 1
 188 689 l 2
 147.144 789.591 122.5 823 41 823 c 0
 29.667 823 20 828 20 837 c 2
 20 888.25 l 1
 26 892 l 1
 26 892 158.355 888 243 888 c 0
 340.122 888 492 892 492 892 c 1
 500 888 l 1
 500 839 l 2
 500 826 488 823 483 823 c 0
 423.094 823 398.504 807.698 398.504 775.149 c 0
 398.504 763.144 401.849 748.794 408 732 c 2
 597 216 l 1
 668 384 749.083 607.653 787 728 c 0
 791.375 741.886 793.416 753.926 793.416 764.321 c 0
 793.416 808.573 756.421 823 705 823 c 0
 694.95 823 689 831 689 838 c 2
 689 887.75 l 1
 697 892 l 1
 697 892 836.066 888 925 888 c 0
 976.114 888 1056 892 1056 892 c 1
 1061 888 l 1
 1061 842 l 2
 1061 832 1051 823 1038 823 c 0
 979.5 823 919.069 783.57 885 699 c 2
943 1316 m 0
 961 1302 971 1280 971 1259 c 0
 971 1253.55 972.033 1246.44 972.033 1239.18 c 0
 972.033 1230.47 970.545 1221.55 964 1215 c 2
 730 991 l 1
 727 986 715 990 711 990 c 0
 701 990 682 1001 682 1018 c 0
 682 1020 677 1026 679 1028 c 1
 839 1312 l 2
 849.107 1329.94 869 1334 893 1334 c 0
 911 1334 928 1328 943 1316 c 0
667 1332 m 0
 688 1319 701 1296 701 1271 c 0
 701 1265.29 702.959 1258.59 702.959 1252.04 c 0
 702.959 1247.12 701.857 1242.29 698 1238 c 2
 489 990 l 2
 485 986 471 985 466 985 c 0
 454 985 437 995 437 1011 c 0
 437 1014 429 1017 430 1019 c 2
 561 1318 l 2
 573 1345 614 1346 623 1346 c 0
 639 1346 652 1341 667 1332 c 0
EndSplineSet
LCarets2: 1 0 
EndChar

StartChar: uni1E00
Encoding: 7680 7680 129
Width: 1432
VWidth: 2047
Flags: HW
HStem: -441 64<631.414 792.678> -165 64<631.829 792.999> -2 69<21 76.3451 76.3451 133.987 290.77 432.863 432.863 433 847 847.162 847.162 991.552 1267.82 1417.36 1417.36 1417.5> 494 95<478.616 825> 1327 20<714.667 747.5>
VStem: 537 74<-356.77 -183.51> 813 74<-357.87 -184.57>
DStem2: 182 187 303 162 0.383838 0.9234<23.3594 980.105> 817 1284 654.5 1052 0.352804 -0.935697<159.751 1121.41>
LayerCount: 2
Fore
SplineSet
712 -165 m 0
 654 -165 611 -215 611 -271 c 0
 611 -324 653 -377 712 -377 c 0
 771 -377 813 -324 813 -271 c 0
 813 -213 768 -165 712 -165 c 0
537 -271 m 0
 537 -178 615 -101 711 -101 c 0
 805 -101 887 -176 887 -271 c 0
 887 -363 809 -441 711 -441 c 0
 617 -441 537 -366 537 -271 c 0
518 589 m 2
 825 589 l 1
 654.5 1052 l 1
 479 614 l 1
 479 596.286 481.143 589 518 589 c 2
303 162 m 2
 295.851 143.546 290.729 127.358 290.729 113.818 c 0
 290.729 83.9754 315.609 67 398.5 67 c 0
 431.5 67 442 63 442 47 c 2
 442 6 l 1
 433 -2 l 1
 433 -2 244 2 195 2 c 0
 143 2 21 -2 21 -2 c 1
 5 4.5 l 1
 5 47 l 2
 5 67 20 67 46 67 c 0
 85.5 67 146.964 102.713 182 187 c 2
 638 1284 l 2
 658.747 1332.63 703.333 1347 726 1347 c 0
 769 1347 800.607 1327.47 817 1284 c 2
 1231 186 l 2
 1260 110 1289 67 1340 67 c 2
 1397.5 67 l 2
 1426.5 67 1427 63 1427 47 c 2
 1427 5.5 l 1
 1417.5 -2 l 1
 1417.5 -2 1221 2 1142 2 c 0
 1070 2 847 -2 847 -2 c 1
 832 8 l 1
 832 47 l 2
 832 63 847 67 885 67 c 2
 941 67 l 2
 975 67 992 91 992 120 c 0
 992 132 991 143 988 150 c 2
 860 494 l 1
 483 494 l 2
 442 494 431.291 490.85 420 464 c 2
 303 162 l 2
EndSplineSet
LCarets2: 1 0 
EndChar

StartChar: uni1E01
Encoding: 7681 7681 130
Width: 1009
VWidth: 2047
Flags: HW
HStem: -443 64<402.414 563.678> -167 64<402.829 563.999> -25 92<335.649 517.457> -25 116<753.905 897.99> 834 77<325.24 537.738>
VStem: 80 214<106.175 353.609> 114 212<604.207 789.453> 308 74<-358.77 -185.51> 584 74<-359.87 -186.57> 590 225<149.867 480 572 759.602>
DStem2: 438 528 468 444.764 0.960564 0.278058<5.67249 132.659>
LayerCount: 2
Fore
SplineSet
483 -167 m 0
 425 -167 382 -217 382 -273 c 0
 382 -326 424 -379 483 -379 c 0
 542 -379 584 -326 584 -273 c 0
 584 -215 539 -167 483 -167 c 0
308 -273 m 0
 308 -180 386 -103 482 -103 c 0
 576 -103 658 -178 658 -273 c 0
 658 -365 580 -443 482 -443 c 0
 388 -443 308 -368 308 -273 c 0
775 -25 m 0
 687 -25 638 8 602 77 c 1
 518 11 441 -25 370 -25 c 0
 192 -25 80 73 80 216 c 0
 80 377 224.452 473.208 438 528 c 2
 590 572 l 1
 588 786 510 834 460 834 c 0
 383 834 312 805 312 759 c 0
 312 718 326 697 326 672 c 0
 326 643 308 588 217 588 c 0
 144 588 114 641 114 694 c 0
 114 817 318 911 466 911 c 0
 635 911 815 849 815 554 c 2
 815 256 l 2
 815 138 821 91 851 91 c 0
 895 91 910 162 916 219 c 1
 993 205 l 1
 966 12 877 -25 775 -25 c 0
590 149.867 m 1
 590 480 l 1
 468 444.764 l 2
 325.356 398.889 294 309.114 294 225 c 0
 294 170 328 67 426 67 c 0
 463.853 67 538.821 108.924 590 149.867 c 1
EndSplineSet
LCarets2: 1 0 
EndChar

StartChar: uni1E02
Encoding: 7682 7682 131
Width: 1271
VWidth: 2047
Flags: HW
HStem: 0 67<50.9841 200.078> 0 82<459.335 770.721> 685 85<453 737.456> 1251 71<50 200.701 463.974 721.205> 1396 246<509.658 698.342>
VStem: 203 250<93.3853 685 770 1227.93> 482 244<1424.06 1613.94> 826 245<870.067 1160.76> 921 260<218.552 549.73>
LayerCount: 2
Fore
SplineSet
482 1519 m 0
 482 1587 536 1642 604 1642 c 0
 672 1642 726 1587 726 1519 c 0
 726 1451 672 1396 604 1396 c 0
 536 1396 482 1451 482 1519 c 0
453 1151 m 2
 453 770 l 1
 568 770 l 2
 712 770 826 837 826 1002 c 0
 826 1203 690 1238 595 1238 c 0
 462 1238 453 1210 453 1151 c 2
453 685 m 1
 453 173 l 2
 453 113 464 82 588 82 c 0
 859 82 921 261 921 383 c 0
 921 560 809 685 599 685 c 2
 453 685 l 1
45 44 m 2
 45 58 51.5 67 81 67 c 2
 142 67 l 2
 189 67 203 87 203 152 c 2
 203 1171 l 2
 203 1233 191 1251 142 1251 c 2
 73.3359 1251 l 2
 50.333 1251 45 1260 45 1273 c 2
 45 1318 l 1
 50 1322 l 1
 581 1322 l 2
 996 1322 1071 1146 1071 1006 c 0
 1071 901.869 985 788 875 739.163 c 1
 875 736 l 1
 1092 677 1181 540 1181 360 c 0
 1181 183 1047 0 626 0 c 2
 48 0 l 1
 45 2.33301 l 1
 45 44 l 2
EndSplineSet
LCarets2: 1 0 
EndChar

StartChar: uni1E03
Encoding: 7683 7683 132
Width: 1018
VWidth: 2047
Flags: HW
HStem: -25 85<393.382 582.573> 807 104<444.971 611.881> 1047 246<472.658 661.342> 1272 74<-11 86.5425> 1409 20<236.5 360>
VStem: 135 225<110 736 843 1265.72> 445 244<1075.06 1264.94> 707 235<267.854 686.452>
LayerCount: 2
Fore
SplineSet
445 1170 m 0
 445 1238 499 1293 567 1293 c 0
 635 1293 689 1238 689 1170 c 0
 689 1102 635 1047 567 1047 c 0
 499 1047 445 1102 445 1170 c 0
360 110 m 1
 395 72 425 60 462 60 c 0
 624 60 707 234 707 460 c 0
 707 662 623 807 522 807 c 0
 507 807 434 803 360 736 c 1
 360 110 l 1
135 1168 m 2
 135 1220.29 113.687 1277 43.3406 1277 c 0
 31.6288 1277 18.5579 1275.43 4 1272 c 1
 -11 1346 l 1
 137 1378 193 1394 280 1429 c 1
 360 1429 l 1
 360 843 l 1
 420 887 485 911 564 911 c 0
 763 911 942 739 942 487 c 0
 942 159 701 -25 473 -25 c 0
 382 -25 307 21 259 77 c 1
 196 -26 l 1
 128 -14 l 1
 134 34 135 73 135 152 c 2
 135 1168 l 2
EndSplineSet
LCarets2: 1 0 
EndChar

StartChar: uni1E04
Encoding: 7684 7684 133
Width: 1271
VWidth: 2047
Flags: HW
HStem: -358 246<483.658 672.342> 0 67<50.9841 200.078> 0 82<459.335 770.721> 685 85<453 737.456> 1251 71<50 200.701 463.974 721.205>
VStem: 203 250<93.3853 685 770 1227.93> 456 244<-329.94 -140.06> 826 245<870.067 1160.76> 921 260<218.552 549.73>
LayerCount: 2
Fore
SplineSet
456 -235 m 0
 456 -167 510 -112 578 -112 c 0
 646 -112 700 -167 700 -235 c 0
 700 -303 646 -358 578 -358 c 0
 510 -358 456 -303 456 -235 c 0
453 1151 m 2
 453 770 l 1
 568 770 l 2
 712 770 826 837 826 1002 c 0
 826 1203 690 1238 595 1238 c 0
 462 1238 453 1210 453 1151 c 2
453 685 m 1
 453 173 l 2
 453 113 464 82 588 82 c 0
 859 82 921 261 921 383 c 0
 921 560 809 685 599 685 c 2
 453 685 l 1
45 44 m 2
 45 58 51.5 67 81 67 c 2
 142 67 l 2
 189 67 203 87 203 152 c 2
 203 1171 l 2
 203 1233 191 1251 142 1251 c 2
 73.3359 1251 l 2
 50.333 1251 45 1260 45 1273 c 2
 45 1318 l 1
 50 1322 l 1
 581 1322 l 2
 996 1322 1071 1146 1071 1006 c 0
 1071 901.869 985 788 875 739.163 c 1
 875 736 l 1
 1092 677 1181 540 1181 360 c 0
 1181 183 1047 0 626 0 c 2
 48 0 l 1
 45 2.33301 l 1
 45 44 l 2
EndSplineSet
LCarets2: 1 0 
EndChar

StartChar: uni1E05
Encoding: 7685 7685 134
Width: 1018
VWidth: 2047
Flags: HW
HStem: -358 246<391.658 580.342> -25 85<393.382 582.573> 807 104<444.971 611.881> 1272 74<-11 86.5425> 1409 20<236.5 360>
VStem: 135 225<110 736 843 1265.72> 364 244<-329.94 -140.06> 707 235<267.854 686.452>
LayerCount: 2
Fore
SplineSet
364 -235 m 0
 364 -167 418 -112 486 -112 c 0
 554 -112 608 -167 608 -235 c 0
 608 -303 554 -358 486 -358 c 0
 418 -358 364 -303 364 -235 c 0
360 110 m 1
 395 72 425 60 462 60 c 0
 624 60 707 234 707 460 c 0
 707 662 623 807 522 807 c 0
 507 807 434 803 360 736 c 1
 360 110 l 1
135 1168 m 2
 135 1220.29 113.687 1277 43.3406 1277 c 0
 31.6288 1277 18.5579 1275.43 4 1272 c 1
 -11 1346 l 1
 137 1378 193 1394 280 1429 c 1
 360 1429 l 1
 360 843 l 1
 420 887 485 911 564 911 c 0
 763 911 942 739 942 487 c 0
 942 159 701 -25 473 -25 c 0
 382 -25 307 21 259 77 c 1
 196 -26 l 1
 128 -14 l 1
 134 34 135 73 135 152 c 2
 135 1168 l 2
EndSplineSet
LCarets2: 1 0 
EndChar

StartChar: uni1E06
Encoding: 7686 7686 135
Width: 1271
VWidth: 2047
Flags: HW
HStem: -217 90<280.448 303 303 849.428> 0 67<50.9841 200.078> 0 82<459.335 770.721> 685 85<453 737.456> 1251 71<50 200.701 463.974 721.205>
VStem: 203 250<93.3853 685 770 1227.93> 826 245<870.067 1160.76> 921 260<218.552 549.73>
LayerCount: 2
Fore
SplineSet
804 -217 m 2
 303 -217 l 2
 285 -217 278 -201 278 -187 c 0
 278 -163 299 -127 323 -127 c 2
 824 -127 l 2
 844 -127 852 -143 852 -157 c 0
 852 -181 830 -217 804 -217 c 2
453 1151 m 2
 453 770 l 1
 568 770 l 2
 712 770 826 837 826 1002 c 0
 826 1203 690 1238 595 1238 c 0
 462 1238 453 1210 453 1151 c 2
453 685 m 1
 453 173 l 2
 453 113 464 82 588 82 c 0
 859 82 921 261 921 383 c 0
 921 560 809 685 599 685 c 2
 453 685 l 1
45 44 m 2
 45 58 51.5 67 81 67 c 2
 142 67 l 2
 189 67 203 87 203 152 c 2
 203 1171 l 2
 203 1233 191 1251 142 1251 c 2
 73.3359 1251 l 2
 50.333 1251 45 1260 45 1273 c 2
 45 1318 l 1
 50 1322 l 1
 581 1322 l 2
 996 1322 1071 1146 1071 1006 c 0
 1071 901.869 985 788 875 739.163 c 1
 875 736 l 1
 1092 677 1181 540 1181 360 c 0
 1181 183 1047 0 626 0 c 2
 48 0 l 1
 45 2.33301 l 1
 45 44 l 2
EndSplineSet
LCarets2: 1 0 
EndChar

StartChar: uni1E07
Encoding: 7687 7687 136
Width: 1018
VWidth: 2047
Flags: HW
HStem: -224 90<219.448 242 242 788.428> -25 85<393.382 582.573> 807 104<444.971 611.881> 1272 74<-11 86.5425> 1409 20<236.5 360>
VStem: 135 225<110 736 843 1265.72> 707 235<267.854 686.452>
LayerCount: 2
Fore
SplineSet
743 -224 m 2
 242 -224 l 2
 224 -224 217 -208 217 -194 c 0
 217 -170 238 -134 262 -134 c 2
 763 -134 l 2
 783 -134 791 -150 791 -164 c 0
 791 -188 769 -224 743 -224 c 2
360 110 m 1
 395 72 425 60 462 60 c 0
 624 60 707 234 707 460 c 0
 707 662 623 807 522 807 c 0
 507 807 434 803 360 736 c 1
 360 110 l 1
135 1168 m 2
 135 1220.29 113.687 1277 43.3406 1277 c 0
 31.6288 1277 18.5579 1275.43 4 1272 c 1
 -11 1346 l 1
 137 1378 193 1394 280 1429 c 1
 360 1429 l 1
 360 843 l 1
 420 887 485 911 564 911 c 0
 763 911 942 739 942 487 c 0
 942 159 701 -25 473 -25 c 0
 382 -25 307 21 259 77 c 1
 196 -26 l 1
 128 -14 l 1
 134 34 135 73 135 152 c 2
 135 1168 l 2
EndSplineSet
LCarets2: 1 0 
EndChar

StartChar: uni1E08
Encoding: 7688 7688 137
Width: 1365
VWidth: 2047
Flags: HW
HStem: -380 52<643.221 806.189> -172 64<730.575 812.942> -25 90<594.124 968.99> 894 21<1143.5 1254> 1263 84<591.275 954.595>
VStem: 70 265<400.214 890.786> 819 109<-310.333 -180.933>
LayerCount: 2
Fore
SplineSet
836 1678 m 1
 964 1571 l 1
 669 1452 l 2
 624.714 1434.14 598.5 1428 581 1428 c 0
 562.5 1428 551 1438.5 551 1458 c 0
 551 1472 556.307 1483.08 582 1501 c 2
 836 1678 l 1
734 -172 m 0
 695 -172 675 -175 642 -186 c 1
 629 -173 l 1
 697.311 -22.8841 l 1
 273.023 6.24135 70 331.128 70 646 c 0
 70 1049 382 1347 761 1347 c 0
 1033.48 1347 1103.76 1257 1208 1257 c 1
 1215.71 1138.54 1233.57 1024.24 1254 911 c 1
 1175 894 l 1
 1112 1090 1023 1263 762 1263 c 0
 564 1263 335 1090 335 684 c 0
 335 393 473 65 758 65 c 0
 924 65 1074 135 1230 314 c 1
 1293 264 l 1
 1154.44 81.8862 980.605 -22.8389 766.661 -24.9669 c 1
 730 -114 l 1
 746 -110 764 -108 783 -108 c 0
 865 -108 928 -156 928 -235 c 0
 928 -322 835 -380 710 -380 c 0
 644 -380 609 -368 557 -345 c 1
 579 -300 l 1
 634 -320 656 -328 696 -328 c 0
 758 -328 819 -299 819 -244 c 0
 819 -201 781 -172 734 -172 c 0
EndSplineSet
LCarets2: 1 0 
EndChar

StartChar: uni1E09
Encoding: 7689 7689 138
Width: 886
VWidth: 2047
Flags: HW
HStem: -366 52<339.221 502.189> -158 64<426.575 508.942> -25 105<444.078 667.931> 581 196 826 85<410.402 582.41>
VStem: 75 235<246.824 650.022> 515 109<-296.333 -166.933> 616 219<602.689 795.052>
LayerCount: 2
Fore
SplineSet
609 1373 m 1
 616 1376 629 1378 639 1378 c 0
 712.859 1378 731.496 1342.92 752 1330 c 1
 774 1285 l 1
 535 1073 l 2
 508.85 1048.19 483 1045 463 1045 c 0
 447 1045 433.001 1056.33 433.001 1069.67 c 0
 433.001 1080.67 433.188 1095.8 446 1116 c 2
 609 1373 l 1
430 -158 m 0
 391 -158 371 -161 338 -172 c 1
 325 -159 l 1
 391.954 -11.8663 l 1
 192.118 35.1527 75 204.368 75 430 c 0
 75 722 271 911 513 911 c 0
 736 911 835 807 835 696 c 0
 835 632 798 581 733 581 c 0
 667 581 622 623 616 678 c 0
 610 744 581 826 503 826 c 0
 396 826 310 687 310 474 c 0
 310 242 423 80 555 80 c 0
 617 80 704 132 781 241 c 1
 844 198 l 1
 753 41 655 -25 510 -25 c 0
 492.156 -25 474.776 -24.1849 457.876 -22.5859 c 1
 426 -100 l 1
 442 -96 460 -94 479 -94 c 0
 561 -94 624 -142 624 -221 c 0
 624 -308 531 -366 406 -366 c 0
 340 -366 305 -354 253 -331 c 1
 275 -286 l 1
 330 -306 352 -314 392 -314 c 0
 454 -314 515 -285 515 -230 c 0
 515 -187 477 -158 430 -158 c 0
EndSplineSet
LCarets2: 1 0 
EndChar

StartChar: uni1E0A
Encoding: 7690 7690 139
Width: 1471
VWidth: 2047
Flags: HW
HStem: 0 67<49 195.221> 0 82<455.298 881.904> 1255 67<48.998 195.221 463.463 765.624> 1405 246<537.658 726.342>
VStem: 203 250<91.8837 1233> 510 244<1433.06 1622.94> 1125 270<379.913 863.314>
LayerCount: 2
Fore
SplineSet
510 1528 m 0
 510 1596 564 1651 632 1651 c 0
 700 1651 754 1596 754 1528 c 0
 754 1460 700 1405 632 1405 c 0
 564 1405 510 1460 510 1528 c 0
453 153 m 2
 453 95 472 82 631 82 c 0
 892 82 1125 180 1125 582 c 0
 1125 891 984 1241 580 1241 c 0
 505 1241 453 1235 453 1170 c 2
 453 153 l 2
48.998 0 m 1
 45 4 l 1
 45 50 l 2
 45 61 53 67 62 67 c 2
 91 67 l 2
 172 67 203 92 203 157 c 2
 203 1165 l 2
 203 1230 172 1255 91 1255 c 2
 62 1255 l 2
 53 1255 45 1261 45 1272 c 2
 45 1318 l 1
 48.998 1322 l 1
 656 1322 l 2
 1072 1322 1395 1012 1395 632 c 0
 1395 129 997 0 692 0 c 2
 48.998 0 l 1
EndSplineSet
LCarets2: 1 0 
EndChar

StartChar: uni1E0B
Encoding: 7691 7691 140
Width: 1075
VWidth: 2047
Flags: HW
HStem: -25 102<412.332 618.531> 58 74<935.48 1033.02> 825 86<413.674 632.319> 1047 246<300.658 489.342> 1272 74<532 629.543> 1409 20<779.5 903>
VStem: 70 235<213.66 646.004> 273 244<1075.06 1264.94> 678 225<168 725 860 1265.72>
LayerCount: 2
Fore
SplineSet
273 1170 m 0
 273 1238 327 1293 395 1293 c 0
 463 1293 517 1238 517 1170 c 0
 517 1102 463 1047 395 1047 c 0
 327 1047 273 1102 273 1170 c 0
678 725 m 1
 632 792 588 825 524 825 c 0
 439.6 825 305 751 305 455 c 0
 305 196 402 77 519 77 c 0
 559 77 605 99 678 168 c 1
 678 725 l 1
903 236.01 m 2
 903 183.708 924.313 127.003 994.66 127.003 c 0
 1006.37 127.003 1019.44 128.575 1034 132 c 1
 1049 58 l 1
 901 26 845 10 758 -25 c 1
 678 -25 l 1
 681 68 l 1
 604 0 552 -25 466 -25 c 0
 250 -25 70 165 70 419 c 0
 70 566 114 692 209 787 c 0
 292 865 388 911 545 911 c 0
 577 911 650 887.999 678 860 c 1
 678 1168 l 2
 678 1220.29 656.687 1277 586.341 1277 c 0
 574.629 1277 561.558 1275.43 547 1272 c 1
 532 1346 l 1
 680 1378 736 1394 823 1429 c 1
 903 1429 l 1
 903 236.01 l 2
EndSplineSet
LCarets2: 1 0 
EndChar

StartChar: uni1E0C
Encoding: 7692 7692 141
Width: 1471
VWidth: 2047
Flags: HW
HStem: -358 246<523.658 712.342> 0 67<49 195.221> 0 82<455.298 881.904> 1255 67<48.998 195.221 463.463 765.624>
VStem: 203 250<91.8837 1233> 496 244<-329.94 -140.06> 1125 270<379.913 863.314>
LayerCount: 2
Fore
SplineSet
496 -235 m 0
 496 -167 550 -112 618 -112 c 0
 686 -112 740 -167 740 -235 c 0
 740 -303 686 -358 618 -358 c 0
 550 -358 496 -303 496 -235 c 0
453 153 m 2
 453 95 472 82 631 82 c 0
 892 82 1125 180 1125 582 c 0
 1125 891 984 1241 580 1241 c 0
 505 1241 453 1235 453 1170 c 2
 453 153 l 2
48.998 0 m 1
 45 4 l 1
 45 50 l 2
 45 61 53 67 62 67 c 2
 91 67 l 2
 172 67 203 92 203 157 c 2
 203 1165 l 2
 203 1230 172 1255 91 1255 c 2
 62 1255 l 2
 53 1255 45 1261 45 1272 c 2
 45 1318 l 1
 48.998 1322 l 1
 656 1322 l 2
 1072 1322 1395 1012 1395 632 c 0
 1395 129 997 0 692 0 c 2
 48.998 0 l 1
EndSplineSet
LCarets2: 1 0 
EndChar

StartChar: uni1E0D
Encoding: 7693 7693 142
Width: 1075
VWidth: 2047
Flags: HW
HStem: -358 246<412.658 601.342> -25 102<412.332 618.531> 58 74<935.48 1033.02> 825 86<413.674 632.319> 1272 74<532 629.543> 1409 20<779.5 903>
VStem: 70 235<213.66 646.004> 385 244<-329.94 -140.06> 678 225<168 725 860 1265.72>
LayerCount: 2
Fore
SplineSet
385 -235 m 0
 385 -167 439 -112 507 -112 c 0
 575 -112 629 -167 629 -235 c 0
 629 -303 575 -358 507 -358 c 0
 439 -358 385 -303 385 -235 c 0
678 725 m 1
 632 792 588 825 524 825 c 0
 439.6 825 305 751 305 455 c 0
 305 196 402 77 519 77 c 0
 559 77 605 99 678 168 c 1
 678 725 l 1
903 236.01 m 2
 903 183.708 924.313 127.003 994.66 127.003 c 0
 1006.37 127.003 1019.44 128.575 1034 132 c 1
 1049 58 l 1
 901 26 845 10 758 -25 c 1
 678 -25 l 1
 681 68 l 1
 604 0 552 -25 466 -25 c 0
 250 -25 70 165 70 419 c 0
 70 566 114 692 209 787 c 0
 292 865 388 911 545 911 c 0
 577 911 650 887.999 678 860 c 1
 678 1168 l 2
 678 1220.29 656.687 1277 586.341 1277 c 0
 574.629 1277 561.558 1275.43 547 1272 c 1
 532 1346 l 1
 680 1378 736 1394 823 1429 c 1
 903 1429 l 1
 903 236.01 l 2
EndSplineSet
LCarets2: 1 0 
EndChar

StartChar: uni1E0E
Encoding: 7694 7694 143
Width: 1471
VWidth: 2047
Flags: HW
HStem: -215 90<295.448 318 318 864.428> 0 67<49 195.221> 0 82<455.298 881.904> 1255 67<48.998 195.221 463.463 765.624>
VStem: 203 250<91.8837 1233> 1125 270<379.913 863.314>
LayerCount: 2
Fore
SplineSet
819 -215 m 2
 318 -215 l 2
 300 -215 293 -199 293 -185 c 0
 293 -161 314 -125 338 -125 c 2
 839 -125 l 2
 859 -125 867 -141 867 -155 c 0
 867 -179 845 -215 819 -215 c 2
453 153 m 2
 453 95 472 82 631 82 c 0
 892 82 1125 180 1125 582 c 0
 1125 891 984 1241 580 1241 c 0
 505 1241 453 1235 453 1170 c 2
 453 153 l 2
48.998 0 m 1
 45 4 l 1
 45 50 l 2
 45 61 53 67 62 67 c 2
 91 67 l 2
 172 67 203 92 203 157 c 2
 203 1165 l 2
 203 1230 172 1255 91 1255 c 2
 62 1255 l 2
 53 1255 45 1261 45 1272 c 2
 45 1318 l 1
 48.998 1322 l 1
 656 1322 l 2
 1072 1322 1395 1012 1395 632 c 0
 1395 129 997 0 692 0 c 2
 48.998 0 l 1
EndSplineSet
LCarets2: 1 0 
EndChar

StartChar: uni1E0F
Encoding: 7695 7695 144
Width: 1075
VWidth: 2047
Flags: HW
HStem: -223 90<194.448 217 217 763.428> -25 102<412.332 618.531> 58 74<935.48 1033.02> 825 86<413.674 632.319> 1272 74<532 629.543> 1409 20<779.5 903>
VStem: 70 235<213.66 646.004> 678 225<168 725 860 1265.72>
LayerCount: 2
Fore
SplineSet
718 -223 m 2
 217 -223 l 2
 199 -223 192 -207 192 -193 c 0
 192 -169 213 -133 237 -133 c 2
 738 -133 l 2
 758 -133 766 -149 766 -163 c 0
 766 -187 744 -223 718 -223 c 2
678 725 m 1
 632 792 588 825 524 825 c 0
 439.6 825 305 751 305 455 c 0
 305 196 402 77 519 77 c 0
 559 77 605 99 678 168 c 1
 678 725 l 1
903 236.01 m 2
 903 183.708 924.313 127.003 994.66 127.003 c 0
 1006.37 127.003 1019.44 128.575 1034 132 c 1
 1049 58 l 1
 901 26 845 10 758 -25 c 1
 678 -25 l 1
 681 68 l 1
 604 0 552 -25 466 -25 c 0
 250 -25 70 165 70 419 c 0
 70 566 114 692 209 787 c 0
 292 865 388 911 545 911 c 0
 577 911 650 887.999 678 860 c 1
 678 1168 l 2
 678 1220.29 656.687 1277 586.341 1277 c 0
 574.629 1277 561.558 1275.43 547 1272 c 1
 532 1346 l 1
 680 1378 736 1394 823 1429 c 1
 903 1429 l 1
 903 236.01 l 2
EndSplineSet
LCarets2: 1 0 
EndChar

StartChar: uni1E10
Encoding: 7696 7696 145
Width: 1471
VWidth: 2047
Flags: HW
HStem: -372 52<268.221 431.189> -164 64<355.575 437.942> 0 67<49 195.221> 0 82<455.298 881.904> 1255 67<48.998 195.221 463.463 765.624>
VStem: 203 250<91.8837 1233> 444 109<-302.333 -172.933> 1125 270<379.913 863.314>
LayerCount: 2
Fore
SplineSet
359 -164 m 0
 320 -164 300 -167 267 -178 c 1
 254 -165 l 1
 329.084 1.29691e-06 l 1
 48.998 0 l 1
 45 4 l 1
 45 50 l 2
 45 61 53 67 62 67 c 2
 91 67 l 2
 172 67 203 92 203 157 c 2
 203 1165 l 2
 203 1230 172 1255 91 1255 c 2
 62 1255 l 2
 53 1255 45 1261 45 1272 c 2
 45 1318 l 1
 48.998 1322 l 1
 656 1322 l 2
 1072 1322 1395 1012 1395 632 c 0
 1395 129 997 0 692 0 c 2
 398.647 1.65914e-07 l 1
 355 -106 l 1
 371 -102 389 -100 408 -100 c 0
 490 -100 553 -148 553 -227 c 0
 553 -314 460 -372 335 -372 c 0
 269 -372 234 -360 182 -337 c 1
 204 -292 l 1
 259 -312 281 -320 321 -320 c 0
 383 -320 444 -291 444 -236 c 0
 444 -193 406 -164 359 -164 c 0
453 153 m 2
 453 95 472 82 631 82 c 0
 892 82 1125 180 1125 582 c 0
 1125 891 984 1241 580 1241 c 0
 505 1241 453 1235 453 1170 c 2
 453 153 l 2
EndSplineSet
LCarets2: 1 0 
EndChar

StartChar: uni1E11
Encoding: 7697 7697 146
Width: 1075
VWidth: 2047
Flags: HW
HStem: -363 52<363.221 526.189> -155 64<450.575 532.942> -25 102<412.332 618.531> 58 74<935.48 1033.02> 825 86<413.674 632.319> 1272 74<532 629.543> 1409 20<779.5 903>
VStem: 70 235<213.66 646.004> 539 109<-293.333 -163.933> 678 225<168 725 860 1265.72>
LayerCount: 2
Fore
SplineSet
454 -155 m 0
 415 -155 395 -158 362 -169 c 1
 349 -156 l 1
 410.538 -20.7689 l 1
 220.043 8.54349 70 187.097 70 419 c 0
 70 566 114 692 209 787 c 0
 292 865 388 911 545 911 c 0
 577 911 650 887.999 678 860 c 1
 678 1168 l 2
 678 1220.29 656.687 1277 586.341 1277 c 0
 574.629 1277 561.558 1275.43 547 1272 c 1
 532 1346 l 1
 680 1378 736 1394 823 1429 c 1
 903 1429 l 1
 903 236.01 l 2
 903 183.708 924.313 127.003 994.66 127.003 c 0
 1006.37 127.003 1019.44 128.575 1034 132 c 1
 1049 58 l 1
 901 26 845 10 758 -25 c 1
 678 -25 l 1
 681 68 l 1
 608.188 3.69831 557.73 -22.1535 479.74 -24.7753 c 1
 450 -97 l 1
 466 -93 484 -91 503 -91 c 0
 585 -91 648 -139 648 -218 c 0
 648 -305 555 -363 430 -363 c 0
 364 -363 329 -351 277 -328 c 1
 299 -283 l 1
 354 -303 376 -311 416 -311 c 0
 478 -311 539 -282 539 -227 c 0
 539 -184 501 -155 454 -155 c 0
678 725 m 1
 632 792 588 825 524 825 c 0
 439.6 825 305 751 305 455 c 0
 305 196 402 77 519 77 c 0
 559 77 605 99 678 168 c 1
 678 725 l 1
EndSplineSet
LCarets2: 1 0 
EndChar

StartChar: uni1E12
Encoding: 7698 7698 147
Width: 1471
VWidth: 2047
Flags: HW
HStem: 0 67<49 195.221> 0 82<455.298 881.904> 1255 67<48.998 195.221 463.463 765.624>
VStem: 203 250<91.8837 1233> 1125 270<379.913 863.314>
LayerCount: 2
Fore
SplineSet
623 -117 m 1
 682 -213 757 -299 830 -381 c 1
 780 -418 l 1
 696 -367 639 -328 570 -254 c 1
 494 -332 440 -367 360 -418 c 1
 311 -381 l 1
 383 -300 461 -211 521 -117 c 1
 623 -117 l 1
453 153 m 2
 453 95 472 82 631 82 c 0
 892 82 1125 180 1125 582 c 0
 1125 891 984 1241 580 1241 c 0
 505 1241 453 1235 453 1170 c 2
 453 153 l 2
48.998 0 m 1
 45 4 l 1
 45 50 l 2
 45 61 53 67 62 67 c 2
 91 67 l 2
 172 67 203 92 203 157 c 2
 203 1165 l 2
 203 1230 172 1255 91 1255 c 2
 62 1255 l 2
 53 1255 45 1261 45 1272 c 2
 45 1318 l 1
 48.998 1322 l 1
 656 1322 l 2
 1072 1322 1395 1012 1395 632 c 0
 1395 129 997 0 692 0 c 2
 48.998 0 l 1
EndSplineSet
LCarets2: 1 0 
EndChar

StartChar: uni1E13
Encoding: 7699 7699 148
Width: 1075
VWidth: 2047
Flags: HW
HStem: -25 102<412.332 618.531> 58 74<935.48 1033.02> 825 86<413.674 632.319> 1272 74<532 629.543> 1409 20<779.5 903>
VStem: 70 235<213.66 646.004> 678 225<168 725 860 1265.72>
LayerCount: 2
Fore
SplineSet
519 -117 m 1
 578 -213 653 -299 726 -381 c 1
 676 -418 l 1
 592 -367 535 -328 466 -254 c 1
 390 -332 336 -367 256 -418 c 1
 207 -381 l 1
 279 -300 357 -211 417 -117 c 1
 519 -117 l 1
678 725 m 1
 632 792 588 825 524 825 c 0
 439.6 825 305 751 305 455 c 0
 305 196 402 77 519 77 c 0
 559 77 605 99 678 168 c 1
 678 725 l 1
903 236.01 m 2
 903 183.708 924.313 127.003 994.66 127.003 c 0
 1006.37 127.003 1019.44 128.575 1034 132 c 1
 1049 58 l 1
 901 26 845 10 758 -25 c 1
 678 -25 l 1
 681 68 l 1
 604 0 552 -25 466 -25 c 0
 250 -25 70 165 70 419 c 0
 70 566 114 692 209 787 c 0
 292 865 388 911 545 911 c 0
 577 911 650 887.999 678 860 c 1
 678 1168 l 2
 678 1220.29 656.687 1277 586.341 1277 c 0
 574.629 1277 561.558 1275.43 547 1272 c 1
 532 1346 l 1
 680 1378 736 1394 823 1429 c 1
 903 1429 l 1
 903 236.01 l 2
EndSplineSet
LCarets2: 1 0 
EndChar

StartChar: uni1E14
Encoding: 7700 7700 149
Width: 1153
VWidth: 2047
Flags: HW
HStem: 0 67<54.5 199.221> 0 95<459.356 907.182> 662 86<459 741.537> 1228 94<459.424 863.343> 1255 67<55.75 199.221> 1497 98<340 363 363 951.812>
VStem: 207 252<96.5802 662 748 1212.95>
LayerCount: 2
Fore
SplineSet
904 1497 m 2
 363 1497 l 2
 344 1497 336 1515 336 1530 c 0
 336 1556 359 1595 385 1595 c 2
 926 1595 l 2
 947 1595 956 1577 956 1562 c 0
 956 1536 932 1497 904 1497 c 2
54.5 0 m 1
 1055 0 l 1
 1070 111 1089 237 1111 346 c 1
 1021 366 l 1
 988 215 913 95 801 95 c 2
 487 95 l 2
 469 95 459 106 459 153 c 2
 459 662 l 1
 691 662 l 2
 741 662 750 600 761 517 c 0
 762 508 774 495 795 495 c 2
 838 495 l 1
 850 515 l 1
 846 548 836 630.699 836 705 c 0
 836 779.301 846 862 850 895 c 1
 838 915 l 1
 795 915 l 2
 774 915 762 902 761 893 c 0
 750 810 741 748 691 748 c 2
 459 748 l 1
 459 1170 l 2
 459 1212 468 1228 487 1228 c 2
 754 1228 l 2
 891 1228 942 1078 971 972 c 1
 1053 992 l 1
 1033 1095 1018 1205 1009 1322 c 1
 55.75 1322 l 1
 49 1318 l 1
 49 1272 l 2
 49 1261 57 1255 66 1255 c 2
 95 1255 l 2
 176 1255 207 1230 207 1165 c 2
 207 157 l 2
 207 92 176 67 95 67 c 2
 66 67 l 2
 57 67 49 61 49 50 c 2
 49 4 l 1
 54.5 0 l 1
42.3496 1703.08 m 1
 233.31 1550.84 l 2
 250.25 1536.76 257.18 1525.32 257.18 1513 c 0
 257.18 1494.96 248.71 1486.6 234.08 1486.6 c 0
 220.22 1486.6 199.754 1492.29 166.32 1507.72 c 2
 -77.7695 1620.36 l 1
 42.3496 1703.08 l 1
EndSplineSet
LCarets2: 1 0 
EndChar

StartChar: uni1E15
Encoding: 7701 7701 150
Width: 945
VWidth: 2047
Flags: HW
HStem: -25 116<449.091 703.008> 482 85<315 647.03> 826 85<438.129 590.813> 1099 98<192 215 215 803.812>
VStem: 70 235<256.1 557.07 567 628.146> 648 235<531.582 732.015>
LayerCount: 2
Fore
SplineSet
466.8 1567.1 m 1
 574.523 1349.3 l 2
 581.374 1335.45 585.379 1315.4 585.379 1302.51 c 0
 585.379 1285.16 572.177 1272.2 557.467 1272.2 c 0
 546.533 1272.2 534.899 1282.22 508.4 1307.9 c 2
 316.135 1494.26 l 1
 320.4 1514 l 1
 332.4 1527.5 379.066 1572 434.8 1572 c 0
 442.8 1572 461.2 1570.25 466.8 1567.1 c 1
756 1099 m 2
 215 1099 l 2
 196 1099 188 1117 188 1132 c 0
 188 1158 211 1197 237 1197 c 2
 778 1197 l 2
 799 1197 808 1179 808 1164 c 0
 808 1138 784 1099 756 1099 c 2
315 567 m 1
 643 567 l 1
 646.5 570.5 648 574 648 586 c 0
 648 769 562 826 508 826 c 0
 471 826 348 804 315 567 c 1
814 225 m 1
 877 172 l 1
 798 63 677 -25 510 -25 c 0
 199 -25 70 187 70 411 c 0
 70 724 295 911 510 911 c 0
 811 911 883 699 883 524 c 0
 883 496 851 482 802 482 c 2
 306 482 l 1
 305 472 305 463 305 449 c 0
 305 247 434 91 558 91 c 0
 647 91 728 130 814 225 c 1
EndSplineSet
LCarets2: 1 0 
EndChar

StartChar: uni1E16
Encoding: 7702 7702 151
Width: 1153
VWidth: 2047
Flags: HW
HStem: 0 67<54.5 199.221> 0 95<459.356 907.182> 662 86<459 741.537> 1228 94<459.424 863.343> 1255 67<55.75 199.221> 1497 98<225 248 248 836.812>
VStem: 207 252<96.5802 662 748 1212.95>
LayerCount: 2
Fore
SplineSet
789 1497 m 2
 248 1497 l 2
 229 1497 221 1515 221 1530 c 0
 221 1556 244 1595 270 1595 c 2
 811 1595 l 2
 832 1595 841 1577 841 1562 c 0
 841 1536 817 1497 789 1497 c 2
54.5 0 m 1
 1055 0 l 1
 1070 111 1089 237 1111 346 c 1
 1021 366 l 1
 988 215 913 95 801 95 c 2
 487 95 l 2
 469 95 459 106 459 153 c 2
 459 662 l 1
 691 662 l 2
 741 662 750 600 761 517 c 0
 762 508 774 495 795 495 c 2
 838 495 l 1
 850 515 l 1
 846 548 836 630.699 836 705 c 0
 836 779.301 846 862 850 895 c 1
 838 915 l 1
 795 915 l 2
 774 915 762 902 761 893 c 0
 750 810 741 748 691 748 c 2
 459 748 l 1
 459 1170 l 2
 459 1212 468 1228 487 1228 c 2
 754 1228 l 2
 891 1228 942 1078 971 972 c 1
 1053 992 l 1
 1033 1095 1018 1205 1009 1322 c 1
 55.75 1322 l 1
 49 1318 l 1
 49 1272 l 2
 49 1261 57 1255 66 1255 c 2
 95 1255 l 2
 176 1255 207 1230 207 1165 c 2
 207 157 l 2
 207 92 176 67 95 67 c 2
 66 67 l 2
 57 67 49 61 49 50 c 2
 49 4 l 1
 54.5 0 l 1
1096.06 1704.6 m 1
 1194.62 1610.44 l 1
 967.47 1505.72 l 2
 933.368 1490 913.185 1484.6 899.71 1484.6 c 0
 885.465 1484.6 876.61 1493.84 876.61 1511 c 0
 876.61 1523.32 880.696 1533.07 900.48 1548.84 c 2
 1096.06 1704.6 l 1
EndSplineSet
LCarets2: 1 0 
EndChar

StartChar: uni1E17
Encoding: 7703 7703 152
Width: 945
VWidth: 2047
Flags: HW
HStem: -25 116<449.091 703.008> 482 85<315 647.03> 826 85<438.129 590.813> 1099 98<192 215 215 803.812>
VStem: 70 235<256.1 557.07 567 628.146> 648 235<531.582 732.015>
LayerCount: 2
Fore
SplineSet
560.4 1553.1 m 1
 566 1555.8 576.4 1557.6 584.4 1557.6 c 0
 643.487 1557.6 658.396 1526.03 674.8 1514.4 c 1
 692.4 1473.9 l 1
 501.2 1283.1 l 2
 480.28 1260.77 459.6 1257.9 443.6 1257.9 c 0
 430.8 1257.9 419.601 1268.1 419.601 1280.1 c 0
 419.601 1290 419.751 1303.62 430 1321.8 c 2
 560.4 1553.1 l 1
756 1099 m 2
 215 1099 l 2
 196 1099 188 1117 188 1132 c 0
 188 1158 211 1197 237 1197 c 2
 778 1197 l 2
 799 1197 808 1179 808 1164 c 0
 808 1138 784 1099 756 1099 c 2
315 567 m 1
 643 567 l 1
 646.5 570.5 648 574 648 586 c 0
 648 769 562 826 508 826 c 0
 471 826 348 804 315 567 c 1
814 225 m 1
 877 172 l 1
 798 63 677 -25 510 -25 c 0
 199 -25 70 187 70 411 c 0
 70 724 295 911 510 911 c 0
 811 911 883 699 883 524 c 0
 883 496 851 482 802 482 c 2
 306 482 l 1
 305 472 305 463 305 449 c 0
 305 247 434 91 558 91 c 0
 647 91 728 130 814 225 c 1
EndSplineSet
LCarets2: 1 0 
EndChar

StartChar: uni1E18
Encoding: 7704 7704 153
Width: 1153
VWidth: 2047
Flags: HW
HStem: 0 67<54.5 199.221> 0 95<459.356 907.182> 662 86<459 741.537> 1228 94<459.424 863.343> 1255 67<55.75 199.221>
VStem: 207 252<96.5802 662 748 1212.95>
LayerCount: 2
Fore
SplineSet
639 -117 m 1
 698 -213 773 -299 846 -381 c 1
 796 -418 l 1
 712 -367 655 -328 586 -254 c 1
 510 -332 456 -367 376 -418 c 1
 327 -381 l 1
 399 -300 477 -211 537 -117 c 1
 639 -117 l 1
54.5 0 m 1
 1055 0 l 1
 1070 111 1089 237 1111 346 c 1
 1021 366 l 1
 988 215 913 95 801 95 c 2
 487 95 l 2
 469 95 459 106 459 153 c 2
 459 662 l 1
 691 662 l 2
 741 662 750 600 761 517 c 0
 762 508 774 495 795 495 c 2
 838 495 l 1
 850 515 l 1
 846 548 836 630.699 836 705 c 0
 836 779.301 846 862 850 895 c 1
 838 915 l 1
 795 915 l 2
 774 915 762 902 761 893 c 0
 750 810 741 748 691 748 c 2
 459 748 l 1
 459 1170 l 2
 459 1212 468 1228 487 1228 c 2
 754 1228 l 2
 891 1228 942 1078 971 972 c 1
 1053 992 l 1
 1033 1095 1018 1205 1009 1322 c 1
 55.75 1322 l 1
 49 1318 l 1
 49 1272 l 2
 49 1261 57 1255 66 1255 c 2
 95 1255 l 2
 176 1255 207 1230 207 1165 c 2
 207 157 l 2
 207 92 176 67 95 67 c 2
 66 67 l 2
 57 67 49 61 49 50 c 2
 49 4 l 1
 54.5 0 l 1
EndSplineSet
LCarets2: 1 0 
EndChar

StartChar: uni1E19
Encoding: 7705 7705 154
Width: 945
VWidth: 2047
Flags: HW
HStem: -25 116<449.091 703.008> 482 85<315 647.03> 826 85<438.129 590.813>
VStem: 70 235<256.1 557.07 567 628.146> 648 235<531.582 732.015>
LayerCount: 2
Fore
SplineSet
532 -117 m 1
 591 -213 666 -299 739 -381 c 1
 689 -418 l 1
 605 -367 548 -328 479 -254 c 1
 403 -332 349 -367 269 -418 c 1
 220 -381 l 1
 292 -300 370 -211 430 -117 c 1
 532 -117 l 1
315 567 m 1
 643 567 l 1
 646.5 570.5 648 574 648 586 c 0
 648 769 562 826 508 826 c 0
 471 826 348 804 315 567 c 1
814 225 m 1
 877 172 l 1
 798 63 677 -25 510 -25 c 0
 199 -25 70 187 70 411 c 0
 70 724 295 911 510 911 c 0
 811 911 883 699 883 524 c 0
 883 496 851 482 802 482 c 2
 306 482 l 1
 305 472 305 463 305 449 c 0
 305 247 434 91 558 91 c 0
 647 91 728 130 814 225 c 1
EndSplineSet
LCarets2: 1 0 
EndChar

StartChar: uni1E1A
Encoding: 7706 7706 155
Width: 1153
VWidth: 2047
Flags: HW
HStem: -355 117<614.887 782.781> -246 121<370.773 548.215> 0 67<54.5 199.221> 0 95<459.356 907.182> 662 86<459 741.537> 1228 94<459.424 863.343> 1255 67<55.75 199.221>
VStem: 207 252<96.5802 662 748 1212.95> 297 568<-187 -142 -334 -142>
LayerCount: 2
Fore
SplineSet
714 -238 m 0
 758 -238 783 -218 812 -123 c 1
 865 -142 l 1
 840 -277 782 -355 687 -355 c 0
 642 -355 599 -326 557 -296 c 0
 519 -270 481 -246 445 -246 c 0
 392 -246 369 -274 349 -349 c 1
 297 -334 l 1
 325 -201 371 -125 459 -125 c 0
 522 -125 567 -157 607 -187 c 0
 641 -214 675 -238 714 -238 c 0
54.5 0 m 1
 1055 0 l 1
 1070 111 1089 237 1111 346 c 1
 1021 366 l 1
 988 215 913 95 801 95 c 2
 487 95 l 2
 469 95 459 106 459 153 c 2
 459 662 l 1
 691 662 l 2
 741 662 750 600 761 517 c 0
 762 508 774 495 795 495 c 2
 838 495 l 1
 850 515 l 1
 846 548 836 630.699 836 705 c 0
 836 779.301 846 862 850 895 c 1
 838 915 l 1
 795 915 l 2
 774 915 762 902 761 893 c 0
 750 810 741 748 691 748 c 2
 459 748 l 1
 459 1170 l 2
 459 1212 468 1228 487 1228 c 2
 754 1228 l 2
 891 1228 942 1078 971 972 c 1
 1053 992 l 1
 1033 1095 1018 1205 1009 1322 c 1
 55.75 1322 l 1
 49 1318 l 1
 49 1272 l 2
 49 1261 57 1255 66 1255 c 2
 95 1255 l 2
 176 1255 207 1230 207 1165 c 2
 207 157 l 2
 207 92 176 67 95 67 c 2
 66 67 l 2
 57 67 49 61 49 50 c 2
 49 4 l 1
 54.5 0 l 1
EndSplineSet
LCarets2: 1 0 
EndChar

StartChar: uni1E1B
Encoding: 7707 7707 156
Width: 945
VWidth: 2047
Flags: HW
HStem: -352 117<514.887 682.781> -243 121<270.773 448.215> -25 116<449.091 703.008> 482 85<315 647.03> 826 85<438.129 590.813>
VStem: 70 235<256.1 557.07 567 628.146> 197 568<-184 -139 -331 -139> 648 235<531.582 732.015>
LayerCount: 2
Fore
SplineSet
614 -235 m 0
 658 -235 683 -215 712 -120 c 1
 765 -139 l 1
 740 -274 682 -352 587 -352 c 0
 542 -352 499 -323 457 -293 c 0
 419 -267 381 -243 345 -243 c 0
 292 -243 269 -271 249 -346 c 1
 197 -331 l 1
 225 -198 271 -122 359 -122 c 0
 422 -122 467 -154 507 -184 c 0
 541 -211 575 -235 614 -235 c 0
315 567 m 1
 643 567 l 1
 646.5 570.5 648 574 648 586 c 0
 648 769 562 826 508 826 c 0
 471 826 348 804 315 567 c 1
814 225 m 1
 877 172 l 1
 798 63 677 -25 510 -25 c 0
 199 -25 70 187 70 411 c 0
 70 724 295 911 510 911 c 0
 811 911 883 699 883 524 c 0
 883 496 851 482 802 482 c 2
 306 482 l 1
 305 472 305 463 305 449 c 0
 305 247 434 91 558 91 c 0
 647 91 728 130 814 225 c 1
EndSplineSet
LCarets2: 1 0 
EndChar

StartChar: uni1E1C
Encoding: 7708 7708 157
Width: 1153
VWidth: 2047
Flags: HW
HStem: -372 52<455.221 618.189> -164 64<542.575 624.942> 0 67<54.5 199.221> 0 95<459.356 907.182> 662 86<459 741.537> 1228 94<459.424 863.343> 1255 67<55.75 199.221> 1417 107<453.186 773.759> 1629 20<337 402.5 829 891>
VStem: 207 252<96.5802 662 748 1212.95> 337 554<1506 1524 1649 1649> 631 109<-302.333 -172.933>
LayerCount: 2
Fore
SplineSet
891 1649 m 1
 879 1503 750 1417 616 1417 c 0
 465 1417 348 1506 337 1649 c 1
 394 1649 l 1
 411 1569 507 1524 616 1524 c 0
 716 1524 822 1569 836 1649 c 1
 891 1649 l 1
546 -164 m 0
 507 -164 487 -167 454 -178 c 1
 441 -165 l 1
 516.084 3.88578e-15 l 1
 539.272 3.88578e-15 562.459 -2.77556e-17 585.647 -2.77556e-17 c 1
 542 -106 l 1
 558 -102 576 -100 595 -100 c 0
 677 -100 740 -148 740 -227 c 0
 740 -314 647 -372 522 -372 c 0
 456 -372 421 -360 369 -337 c 1
 391 -292 l 1
 446 -312 468 -320 508 -320 c 0
 570 -320 631 -291 631 -236 c 0
 631 -193 593 -164 546 -164 c 0
585.647 -2.77556e-17 m 1
 1055 0 l 1
 1070 111 1089 237 1111 346 c 1
 1021 366 l 1
 988 215 913 95 801 95 c 2
 487 95 l 2
 469 95 459 106 459 153 c 2
 459 662 l 1
 691 662 l 2
 741 662 750 600 761 517 c 0
 762 508 774 495 795 495 c 2
 838 495 l 1
 850 515 l 1
 846 548 836 630.699 836 705 c 0
 836 779.301 846 862 850 895 c 1
 838 915 l 1
 795 915 l 2
 774 915 762 902 761 893 c 0
 750 810 741 748 691 748 c 2
 459 748 l 1
 459 1170 l 2
 459 1212 468 1228 487 1228 c 2
 754 1228 l 2
 891 1228 942 1078 971 972 c 1
 1053 992 l 1
 1033 1095 1018 1205 1009 1322 c 1
 55.75 1322 l 1
 49 1318 l 1
 49 1272 l 2
 49 1261 57 1255 66 1255 c 2
 95 1255 l 2
 176 1255 207 1230 207 1165 c 2
 207 157 l 2
 207 92 176 67 95 67 c 2
 66 67 l 2
 57 67 49 61 49 50 c 2
 49 4 l 1
 54.5 0 l 1
 516.084 3.88578e-15 l 1
 522 13 l 1
 591 13 l 1
 585.647 -2.77556e-17 l 1
EndSplineSet
LCarets2: 1 0 
EndChar

StartChar: uni1E1D
Encoding: 7709 7709 158
Width: 945
VWidth: 2047
Flags: HW
HStem: -382 52<361.221 524.189> -174 64<448.575 530.942> -25 116<449.091 703.008> 482 85<315 647.03> 826 85<438.129 590.813> 1020 127<338.909 616.051>
VStem: 70 235<256.1 557.07 567 628.146> 200 65<1195.39 1302> 200 553<1143 1147 1302 1302> 537 109<-312.333 -182.933> 648 235<531.582 732.015> 689 64<1203.95 1308.32>
LayerCount: 2
Fore
SplineSet
265 1330 m 1
 269 1225 354 1147 478 1147 c 0
 572 1147 684 1203 689 1330 c 1
 753 1302 l 1
 733 1096 580 1020 478 1020 c 0
 319 1020 215 1143 200 1302 c 1
 265 1330 l 1
452 -174 m 0
 413 -174 393 -177 360 -188 c 1
 347 -175 l 1
 418.321 -18.2702 l 1
 173.424 19.482 70 210.431 70 411 c 0
 70 724 295 911 510 911 c 0
 811 911 883 699 883 524 c 0
 883 496 851 482 802 482 c 2
 306 482 l 1
 305 472 305 463 305 449 c 0
 305 247 434 91 558 91 c 0
 647 91 728 130 814 225 c 1
 877 172 l 1
 798 63 677 -25 510 -25 c 0
 501.757 -25 493.641 -24.8511 485.653 -24.5569 c 1
 448 -116 l 1
 464 -112 482 -110 501 -110 c 0
 583 -110 646 -158 646 -237 c 0
 646 -324 553 -382 428 -382 c 0
 362 -382 327 -370 275 -347 c 1
 297 -302 l 1
 352 -322 374 -330 414 -330 c 0
 476 -330 537 -301 537 -246 c 0
 537 -203 499 -174 452 -174 c 0
315 567 m 1
 643 567 l 1
 646.5 570.5 648 574 648 586 c 0
 648 769 562 826 508 826 c 0
 471 826 348 804 315 567 c 1
EndSplineSet
LCarets2: 1 0 
EndChar

StartChar: uni1E1E
Encoding: 7710 7710 159
Width: 1051
VWidth: 2047
Flags: HW
HStem: 2 65<53 199.221 466.058 610> 662 86<457 739.537> 1228 94<457.424 861.343> 1255 67<55.75 199.221> 1419 246<514.658 703.342>
VStem: 207 250<78.3379 662 748 1212.95> 487 244<1447.06 1636.94>
LayerCount: 2
Fore
SplineSet
487 1542 m 0
 487 1610 541 1665 609 1665 c 0
 677 1665 731 1610 731 1542 c 0
 731 1474 677 1419 609 1419 c 0
 541 1419 487 1474 487 1542 c 0
457 157 m 2
 457 100 485 67 569 67 c 2
 598 67 l 2
 608 67 614 61 614 50 c 2
 614 2 l 1
 610 -2 l 1
 610 -2 405 2 332 2 c 0
 252 2 53 -2 53 -2 c 1
 49 2 l 1
 49 50 l 2
 49 61 57 67 66 67 c 2
 95 67 l 2
 176 67 207 92 207 157 c 2
 207 1165 l 2
 207 1230 176 1255 95 1255 c 2
 66 1255 l 2
 57 1255 49 1261 49 1272 c 2
 49 1318 l 1
 55.75 1322 l 1
 1007 1322 l 1
 1016 1205 1031 1095 1051 992 c 1
 969 972 l 1
 940 1078 889 1228 752 1228 c 2
 485 1228 l 2
 466 1228 457 1212 457 1170 c 2
 457 748 l 1
 689 748 l 2
 739 748 748 810 759 893 c 0
 760 902 772 915 793 915 c 2
 836 915 l 1
 848 895 l 1
 844 862 834 779.301 834 705 c 0
 834 630.699 844 548 848 515 c 1
 836 495 l 1
 793 495 l 2
 772 495 760 508 759 517 c 0
 748 600 739 662 689 662 c 2
 457 662 l 1
 457 157 l 2
EndSplineSet
LCarets2: 1 0 
EndChar

StartChar: uni1E1F
Encoding: 7711 7711 160
Width: 680
VWidth: 2047
Flags: HW
HStem: -2 69<55 182.101 433.766 570> 793 95<45.1413 194 419 623.321> 1344 85<459.696 595.502> 1484 246<450.658 639.342>
VStem: 195 224<83.5603 793 888 1168.89> 423 244<1512.06 1701.94>
LayerCount: 2
Fore
SplineSet
423 1607 m 0
 423 1675 477 1730 545 1730 c 0
 613 1730 667 1675 667 1607 c 0
 667 1539 613 1484 545 1484 c 0
 477 1484 423 1539 423 1607 c 0
194 156 m 2
 194 793 l 1
 100 793 l 2
 54 793 45 798 45 813 c 2
 45 841 l 2
 45 859 66 888 136 888 c 2
 195 888 l 1
 195 910 l 2
 195 1248 364 1429 557 1429 c 0
 774 1429 825 1305 825 1273 c 0
 825 1226 795 1185 740 1185 c 0
 683 1185 652 1212 627 1255 c 0
 592.774 1313.87 552 1344 518 1344 c 0
 473 1344 419 1298 419 993 c 2
 419 888 l 1
 598 888 l 2
 636 888 658 881 658 868 c 2
 658 828 l 2
 658 803 605 793 567 793 c 2
 419 793 l 1
 419 161 l 2
 419 104 464 67 531 67 c 2
 557 67 l 2
 566 67 574 61 574 50 c 2
 574 2 l 1
 570 -2 l 1
 570 -2 383 2 303 2 c 0
 230 2 55 -2 55 -2 c 1
 51 2 l 1
 51 50 l 2
 51 61 57 67 67 67 c 2
 96 67 l 2
 165 67 194 99 194 156 c 2
EndSplineSet
LCarets2: 1 0 
EndChar

StartChar: uni1E20
Encoding: 7712 7712 161
Width: 1489
VWidth: 2047
Flags: HW
HStem: -25 90<627.463 1019.78> 558 69.001<901 1074.05 1334.97 1446> 894 21<1169.5 1278> 1263 84<610.798 973.831> 1497 98<470 493 493 1081.81>
VStem: 60 265<412.859 882.077> 1089 240<197.162 468 468 537.375> 1199 79<897.919 1082.09>
LayerCount: 2
Fore
SplineSet
1034 1497 m 2
 493 1497 l 2
 474 1497 466 1515 466 1530 c 0
 466 1556 489 1595 515 1595 c 2
 1056 1595 l 2
 1077 1595 1086 1577 1086 1562 c 0
 1086 1536 1062 1497 1034 1497 c 2
1329 468 m 2
 1329 233 l 2
 1329 203 1338 189 1353 175 c 1
 1210 54 1049 -25 790 -25 c 0
 355 -25 60 275 60 630 c 0
 60 1081 420 1347 785 1347 c 0
 1060 1347 1127.76 1257 1232 1257 c 1
 1239.71 1138.54 1257.57 1024.24 1278 911 c 1
 1199 894 l 1
 1140 1088 1043 1263 782 1263 c 0
 534 1263 325 1020 325 670 c 0
 325 360 497 65 827 65 c 0
 914.816 65 1020.09 94.6729 1089 150.759 c 1
 1089 468 l 2
 1089 533 1024 558 943 558 c 2
 914 558 l 2
 905 558 897 564 897 575 c 2
 897 623.001 l 1
 901 627.001 l 1
 901 627.001 1100 623.001 1180 623.001 c 0
 1253 623.001 1446 627.001 1446 627.001 c 1
 1450 623.001 l 1
 1450 575 l 2
 1450 564 1444 558 1434 558 c 2
 1422 558 l 2
 1338 558 1329 525 1329 468 c 2
EndSplineSet
LCarets2: 1 0 
EndChar

StartChar: uni1E21
Encoding: 7713 7713 162
Width: 1058
VWidth: 2047
Flags: HW
HStem: -476 91<351.492 703.636> -25 132<361.752 466.638 469.306 648.436> 276 76<413.741 600.199> 839 72<394.375 581.699> 1099 98<214 237 237 825.812>
VStem: 77 193<-313.093 -107.044> 127 218<430.115 748.323> 647 221<432.717 759.195> 831 186<-266.506 -95.5468>
LayerCount: 2
Fore
SplineSet
778 1099 m 2
 237 1099 l 2
 218 1099 210 1117 210 1132 c 0
 210 1158 233 1197 259 1197 c 2
 800 1197 l 2
 821 1197 830 1179 830 1164 c 0
 830 1138 806 1099 778 1099 c 2
647 582 m 0
 647 744 581 839 486 839 c 0
 406 839 345 768 345 616 c 0
 345 512 385 352 511 352 c 0
 565 352 647 386 647 582 c 0
383 -25 m 0
 358 -25 339 -25 319 -17 c 1
 276 -62 270 -127 270 -197 c 0
 270 -342 424 -385 482 -385 c 0
 635 -385 831 -327 831 -187 c 0
 831 -50.2637 624.234 -19 532 -19 c 0
 515 -19 496.005 -20.0686 468 -22 c 0
 439 -24 406 -25 383 -25 c 0
923 785 m 0
 871.94 785 856.5 818 847 843 c 0
 841.837 856.587 836 869 818 869 c 0
 796.5 869 775 851 757 832 c 1
 828.104 775.121 868 702.708 868 588 c 0
 868 387 694 276 502 276 c 0
 438 276 380 288 338 310 c 1
 327 285 317 246 317 213 c 0
 317 131 372 107 409 107 c 0
 428.3 107 524.8 121 602 121 c 0
 935.395 121 1017 -56.3164 1017 -134 c 0
 1017 -358 708 -476 424 -476 c 0
 256 -476 77 -419 77 -237 c 0
 77 -158 131 -64 237 9 c 1
 181 42 145 93 145 157 c 0
 145 221 180 289 241 347 c 1
 176 398 127 497 127 597 c 0
 127 788 308 911 503 911 c 0
 596 911 659 890 697 871 c 1
 755 924 847 956 903 956 c 0
 981 956 1013 905 1013 866 c 0
 1013 818 980 785 923 785 c 0
EndSplineSet
LCarets2: 1 0 
EndChar

StartChar: uni1E22
Encoding: 7714 7714 163
Width: 1482
VWidth: 2047
Flags: HW
HStem: -2 69<49 192.902 466.334 608 874 1017.9 1291.33 1433> 657 95<455 1028> 1255 69<49 192.902 466.334 608 874 1017.9 1291.33 1433> 1405 246<655.658 844.342>
VStem: 203 252<78.3379 657 752 1243.66> 628 244<1433.06 1622.94> 1028 252<78.3379 657 752 1243.66>
LayerCount: 2
Fore
SplineSet
1028 1165 m 2
 1028 1230 997 1255 916 1255 c 2
 887 1255 l 2
 878 1255 870 1261 870 1272 c 2
 870 1320 l 1
 874 1324 l 1
 874 1324 1073 1320 1153 1320 c 0
 1226 1320 1433 1324 1433 1324 c 1
 1437 1320 l 1
 1437 1272 l 2
 1437 1261 1431 1255 1421 1255 c 2
 1392 1255 l 2
 1308 1255 1280 1222 1280 1165 c 2
 1280 157 l 2
 1280 100 1308 67 1392 67 c 2
 1421 67 l 2
 1431 67 1437 61 1437 50 c 2
 1437 2 l 1
 1433 -2 l 1
 1433 -2 1226 2 1153 2 c 0
 1073 2 874 -2 874 -2 c 1
 870 2 l 1
 870 50 l 2
 870 61 878 67 887 67 c 2
 916 67 l 2
 997 67 1028 92 1028 157 c 2
 1028 657 l 1
 455 657 l 1
 455 157 l 2
 455 100 483 67 567 67 c 2
 596 67 l 2
 606 67 612 61 612 50 c 2
 612 2 l 1
 608 -2 l 1
 608 -2 401 2 328 2 c 0
 248 2 49 -2 49 -2 c 1
 45 2 l 1
 45 50 l 2
 45 61 53 67 62 67 c 2
 91 67 l 2
 172 67 203 92 203 157 c 2
 203 1165 l 2
 203 1230 172 1255 91 1255 c 2
 62 1255 l 2
 53 1255 45 1261 45 1272 c 2
 45 1320 l 1
 49 1324 l 1
 49 1324 248 1320 328 1320 c 0
 401 1320 608 1324 608 1324 c 1
 612 1320 l 1
 612 1272 l 2
 612 1261 606 1255 596 1255 c 2
 567 1255 l 2
 483 1255 455 1222 455 1165 c 2
 455 752 l 1
 1028 752 l 1
 1028 1165 l 2
628 1528 m 0
 628 1596 682 1651 750 1651 c 0
 818 1651 872 1596 872 1528 c 0
 872 1460 818 1405 750 1405 c 0
 682 1405 628 1460 628 1528 c 0
EndSplineSet
LCarets2: 1 0 
EndChar

StartChar: uni1E23
Encoding: 7715 7715 164
Width: 1106
VWidth: 2047
Flags: HW
HStem: -2 69<46 166.712 452.909 518 593 702.622 948.863 1066> 799 112<531.442 783.797> 1047 246<520.658 709.342> 1272 74<29 126.543> 1409 20<276.5 400>
VStem: 175 225<77.0886 156 156 689 787 1265.72> 493 244<1075.06 1264.94> 712 225<77.6163 786.509>
LayerCount: 2
Fore
SplineSet
493 1170 m 0
 493 1238 547 1293 615 1293 c 0
 683 1293 737 1238 737 1170 c 0
 737 1102 683 1047 615 1047 c 0
 547 1047 493 1102 493 1170 c 0
400 157 m 2
 400 77.7812 457.188 67 505 67 c 0
 514 67 522 61 522 50 c 2
 522 2 l 1
 518 -2 l 1
 518 -2 364 2 284 2 c 0
 211 2 46 -2 46 -2 c 1
 42 2 l 1
 42 50 l 2
 42 61 48 67 58 67 c 2
 77 67 l 2
 146 67 175 99 175 156 c 2
 175 1168 l 2
 175 1220.29 153.687 1277 83.3406 1277 c 0
 71.6288 1277 58.5579 1275.43 44 1272 c 1
 29 1346 l 1
 177 1378 233 1394 320 1429 c 1
 400 1429 l 1
 400 787 l 1
 511 870 620 911 697 911 c 0
 873 911 937 796 937 582 c 2
 937 156 l 2
 937 99 970 67 1037 67 c 2
 1053 67 l 2
 1062 67 1070 61 1070 50 c 2
 1070 2 l 1
 1066 -2 l 1
 1066 -2 901 2 821 2 c 0
 748 2 593 -2 593 -2 c 1
 589 2 l 1
 589 50 l 2
 589 61 595 67 605 67 c 0
 668.366 67 712 82.8145 712 156 c 2
 712 605 l 2
 712 763 692 799 611 799 c 0
 573 799 496 768 400 689 c 1
 400 157 l 2
EndSplineSet
LCarets2: 1 0 
EndChar

StartChar: uni1E24
Encoding: 7716 7716 165
Width: 1482
VWidth: 2047
Flags: HW
HStem: -358 246<654.658 843.342> -2 69<49 192.902 466.334 608 874 1017.9 1291.33 1433> 657 95<455 1028> 1255 69<49 192.902 466.334 608 874 1017.9 1291.33 1433>
VStem: 203 252<78.3379 657 752 1243.66> 627 244<-329.94 -140.06> 1028 252<78.3379 657 752 1243.66>
LayerCount: 2
Fore
SplineSet
1028 1165 m 2
 1028 1230 997 1255 916 1255 c 2
 887 1255 l 2
 878 1255 870 1261 870 1272 c 2
 870 1320 l 1
 874 1324 l 1
 874 1324 1073 1320 1153 1320 c 0
 1226 1320 1433 1324 1433 1324 c 1
 1437 1320 l 1
 1437 1272 l 2
 1437 1261 1431 1255 1421 1255 c 2
 1392 1255 l 2
 1308 1255 1280 1222 1280 1165 c 2
 1280 157 l 2
 1280 100 1308 67 1392 67 c 2
 1421 67 l 2
 1431 67 1437 61 1437 50 c 2
 1437 2 l 1
 1433 -2 l 1
 1433 -2 1226 2 1153 2 c 0
 1073 2 874 -2 874 -2 c 1
 870 2 l 1
 870 50 l 2
 870 61 878 67 887 67 c 2
 916 67 l 2
 997 67 1028 92 1028 157 c 2
 1028 657 l 1
 455 657 l 1
 455 157 l 2
 455 100 483 67 567 67 c 2
 596 67 l 2
 606 67 612 61 612 50 c 2
 612 2 l 1
 608 -2 l 1
 608 -2 401 2 328 2 c 0
 248 2 49 -2 49 -2 c 1
 45 2 l 1
 45 50 l 2
 45 61 53 67 62 67 c 2
 91 67 l 2
 172 67 203 92 203 157 c 2
 203 1165 l 2
 203 1230 172 1255 91 1255 c 2
 62 1255 l 2
 53 1255 45 1261 45 1272 c 2
 45 1320 l 1
 49 1324 l 1
 49 1324 248 1320 328 1320 c 0
 401 1320 608 1324 608 1324 c 1
 612 1320 l 1
 612 1272 l 2
 612 1261 606 1255 596 1255 c 2
 567 1255 l 2
 483 1255 455 1222 455 1165 c 2
 455 752 l 1
 1028 752 l 1
 1028 1165 l 2
627 -235 m 0
 627 -167 681 -112 749 -112 c 0
 817 -112 871 -167 871 -235 c 0
 871 -303 817 -358 749 -358 c 0
 681 -358 627 -303 627 -235 c 0
EndSplineSet
LCarets2: 1 0 
EndChar

StartChar: uni1E25
Encoding: 7717 7717 166
Width: 1106
VWidth: 2047
Flags: HW
HStem: -359 246<463.658 652.342> -2 69<46 166.712 452.909 518 593 702.622 948.863 1066> 799 112<531.442 783.797> 1272 74<29 126.543> 1409 20<276.5 400>
VStem: 175 225<77.0886 156 156 689 787 1265.72> 436 244<-330.94 -141.06> 712 225<77.6163 786.509>
LayerCount: 2
Fore
SplineSet
436 -236 m 0
 436 -168 490 -113 558 -113 c 0
 626 -113 680 -168 680 -236 c 0
 680 -304 626 -359 558 -359 c 0
 490 -359 436 -304 436 -236 c 0
400 157 m 2
 400 77.7812 457.188 67 505 67 c 0
 514 67 522 61 522 50 c 2
 522 2 l 1
 518 -2 l 1
 518 -2 364 2 284 2 c 0
 211 2 46 -2 46 -2 c 1
 42 2 l 1
 42 50 l 2
 42 61 48 67 58 67 c 2
 77 67 l 2
 146 67 175 99 175 156 c 2
 175 1168 l 2
 175 1220.29 153.687 1277 83.3406 1277 c 0
 71.6288 1277 58.5579 1275.43 44 1272 c 1
 29 1346 l 1
 177 1378 233 1394 320 1429 c 1
 400 1429 l 1
 400 787 l 1
 511 870 620 911 697 911 c 0
 873 911 937 796 937 582 c 2
 937 156 l 2
 937 99 970 67 1037 67 c 2
 1053 67 l 2
 1062 67 1070 61 1070 50 c 2
 1070 2 l 1
 1066 -2 l 1
 1066 -2 901 2 821 2 c 0
 748 2 593 -2 593 -2 c 1
 589 2 l 1
 589 50 l 2
 589 61 595 67 605 67 c 0
 668.366 67 712 82.8145 712 156 c 2
 712 605 l 2
 712 763 692 799 611 799 c 0
 573 799 496 768 400 689 c 1
 400 157 l 2
EndSplineSet
LCarets2: 1 0 
EndChar

StartChar: uni1E26
Encoding: 7718 7718 167
Width: 1482
VWidth: 2047
Flags: HW
HStem: -2 69<49 192.902 466.334 608 874 1017.9 1291.33 1433> 657 95<455 1028> 1255 69<49 192.902 466.334 608 874 1017.9 1291.33 1433> 1418.5 220<435.935 612.72 822.28 999.065>
VStem: 203 252<78.3379 657 752 1243.66> 413.5 221<1442.19 1614.81> 800.5 221<1442.19 1614.81> 1028 252<78.3379 657 752 1243.66>
LayerCount: 2
Fore
SplineSet
1028 1165 m 2
 1028 1230 997 1255 916 1255 c 2
 887 1255 l 2
 878 1255 870 1261 870 1272 c 2
 870 1320 l 1
 874 1324 l 1
 874 1324 1073 1320 1153 1320 c 0
 1226 1320 1433 1324 1433 1324 c 1
 1437 1320 l 1
 1437 1272 l 2
 1437 1261 1431 1255 1421 1255 c 2
 1392 1255 l 2
 1308 1255 1280 1222 1280 1165 c 2
 1280 157 l 2
 1280 100 1308 67 1392 67 c 2
 1421 67 l 2
 1431 67 1437 61 1437 50 c 2
 1437 2 l 1
 1433 -2 l 1
 1433 -2 1226 2 1153 2 c 0
 1073 2 874 -2 874 -2 c 1
 870 2 l 1
 870 50 l 2
 870 61 878 67 887 67 c 2
 916 67 l 2
 997 67 1028 92 1028 157 c 2
 1028 657 l 1
 455 657 l 1
 455 157 l 2
 455 100 483 67 567 67 c 2
 596 67 l 2
 606 67 612 61 612 50 c 2
 612 2 l 1
 608 -2 l 1
 608 -2 401 2 328 2 c 0
 248 2 49 -2 49 -2 c 1
 45 2 l 1
 45 50 l 2
 45 61 53 67 62 67 c 2
 91 67 l 2
 172 67 203 92 203 157 c 2
 203 1165 l 2
 203 1230 172 1255 91 1255 c 2
 62 1255 l 2
 53 1255 45 1261 45 1272 c 2
 45 1320 l 1
 49 1324 l 1
 49 1324 248 1320 328 1320 c 0
 401 1320 608 1324 608 1324 c 1
 612 1320 l 1
 612 1272 l 2
 612 1261 606 1255 596 1255 c 2
 567 1255 l 2
 483 1255 455 1222 455 1165 c 2
 455 752 l 1
 1028 752 l 1
 1028 1165 l 2
800.5 1528.5 m 0
 800.5 1588.5 849.5 1638.5 910.5 1638.5 c 0
 970.5 1638.5 1021.5 1588.5 1021.5 1528.5 c 0
 1021.5 1468.5 970.5 1418.5 910.5 1418.5 c 0
 849.5 1418.5 800.5 1468.5 800.5 1528.5 c 0
413.5 1528.5 m 0
 413.5 1588.5 464.5 1638.5 524.5 1638.5 c 0
 585.5 1638.5 634.5 1588.5 634.5 1528.5 c 0
 634.5 1468.5 585.5 1418.5 524.5 1418.5 c 0
 464.5 1418.5 413.5 1468.5 413.5 1528.5 c 0
EndSplineSet
LCarets2: 1 0 
EndChar

